<?xml version="1.0" standalone="no"?>
<!DOCTYPE svg PUBLIC "-//W3C//DTD SVG 1.1//EN" "http://www.w3.org/Graphics/SVG/1.1/DTD/svg11.dtd" >
<svg xmlns="http://www.w3.org/2000/svg" xmlns:xlink="http://www.w3.org/1999/xlink" version="1.1">
<metadata>
Created by FontForge 20161013 at Fri Jan  1 02:30:17 1904
 By ,,,
 !22! Soft 1992
</metadata>
<defs>
<font id="LiteraturnayaPlain" horiz-adv-x="709" >
  <font-face 
    font-family="Literaturnaya"
    font-weight="400"
    font-stretch="normal"
    units-per-em="1000"
    panose-1="2 11 6 4 2 2 2 2 2 4"
    ascent="800"
    descent="-200"
    x-height="467"
    cap-height="709"
    bbox="-3 -238 1367 905"
    underline-thickness="42"
    underline-position="-196"
    unicode-range="U+0020-2219"
  />
<missing-glyph horiz-adv-x="500" 
d="M40 667h420v-667h-420v667zM60 647v-627h380v627h-380z" />
    <glyph glyph-name=".notdef" horiz-adv-x="500" 
d="M40 667h420v-667h-420v667zM60 647v-627h380v627h-380z" />
    <glyph glyph-name="glyph1" horiz-adv-x="0" 
 />
    <glyph glyph-name="nonmarkingreturn" horiz-adv-x="333" 
 />
    <glyph glyph-name="space" unicode=" " horiz-adv-x="355" 
 />
    <glyph glyph-name="exclam" unicode="!" horiz-adv-x="266" 
d="M115 168q1 24 -0.5 87.5t-12.5 160.5q-4 36 -6.5 58t-5.5 49q-6 56 -6 83q0 45 9 74t37 29q47 -2 47 -103q-1 -40 -6 -83q-1 -27 -4.5 -49t-7.5 -58q-19 -161 -13 -248h-31zM82 35q0 22 15 36t35 14q21 0 35.5 -14.5t14.5 -35.5q0 -22 -14.5 -35.5t-35.5 -13.5
q-20 0 -35 15t-15 34z" />
    <glyph glyph-name="quotedbl" unicode="&#x22;" horiz-adv-x="416" 
d="M166 675l-28 -222h-39l-29 222h96zM346 675l-30 -222h-39l-28 222h97z" />
    <glyph glyph-name="numbersign" unicode="#" horiz-adv-x="690" 
d="M439 6h-65l29 168h-177l-30 -168h-66l30 168h-154l12 73h155l34 194h-154l12 71h156l29 170h66l-30 -170h178l31 170h66l-31 -170h155l-14 -71h-154l-34 -194h154l-12 -73h-156zM417 247l35 194h-180l-34 -194h179z" />
    <glyph glyph-name="dollar" unicode="$" 
d="M367 809h38v-86q74 -5 131.5 -41t60.5 -82q1 -21 -11 -35t-33 -14q-15 0 -25 6t-16.5 16t-10.5 19q-1 7 -3 15.5t-4 12.5q-26 60 -89 69v-262q14 -8 23 -13.5t19 -11.5q46 -25 76 -44q124 -77 114 -184q-4 -52 -36.5 -93.5t-84.5 -66.5t-111 -28v-115h-38v115
q-110 9 -187 67q-45 31 -54 73q-5 28 9.5 50t38.5 23q22 2 38.5 -10.5t22.5 -37.5q1 -6 2 -11t1 -13q9 -52 45 -78.5t84 -28.5v316q-65 34 -102.5 58t-67 60t-32.5 82q-3 63 51.5 121.5t150.5 65.5v86zM367 690q-52 1 -90.5 -31.5t-40.5 -77.5q-1 -82 131 -137v246zM405 20
q56 5 102.5 36.5t53.5 87.5q8 66 -44 110q-18 16 -65 40q-12 6 -24.5 13t-22.5 11v-298z" />
    <glyph glyph-name="percent" unicode="%" horiz-adv-x="1063" 
d="M134 564q0 49 22.5 91.5t62.5 68.5t86 27q49 0 89.5 -26.5t63 -68.5t22.5 -92q0 -49 -23 -91t-63 -68.5t-89 -26.5q-46 1 -86.5 27t-62.5 69t-22 90zM221 564v-25q1 -142 87 -142q83 4 84 142v25v25q-4 142 -84 142q-83 2 -87 -142v-25zM583 130q0 48 22 90.5t62.5 68
t86.5 25.5q74 1 124.5 -54.5t50.5 -130.5q0 -49 -23 -91t-63 -68t-89 -26q-47 1 -86 26.5t-62 67.5t-23 92zM665 129v-25q2 -143 89 -141q36 0 60 33t24 108v25v25q-4 138 -84 142q-35 0 -60 -30t-29 -112v-25zM294 -151l-23 13l499 984l25 -12z" />
    <glyph glyph-name="ampersand" unicode="&#x26;" 
d="M473 380v14h172v-14q-50 -6 -87 -76q-8 -13 -30 -64q-23 -49 -27 -57l49 -77q54 -97 114 -92v-14h-139l-69 107q-34 -50 -86.5 -85.5t-123.5 -35.5q-78 2 -128 48t-50 120q0 88 51.5 145t148.5 117q-52 82 -53 142q-1 75 42 121.5t104 44.5q54 0 88 -38t34 -89
q1 -55 -34.5 -95t-98.5 -74l133 -215q1 3 2.5 5t1.5 4q5 10 9.5 18.5t8.5 17.5q19 48 17 77q-7 40 -49 45zM335 455q42 24 70.5 64t28.5 85q0 44 -22.5 66.5t-51.5 22.5q-36 2 -63 -24.5t-26 -73.5q0 -38 37 -97zM286 394q-52 -35 -90.5 -88t-38.5 -119q-1 -60 40 -101
t105 -37q49 6 82.5 30.5t53.5 58.5z" />
    <glyph glyph-name="quotesingle" unicode="'" horiz-adv-x="265" 
d="M98 473l-11 11q51 47 54 92q7 37 -21 46q-7 0 -18 3q-28 8 -29 43q-1 24 12.5 39.5t38.5 15.5q32 0 49 -26t17 -61q-3 -93 -92 -163z" />
    <glyph glyph-name="parenleft" unicode="(" horiz-adv-x="353" 
d="M243 723l9 -9q-55 -53 -100.5 -162t-45.5 -305q0 -326 146 -463l-9 -10q-222 195 -222 473q0 129 52 251t170 225z" />
    <glyph glyph-name="parenright" unicode=")" horiz-adv-x="353" 
d="M112 723q121 -108 170.5 -230.5t49.5 -245.5q0 -119 -48 -240.5t-172 -232.5l-11 10q58 55 102 159t44 304q0 196 -43 302.5t-103 164.5z" />
    <glyph glyph-name="asterisk" unicode="*" horiz-adv-x="531" 
d="M227 539q-2 6 -22 16q-2 3 -5.5 4t-9.5 3q-21 8 -22 8q-8 2 -24 2q-42 0 -48 29q-3 14 4 26.5t21 17.5q29 8 50 -28q5 -11 12 -19q7 -9 29.5 -23t28.5 -14q18 1 14 32q0 13 -1 19q0 8 -4 24q-1 3 -3 6.5t-3.5 7t-3.5 6.5q-11 14 -11 31q2 15 11 25t25 11q17 0 27 -11
t12 -25q0 -6 -11 -31q-2 -3 -11 -20q-1 -6 -2 -11t-3 -13q0 -12 -2 -19q0 -32 16 -32q8 -1 28.5 13t27.5 23q6 6 14 18q21 36 49 28q14 -5 22 -17.5t4 -25.5q-9 -30 -48 -30q-17 0 -24 -1q-7 -2 -23 -8q-8 -4 -10 -4.5t-6 -3.5q-29 -13 -21 -30q2 -6 20 -15l7 -3t10 -5
q3 -1 7 -2.5l8 -3t7 -2.5q8 -1 23 -1q42 0 48 -30q8 -31 -24 -44q-32 -8 -50 28q-4 11 -13 19q-7 9 -19 16q-4 3 -14 11q-17 10 -25 10q-11 0 -12.5 -5.5t-1.5 -26.5q0 -13 2 -19q0 -2 3 -23q3 -5 7 -12t4 -9q11 -16 11 -31q-4 -33 -36 -36q-17 0 -27 12t-12 24q0 11 11 31
q5 7 11 21q0 -1 2.5 14.5t3.5 27.5q0 18 -2.5 25t-12.5 7t-24 -10l-15 -10q-10 -6 -18 -15q-5 -7 -8 -11.5t-6 -7.5q-18 -37 -48 -28q-13 4 -21 18t-5 26q7 29 48 29q16 0 23 2q8 1 24 7q1 1 7 4l8 4q30 14 22 30z" />
    <glyph glyph-name="plus" unicode="+" 
d="M51 344h279v279h48v-279h279v-48h-279v-279h-48v279h-279v48z" />
    <glyph glyph-name="comma" unicode="," horiz-adv-x="265" 
d="M98 -141l-11 12q52 46 54 92q8 36 -21 43q-15 2 -18 3q-28 8 -29 44q-1 24 13 39t38 15q32 0 49 -26t17 -61q-3 -89 -92 -161z" />
    <glyph glyph-name="hyphen" unicode="-" horiz-adv-x="353" 
d="M79 215v57h198v-57h-198z" />
    <glyph glyph-name="period" unicode="." horiz-adv-x="265" 
d="M84 35q0 21 14.5 35.5t35.5 14.5q20 0 34.5 -14.5t14.5 -35.5q0 -22 -14.5 -35.5t-34.5 -13.5t-35 15t-15 34z" />
    <glyph glyph-name="slash" unicode="/" horiz-adv-x="464" 
d="M37 -166l-40 17l428 1018l42 -17z" />
    <glyph glyph-name="zero" unicode="0" horiz-adv-x="531" 
d="M43 353q0 109 29.5 193.5t81 130.5t112.5 46q61 -2 111.5 -47.5t80 -128.5t29.5 -194q0 -85 -17 -152.5t-48 -115.5t-71.5 -73.5t-84.5 -25.5q-61 0 -112.5 45.5t-81 128.5t-29.5 193zM123 353q0 -344 143 -344q142 2 142 344q0 122 -18 199.5t-49.5 110.5t-74.5 33
q-63 2 -103 -76t-40 -267z" />
    <glyph glyph-name="one" unicode="1" horiz-adv-x="531" 
d="M263 709h41v-586q0 -48 12 -78t65 -30v-15h-229v15q53 0 65.5 30.5t12.5 77.5v438q0 30 -13 51t-58 20v13q52 8 76.5 28t27.5 36z" />
    <glyph glyph-name="two" unicode="2" horiz-adv-x="531" 
d="M461 149h17l-48 -149h-390v37q213 193 284 307t65 190q-4 71 -47.5 115t-105.5 43q-52 -1 -86.5 -34t-39.5 -71q-2 -31 11 -50q5 -4 9.5 -7.5t10.5 -9.5q14 -10 22 -25t8 -31q1 -18 -8.5 -28t-25.5 -12q-28 -4 -52.5 26t-24.5 83q0 40 22 83.5t66.5 73.5t103.5 33
q59 1 111 -26.5t83.5 -75t31.5 -104.5q1 -72 -42 -129.5t-129 -137.5q-49 -42 -80 -74q-24 -24 -42 -42.5t-31 -29.5q-15 -15 -17 -20q-3 -3 -7 -11h192q48 0 72.5 6.5t44.5 35.5q10 13 16 23q1 3 6 11z" />
    <glyph glyph-name="three" unicode="3" horiz-adv-x="531" 
d="M185 364v27q178 2 184 153q4 69 -35 111t-94 40q-43 -1 -73 -22.5t-33 -47.5q0 -9 6 -25q4 -15 4 -31q2 -43 -35 -43q-35 5 -36 44q-3 35 22.5 71t69.5 59t95 23q47 -2 88.5 -24t67 -61.5t25.5 -86.5t-32 -91.5t-98 -68.5q104 -20 139.5 -77t33.5 -118q-2 -53 -31.5 -102
t-82.5 -78.5t-123 -29.5q-83 1 -140.5 47.5t-60.5 110.5q0 35 16 53.5t36 18.5q35 -2 39 -39q0 -14 -5 -29q-8 -16 -12 -28q-8 -13 -8 -29q-1 -19 16 -38t50.5 -30.5t71.5 -7.5q67 4 107 52.5t40 128.5q0 111 -53 142t-159 26z" />
    <glyph glyph-name="four" unicode="4" horiz-adv-x="531" 
d="M478 247v-37h-109v-84q0 -48 12.5 -79t66.5 -32v-15h-233v15q54 1 66.5 32t12.5 79v84h-263v14l299 485h39v-462h109zM294 609l-215 -362h215v362z" />
    <glyph glyph-name="five" unicode="5" horiz-adv-x="531" 
d="M424 738h14l-44 -102h-262v-234q36 29 67.5 45t72.5 16q50 -2 99.5 -31.5t81.5 -82t33 -122.5q3 -94 -65 -166t-172 -75q-78 0 -134 40.5t-62 111.5q-3 42 17 67t43 22q13 0 21.5 -9.5t8.5 -27.5q1 -15 -6 -31q-4 -9 -16 -25q-11 -24 -9 -38q2 -33 42 -60t95 -24
q57 2 104 48.5t47 166.5q3 184 -126 201q-45 6 -89.5 -19.5t-52.5 -62.5h-31l8 363h232q59 0 83 29z" />
    <glyph glyph-name="six" unicode="6" horiz-adv-x="531" 
d="M137 378q47 54 117 67q41 9 83 -2t76 -38t56 -70t25 -99q3 -70 -24 -127.5t-77.5 -90t-113.5 -32.5q-79 0 -131.5 50t-77 128t-24.5 163q0 121 34 208.5t92.5 136.5t126.5 51q50 0 99.5 -32t53.5 -73q3 -23 -8 -33t-25 -10q-36 0 -52 54q-7 27 -9 30q-19 34 -64 36
q-49 0 -84 -29t-55.5 -100t-17.5 -188zM411 230q0 75 -22 117t-47 56t-40 14q-59 10 -110 -25t-57 -112q-5 -109 27.5 -188.5t114.5 -82.5q136 0 134 221z" />
    <glyph glyph-name="seven" unicode="7" horiz-adv-x="531" 
d="M62 562h-13l50 147h387v-48q-118 -135 -183.5 -315.5t-70.5 -345.5h-94q25 108 48.5 182t56 147.5t74.5 144.5t107 163h-237q-80 0 -125 -75z" />
    <glyph glyph-name="eight" unicode="8" horiz-adv-x="531" 
d="M201 377q-68 32 -94 73.5t-28 88.5q-1 82 54 133t135 51q55 -1 97.5 -25.5t66 -62.5t23.5 -80q0 -100 -117 -156q8 -5 16.5 -10.5t12.5 -8.5q42 -26 61 -44q29 -26 46 -63t17 -79q-2 -77 -58.5 -141t-163.5 -67q-94 0 -160 58t-66 143q-1 121 158 190zM310 413
q82 47 87 137q4 79 -38 111t-91 34q-57 3 -92.5 -28t-38.5 -74q-8 -60 50 -107q12 -11 59 -39q28 -16 42 -23q9 -6 22 -11zM229 357q-111 -54 -119 -170q-3 -69 44 -120.5t117 -52.5q48 -1 88 24.5t58.5 68t7.5 86.5q-16 64 -106 115q-40 22 -59 31q-4 2 -9.5 5.5t-11.5 7
t-10 5.5z" />
    <glyph glyph-name="nine" unicode="9" horiz-adv-x="531" 
d="M394 328q-43 -49 -117 -65q-86 -18 -159.5 39t-80.5 170q-4 70 24 128.5t79.5 90.5t111.5 32q61 0 105.5 -30.5t71.5 -79t41 -109t14 -124.5q1 -119 -34.5 -209.5t-93 -136.5t-124.5 -48q-60 0 -104 32.5t-49 71.5q-3 23 8 32.5t25 9.5q33 2 51 -55q4 -18 10 -29
q19 -34 63 -34q45 -2 81.5 25.5t58 99t18.5 189.5zM123 478q5 -174 106 -189q58 -7 109.5 26t55.5 113q6 74 -5 128t-32 85t-49 45.5t-54 12.5q-55 0 -95 -48t-36 -173z" />
    <glyph glyph-name="colon" unicode=":" horiz-adv-x="265" 
d="M84 35q0 21 14.5 35.5t35.5 14.5q20 0 34.5 -14.5t14.5 -35.5q0 -22 -14.5 -35.5t-34.5 -13.5t-35 15t-15 34zM84 427q0 20 15 34t35 14q22 0 35.5 -13.5t13.5 -34.5t-14.5 -35.5t-34.5 -14.5t-35 15t-15 35z" />
    <glyph glyph-name="semicolon" unicode=";" horiz-adv-x="265" 
d="M93 -141l-11 12q47 41 55 92q3 37 -24 43q-2 1 -6.5 1.5t-8.5 1.5q-30 8 -31 44q-1 24 13 39t38 15q33 0 49 -25t16 -62q-1 -90 -90 -161zM70 427q0 20 15 34t35 14t34 -14t14 -34q0 -21 -14.5 -35.5t-33.5 -14.5q-21 0 -35.5 14.5t-14.5 35.5z" />
    <glyph glyph-name="less" unicode="&#x3c;" 
d="M45 243l606 258l11 -32l-514 -226l514 -226l-11 -31z" />
    <glyph glyph-name="equal" unicode="=" 
d="M51 414h606v-48h-606v48zM51 272h606v-46h-606v46z" />
    <glyph glyph-name="greater" unicode="&#x3e;" 
d="M662 243l-605 -257l-12 31l516 226l-516 226l12 32z" />
    <glyph glyph-name="question" unicode="?" horiz-adv-x="531" 
d="M194 190h-28v207q7 -1 16.5 -2.5t22.5 -3.5q45 -4 63 0q65 19 67 100q1 45 -19 93t-50.5 79t-60.5 29q-17 0 -32 -13q-5 -4 -13.5 -15.5t-11.5 -15.5q-15 -17 -32 -17q-12 -1 -25 6.5t-13 21.5q0 10 4 19q10 21 38.5 33t56.5 12q51 0 103.5 -36.5t86.5 -97.5t33 -130
q-1 -88 -45 -122.5t-105 -34.5q-28 0 -56 6v-118zM132 35q0 22 15 36t35 14q21 0 35.5 -14.5t14.5 -35.5q0 -22 -14.5 -35.5t-35.5 -13.5q-20 0 -35 13.5t-15 35.5z" />
    <glyph glyph-name="at" unicode="@" horiz-adv-x="950" 
d="M745 575l-84 -279q-2 -5 -4 -13t-4 -12q-12 -51 -13 -59q-3 -56 50 -66q39 -3 86.5 30.5t79.5 97t31 145.5q-3 103 -54.5 187t-144 130.5t-205.5 42.5q-118 -4 -210 -63t-144 -155t-52 -204q0 -81 30 -158.5t86.5 -137.5t130.5 -94t163 -37q39 0 75 4t92 25t106 64
l22 -29q-131 -100 -293 -100q-135 0 -240 66.5t-162 174t-59 222.5q-2 116 54 219.5t161 169t238 69.5q121 4 221 -44.5t159 -140.5t60 -211q0 -80 -29 -151t-85 -115t-128 -41q-80 0 -118 62q-76 -57 -144 -53q-64 4 -113.5 49t-49.5 143q2 109 77.5 196t193.5 83
q76 0 120 -66l16 49h84zM620 463q-6 45 -33.5 71.5t-64.5 26.5q-38 0 -75.5 -33.5t-63 -91.5t-31.5 -131q-11 -142 86 -148q69 -4 115 64z" />
    <glyph glyph-name="A" unicode="A" horiz-adv-x="731" 
d="M244 632v18q30 6 52 17.5t36 29.5t21 46h44l198 -634q26 -91 101 -97v-12h-244v12q56 -1 65 26.5t0 51.5l-37 128h-279l-42 -120q-5 -10 -5 -28q0 -52 58 -58v-12h-186v12q76 16 100 84l168 474q5 13 6 22q3 13 -1 23l-5 8q-5 5 -8 6q-7 5 -23 5q-13 0 -19 -2zM346 629
l-134 -380h255z" />
    <glyph glyph-name="B" unicode="B" horiz-adv-x="752" 
d="M84 693v16h321q116 0 160 -53t44 -111q0 -52 -34.5 -101t-118.5 -64q203 -34 203 -193q0 -69 -51.5 -128t-177.5 -59h-346v14q53 1 65.5 31t12.5 76v466q0 45 -12.5 75.5t-65.5 30.5zM240 383h134q77 0 117 44.5t37 109.5q-1 61 -39.5 101.5t-96.5 40.5h-101
q-20 0 -35.5 -14t-15.5 -48v-234zM240 355v-260q0 -36 9.5 -51.5t54.5 -15.5h102q46 0 81.5 22t56.5 59t21 76q2 30 -11 69t-55.5 70t-126.5 31h-132z" />
    <glyph glyph-name="C" unicode="C" horiz-adv-x="752" 
d="M634 556h-11q-15 40 -47 71.5t-75 49t-91 15.5t-102.5 -27.5t-96.5 -100.5t-42 -212q0 -99 31 -173.5t87 -117t129 -47.5q87 -6 153 40t87 131h12v-142q-46 -28 -116.5 -44.5t-132.5 -12.5q-101 9 -179 62.5t-121 136t-43 168.5q-1 98 52 187t149.5 139.5t213.5 43.5
q78 -4 143 -36v-131z" />
    <glyph glyph-name="D" unicode="D" horiz-adv-x="820" 
d="M77 709h286q115 0 241.5 -63.5t130.5 -273.5q3 -137 -68 -245q-50 -60 -121 -93.5t-186 -33.5h-283v14q54 1 66 30.5t12 76.5v466q0 46 -12 76t-66 30v16zM232 110q0 -53 18 -66t71 -13q84 0 151 18t118.5 88t52.5 209q1 122 -36 193t-86.5 99.5t-100.5 36.5q-20 1 -59 1
q-29 3 -59 0q-47 -1 -58.5 -20.5t-11.5 -86.5v-459z" />
    <glyph glyph-name="E" unicode="E" 
d="M622 143h17l-25 -143h-540v14q53 1 65.5 31t12.5 76v466q0 46 -12.5 76t-65.5 30v16h518l22 -139h-22q-12 38 -47 69t-78 37q-8 2 -13.5 2.5t-11.5 0.5h-15h-134q-64 0 -64 -68v-209h196q83 0 78 73h16v-182h-16q3 31 -17.5 53.5t-60.5 22.5h-196v-276q0 -50 32 -61
q8 -3 27 -3q3 -1 12 -1h144q45 0 95 22.5t83 92.5z" />
    <glyph glyph-name="F" unicode="F" horiz-adv-x="685" 
d="M73 0v14q52 1 64 30.5t12 76.5v466q0 46 -12 76t-64 30v16h547l22 -139h-17q-36 89 -130 106q-1 0 -26 3h-16h-164q-41 0 -52 -19t-11 -49v-209h198q21 0 49 13.5t27 59.5h17v-182h-17q2 27 -14.5 51.5t-61.5 24.5h-198v-248q0 -47 13 -76.5t65 -30.5v-14h-231z" />
    <glyph glyph-name="G" unicode="G" horiz-adv-x="820" 
d="M632 556h-12q-23 62 -83 100.5t-131 35.5q-83 -3 -161.5 -74t-78.5 -266q0 -155 72 -243.5t176 -94.5q18 -3 34 0q107 5 132.5 38.5t25.5 87.5v140q0 47 -11 72q-19 34 -64 37v14h223v-14q-69 -4 -69 -87v-150q0 -85 69 -92q-91 -42 -151.5 -57t-135.5 -17
q-85 -2 -157.5 21.5t-126 70.5t-82 117t-28.5 158q1 109 49.5 193.5t131.5 130.5t187 46q106 0 191 -39v-128z" />
    <glyph glyph-name="H" unicode="H" horiz-adv-x="841" 
d="M229 367v-246q0 -46 12.5 -76t65.5 -31v-14h-233v14q53 1 65.5 31t12.5 76v466q0 46 -12.5 76t-65.5 30v16h233v-16q-53 0 -65.5 -30t-12.5 -76v-190h382v190q0 46 -12 76t-65 30v16h233v-16q-52 0 -65 -30t-13 -76v-466q0 -47 13 -76.5t65 -30.5v-14h-233v14
q53 1 65 30.5t12 76.5v246h-382z" />
    <glyph glyph-name="I" unicode="I" horiz-adv-x="442" 
d="M104 709h234v-16q-53 0 -65.5 -30t-12.5 -76v-466q0 -46 12.5 -76t65.5 -31v-14h-234v14q54 1 66 30.5t12 76.5v466q0 46 -12 76t-66 30v16z" />
    <glyph glyph-name="J" unicode="J" horiz-adv-x="509" 
d="M205 709h234v-16q-52 0 -65 -30t-13 -76v-390q0 -209 -173 -211q-64 0 -113.5 38t-49.5 88q0 14 4 26q11 29 44 25q51 -2 51 -87q0 -11 2 -17q8 -45 64 -45q84 0 92 101q1 9 1 29v25v418q0 46 -12.5 76t-65.5 30v16z" />
    <glyph glyph-name="K" unicode="K" horiz-adv-x="796" 
d="M339 709v-16q-53 0 -65.5 -30t-12.5 -76v-279l250 270q14 15 25.5 39t5.5 42q-5 25 -37 33q-7 1 -18 1q-3 2 -7 2v14h227v-14q-59 -13 -109 -67l-171 -184q34 -87 91 -194.5t122.5 -200t124.5 -133.5l-13 -17q-44 25 -87.5 61t-92.5 94t-99 130t-118 183l-94 -101v-145
q0 -46 12.5 -76t65.5 -31v-14h-240v14q53 1 65 30.5t12 76.5v466q0 46 -12 76t-65 30v16h240z" />
    <glyph glyph-name="L" unicode="L" horiz-adv-x="685" 
d="M93 709h212v-16q-40 -3 -54.5 -24t-14.5 -61l2 -498q0 -33 4.5 -50t18.5 -24.5t47 -7.5h128q39 0 91 21t87 94h17l-25 -143h-522v14q43 1 59.5 24t16.5 72v491q0 44 -14.5 67.5t-52.5 24.5v16z" />
    <glyph glyph-name="M" unicode="M" horiz-adv-x="974" 
d="M470 199l194 510h154v-16q-28 3 -52 -14t-15 -70l97 -507q9 -42 33.5 -64.5t58.5 -22.5v-15h-251v15q73 -1 78 53q1 11 -1 21.5t-4 17.5l-98 519l-206 -549h-31l-180 532l-101 -503q-7 -43 17 -66t58 -25v-15h-189v15q58 3 78 59q2 4 4 11.5t4 13.5q1 1 3 13l94 475
q6 29 4 47q-3 59 -73 59v16h158z" />
    <glyph glyph-name="N" unicode="N" horiz-adv-x="820" 
d="M634 120v464q0 94 -56 106q-6 2 -10 2.5t-7 0.5h-8v16h189v-16q-51 -5 -64 -34.5t-13 -69.5v-603h-28l-449 631v-502q0 -28 16 -65t67 -36v-14h-192v14q83 4 83 95v464q0 120 -83 120v16h148z" />
    <glyph glyph-name="O" unicode="O" horiz-adv-x="820" 
d="M70 366q3 94 36 163.5t84 111.5t108.5 62t109.5 20t110 -19t110.5 -62t86 -112.5t34.5 -163.5q4 -127 -49.5 -214t-133 -126.5t-158.5 -39.5q-77 0 -156 39.5t-132.5 126.5t-49.5 214zM163 363q-2 -133 55.5 -240.5t191.5 -107.5t192 109.5t54 238.5q-3 172 -78 252
t-168 80q-60 -2 -114.5 -33.5t-92 -105.5t-40.5 -193z" />
    <glyph glyph-name="P" unicode="P" 
d="M229 266v-146q0 -53 15 -78t61 -28v-14h-229v14q54 1 65 30.5t11 75.5v469q0 45 -11 74.5t-65 29.5v16h330q74 0 125.5 -30t78 -80.5t24.5 -109.5q-1 -77 -37.5 -126t-92.5 -71.5t-119 -22.5q-11 0 -29 -1t-32 -2h-95zM229 294h84q132 0 182.5 50.5t48.5 142.5
q-1 101 -48.5 141.5t-90.5 46.5q-22 3 -64 3q-36 0 -55 -2q-16 0 -33.5 -9t-22.5 -33v-12.5t-1 -10.5v-13v-304z" />
    <glyph glyph-name="Q" unicode="Q" horiz-adv-x="820" 
d="M70 366q3 94 36 163.5t84 111.5t108.5 62t109.5 20t110 -19t110.5 -62t86 -112.5t34.5 -163.5q3 -84 -26 -159.5t-83 -129t-128 -74.5q38 -119 114 -119q21 -1 41 11.5t32 31.5h16q-10 -41 -40 -72t-80 -31q-51 2 -95 40.5t-69 121.5q-77 -5 -143.5 22t-116.5 79
t-76.5 123t-24.5 156zM310 163v16q16 4 39 4q61 -1 92.5 -37t58.5 -112q61 26 96 83t47.5 119.5t12.5 126.5q-3 172 -78 252t-168 80q-60 -2 -114.5 -33.5t-92 -105.5t-40.5 -193q-4 -183 73.5 -268t185.5 -80q-15 62 -26 91.5t-32 45t-54 11.5z" />
    <glyph glyph-name="Q" horiz-adv-x="820" 
d="M70 366q3 94 36 163.5t84 111.5t108.5 62t109.5 20t110 -19t110.5 -62t86 -112.5t34.5 -163.5q3 -84 -26 -159.5t-83 -129t-128 -74.5q38 -119 114 -119q21 -1 41 11.5t32 31.5h16q-10 -41 -40 -72t-80 -31q-51 2 -95 40.5t-69 121.5q-77 -5 -143.5 22t-116.5 79
t-76.5 123t-24.5 156zM310 163v16q16 4 39 4q61 -1 92.5 -37t58.5 -112q61 26 96 83t47.5 119.5t12.5 126.5q-3 172 -78 252t-168 80q-60 -2 -114.5 -33.5t-92 -105.5t-40.5 -193q-4 -183 73.5 -268t185.5 -80q-15 62 -26 91.5t-32 45t-54 11.5z" />
    <glyph glyph-name="R" unicode="R" horiz-adv-x="752" 
d="M84 709l305 -2q89 0 171 -33t85 -155q4 -83 -43 -134.5t-132 -79.5q10 -49 28.5 -97t52.5 -110.5t68 -106.5t68 -75l-11 -15q-67 44 -131 107t-108.5 135t-59.5 148q-42 -3 -83 2q-23 0 -47 3h-7v-175q0 -47 12 -76.5t64 -30.5v-14h-232v14q53 1 65.5 31t12.5 76v466
q0 46 -12.5 76t-65.5 30v16zM240 325q56 -6 90 -4q113 1 175 56t59 131q-3 109 -71 140t-141 31q-56 0 -79 -3.5t-32 -30.5q-1 -9 -1 -30v-15v-275z" />
    <glyph glyph-name="S" unicode="S" horiz-adv-x="685" 
d="M530 553h-19q-11 38 -41 70.5t-70 51t-81 18.5q-65 3 -98 -33.5t-33 -83.5q-1 -57 41.5 -89t137.5 -74q32 -13 94 -41q131 -71 129 -182q0 -78 -61 -139t-168 -65q-74 -1 -128.5 15.5t-130.5 52.5l-7 136h18q22 -79 90 -126t143 -50q68 -3 115.5 38.5t49.5 104.5
q1 51 -24 80.5t-67 50.5q-15 7 -79 34q-75 32 -126 63.5t-74.5 68.5t-20.5 91q3 81 62 131.5t154 46.5q98 -5 183 -55z" />
    <glyph glyph-name="T" unicode="T" horiz-adv-x="642" 
d="M207 0v14q35 0 52.5 17.5t20.5 39t3 49.5v477q0 6 -0.5 9.5t-0.5 7.5q-1 6 -1 16.5t-2 14.5q-11 36 -60 33q-34 -2 -65 -17t-57 -40t-37 -48h-14l31 136h487l31 -136h-14q-29 56 -77.5 79t-81.5 26q-21 4 -40 -1.5t-24 -31.5v-15.5v-15.5v-17v-477q0 -28 3 -49.5
t20.5 -39t52.5 -17.5v-14h-227z" />
    <glyph glyph-name="U" unicode="U" horiz-adv-x="841" 
d="M587 693v16h187v-16q-27 2 -49.5 -15t-26.5 -44q-1 -3 -1 -10.5t-1 -11.5v-22v-336q0 -99 -45.5 -181.5t-212.5 -86.5q-132 -1 -194.5 41.5t-77 96t-14.5 117.5v346q0 46 -12.5 76t-65.5 30v16h233v-16q-53 0 -65.5 -30t-12.5 -76v-397q0 -181 218 -176q136 4 177 70.5
t41 156.5v351q0 51 -14 74.5t-64 26.5z" />
    <glyph glyph-name="V" unicode="V" horiz-adv-x="752" 
d="M397 96l182 480q12 32 13 46q5 40 -18 57t-52 17v13h196v-13q-38 -5 -59 -23.5t-34 -55.5l-236 -631h-37l-215 612q-16 45 -35 69.5t-68 24.5v17h221v-13q-8 0 -11 -1q-8 0 -12 -2q-9 0 -19.5 -8t-11.5 -24q0 -13 6 -35z" />
    <glyph glyph-name="W" unicode="W" horiz-adv-x="1018" 
d="M520 424l-140 -438h-45l-186 592q-19 60 -41.5 87t-67.5 28v16h220v-16q-17 0 -30.5 -11t-16.5 -31q-2 -19 13 -70l157 -483l123 377l-36 120q-13 43 -31.5 71t-63.5 27v16h223v-16q-39 -5 -50 -20t-8 -44q4 -23 10 -39l148 -492l148 442q2 6 3.5 11t3 10.5t2.5 10.5
q8 28 11 42q2 9 2 26q-6 55 -56 53v16h171v-16q-44 0 -70 -64q-3 -7 -16 -37q-3 -6 -10 -28l-192 -578h-45z" />
    <glyph glyph-name="X" unicode="X" horiz-adv-x="731" 
d="M377 428l110 167q27 39 27 58q-3 29 -31 37q-6 2 -10.5 2.5t-9.5 0.5h-10v16h203v-16q-51 -8 -75 -29.5t-53 -62.5l-134 -199l196 -325q17 -26 37.5 -41.5t56.5 -21.5v-14h-240v14q9 0 19 3q16 2 24 9q13 9 14 19q3 9 -1.5 21.5t-10.5 24t-9 16.5l-134 225l-144 -219
q-15 -17 -19 -42q-3 -54 60 -57v-14h-201v14q32 4 57 22t41.5 41t28.5 41l161 239l-153 257q-45 78 -104 79v16h226v-16q-46 -1 -52 -22q-2 -5 0 -20q2 -4 5.5 -10.5t4.5 -8.5q2 -4 3 -5.5t3 -4t3 -5.5z" />
    <glyph glyph-name="Y" unicode="Y" horiz-adv-x="685" 
d="M321 299l-175 316q-18 36 -39.5 57.5t-64.5 20.5v16h237v-16h-11q-19 -2 -22 -4q-21 -8 -24 -32q0 -6 4 -12q1 -8 7 -20q3 -4 6.5 -11l6.5 -13l143 -260l117 252q26 55 20 74q-2 10 -13 18t-32 8v16h173v-16q-46 -6 -68 -26t-49 -75l-138 -296v-175q0 -47 12 -76.5
t64 -30.5v-14h-232v14q51 1 64.5 31t13.5 76v178z" />
    <glyph glyph-name="Z" unicode="Z" horiz-adv-x="664" 
d="M95 567h-18l50 142h476l-443 -681h120q236 0 303 123h20l-48 -151h-512l446 681h-125q-197 0 -269 -114z" />
    <glyph glyph-name="bracketleft" unicode="[" horiz-adv-x="265" 
d="M26 -226v949h170v-25h-20h-22q-39 0 -47 -13t-8 -42v-789q0 -31 8 -43t47 -13h22h20v-24h-170z" />
    <glyph glyph-name="backslash" unicode="\" horiz-adv-x="470" 
d="M430 -168l-430 1017l42 17l428 -1017z" />
    <glyph glyph-name="bracketright" unicode="]" horiz-adv-x="265" 
d="M238 -226h-170v24h20h24q39 1 46.5 13.5t7.5 42.5v789q0 29 -8 42t-46 13h-24h-20v25h170v-949z" />
    <glyph glyph-name="asciicircum" unicode="^" horiz-adv-x="367" 
d="M183 617l-82 -81h-84l166 167l167 -167h-84z" />
    <glyph glyph-name="underscore" unicode="_" horiz-adv-x="586" 
d="M0 -197v48h586v-48h-586z" />
    <glyph glyph-name="underscore" unicode="&#xad;" horiz-adv-x="586" 
d="M0 -197v48h586v-48h-586z" />
    <glyph glyph-name="grave" unicode="`" horiz-adv-x="332" 
d="M193 723l9 -13q-47 -40 -54 -92q-6 -36 23 -43q-1 0 16 -3q28 -7 31 -44q2 -24 -12 -39.5t-40 -15.5q-32 0 -48.5 26t-16.5 62q2 91 92 162z" />
    <glyph glyph-name="a" unicode="a" horiz-adv-x="575" 
d="M438 361l1 -288v-14q2 -8 3 -14.5t3 -10.5q7 -24 52 -24v-10h-120v46q-114 -56 -172 -56q-61 -1 -87.5 33.5t-26.5 75.5q2 70 89 119q25 14 75 35t75 32q8 3 16 6.5t15.5 7t15.5 6.5v25v42q-8 87 -86 84q-51 -3 -69 -28t-18 -43q-1 -7 -1.5 -15t-1.5 -12q-10 -35 -42 -33
q-13 0 -24.5 9.5t-11.5 29.5q-2 27 22 54.5t66.5 44t96.5 15.5q79 -1 104.5 -38.5t25.5 -78.5zM377 274q-98 -37 -155 -76.5t-57 -99.5q3 -74 73 -74q50 -1 139 55v195z" />
    <glyph glyph-name="b" unicode="b" horiz-adv-x="575" 
d="M188 413q66 68 144 65q80 0 135 -65.5t55 -165.5q-2 -102 -59 -181t-152 -76q-73 0 -131 52l-34 -52h-19l-3 627q0 50 -51 45v13q63 14 90 56h25v-318zM190 110q0 -28 22.5 -62.5t95.5 -33.5q50 3 93.5 46t39.5 181q-3 107 -40 156.5t-91 49.5q-77 0 -98.5 -37t-21.5 -71
v-229z" />
    <glyph glyph-name="c" unicode="c" horiz-adv-x="487" 
d="M445 74q-89 -84 -173 -84q-82 0 -146.5 67t-68.5 172q-2 63 25.5 120.5t76.5 93t107 35.5q68 1 114 -39t40 -82q-1 -18 -13 -28.5t-27 -10.5q-39 1 -47 62q0 17 -3 26q-15 33 -64 35q-75 3 -108 -59.5t-28 -135.5q7 -65 40 -126.5t102 -79.5q83 -19 152 53z" />
    <glyph glyph-name="d" unicode="d" horiz-adv-x="575" 
d="M344 662v13q62 15 84 56h31v-660q0 -34 14 -47.5t44 -13.5v-10h-125v57q-57 -66 -126 -67q-71 -3 -126.5 55.5t-55.5 166.5q0 72 21.5 132t65.5 97t104 37q50 0 83 -20q8 -3 11 -6q2 -1 14 -8l9 -6v179q0 35 -25 44q-6 1 -17 1h-6zM392 349q0 52 -32 79.5t-80 24.5
q-44 0 -83.5 -42.5t-39.5 -170.5q-1 -97 33.5 -156.5t89.5 -62.5q45 -2 78.5 31.5t33.5 77.5v219z" />
    <glyph glyph-name="e" unicode="e" horiz-adv-x="486" 
d="M438 85l9 -8q-90 -91 -184 -87q-59 1 -106 36.5t-72.5 90.5t-27.5 118q0 73 28 130t73.5 86t96.5 29q70 -2 123 -63.5t60 -158.5h-308q3 -119 54 -178t118 -59q62 2 136 64zM367 282q-2 62 -31.5 116.5t-85.5 57.5q-115 6 -121 -174h238z" />
    <glyph glyph-name="f" unicode="f" horiz-adv-x="353" 
d="M130 453h-70v24h70q3 30 -1 70q-2 20 -8 50q-1 14 -1 40q4 39 35 65.5t71 28.5q34 1 58 -14.5t26 -37.5q2 -14 -9 -25t-29 -9q-18 0 -32 8q-5 3 -10.5 7t-11.5 7q-2 2 -14.5 7.5t-20.5 6.5q-31 0 -35 -41q-3 -28 14.5 -79t34.5 -84h75v-24h-75v-382q0 -27 11 -44t47 -17
v-10h-182v10q42 0 53 24q2 4 4 25v12v382z" />
    <glyph glyph-name="g" unicode="g" horiz-adv-x="642" 
d="M171 163q-67 56 -67 136q-2 68 49 123.5t147 55.5q98 0 159 -58q48 65 99 67q47 0 50 -39q2 -43 -39 -43q-17 0 -36 14q-10 6 -16 8q-3 1 -11 1q-18 -2 -33 -22q36 -47 36 -102q0 -43 -20.5 -82.5t-63.5 -67t-106 -30.5q-65 -5 -123 25q-19 -7 -37 -24t-18 -34
q2 -15 12.5 -24.5t32.5 -17.5t42.5 -11.5t45.5 -8.5l89 -15q82 -13 131.5 -36t52.5 -74q4 -65 -72 -103t-173 -36q-120 4 -168.5 39t-46.5 78q3 56 84 94q-76 38 -75 95q1 25 17 43t58 49zM180 297q1 -68 36.5 -108t91.5 -40q52 0 88 39t37 106q1 73 -34 117.5t-88 46.5
q-55 3 -93.5 -39t-37.5 -122zM229 -38q-10 2 -16 3t-11 0q-18 -3 -39 -25.5t-25 -48.5q-5 -48 48 -74.5t124 -28.5q68 0 120.5 22.5t58.5 55.5q7 24 -17 43q-15 9 -41 15q-15 5 -21 5z" />
    <glyph glyph-name="h" unicode="h" horiz-adv-x="575" 
d="M177 411q100 66 187 67q47 2 73 -11.5t26 -55.5v-340q0 -34 13.5 -47.5t43.5 -13.5v-10h-182v10q30 0 43.5 13t13.5 48v314q0 28 -11.5 42.5t-47.5 14.5q-38 0 -83.5 -17.5t-75.5 -43.5v-310q0 -34 14 -47.5t44 -13.5v-10h-182v10q40 0 51 24q5 6 5 25q1 3 1 12v546
q0 50 -48 45v13q59 15 84 56h31v-320z" />
    <glyph glyph-name="i" unicode="i" horiz-adv-x="332" 
d="M84 416v11q37 11 57 27.5t27 29.5h31v-413q0 -34 14 -47.5t44 -13.5v-10h-183v10q41 0 52 24q1 2 6 25v12v300q0 47 -48 45zM116 628q0 20 14.5 34.5t34.5 15.5q21 0 35.5 -14.5t14.5 -35.5t-14.5 -35.5t-35.5 -14.5q-20 0 -34.5 14.5t-14.5 35.5z" />
    <glyph glyph-name="i" unicode="&#xb3;" horiz-adv-x="332" 
d="M84 416v11q37 11 57 27.5t27 29.5h31v-413q0 -34 14 -47.5t44 -13.5v-10h-183v10q41 0 52 24q1 2 6 25v12v300q0 47 -48 45zM116 628q0 20 14.5 34.5t34.5 15.5q21 0 35.5 -14.5t14.5 -35.5t-14.5 -35.5t-35.5 -14.5q-20 0 -34.5 14.5t-14.5 35.5z" />
    <glyph glyph-name="j" unicode="j" horiz-adv-x="353" 
d="M102 419v11q58 15 86 57h30v-525q0 -82 -20.5 -139.5t-101.5 -60.5q-30 0 -50 16t-20 37q0 18 12 29.5t29 9.5q28 0 46 -28q2 -1 4 -4.5t4 -6.5q5 -8 13 -9q10 -3 20.5 5t7.5 38q0 13 -0.5 20t-1.5 15q-1 17 -5 40q-3 23 -3 25q0 8 -0.5 12.5t-0.5 9.5v403q0 47 -49 45z
M135 628q0 20 14 35t36 15t36 -15t14 -35q0 -21 -14.5 -35.5t-35.5 -14.5t-35.5 14.5t-14.5 35.5z" />
    <glyph glyph-name="k" unicode="k" horiz-adv-x="553" 
d="M63 662v13q65 16 85 56h31v-527l168 165q38 38 39 58q1 15 -11 23t-28 6v11h159v-11q-34 -3 -87 -50q-8 -6 -13 -10.5t-11 -10.5q-4 -4 -7 -6.5t-7 -6.5l-73 -75l137 -220q10 -14 14 -21q4 -4 10 -11t11 -13q20 -22 43 -22v-10h-176v10q20 -2 33.5 8t7.5 28q-1 5 -5 12
t-8 13l-114 181l-82 -83v-98q0 -34 13.5 -47.5t43.5 -13.5v-10h-182v10q40 0 53 24q2 4 2.5 8l1 8t1.5 9v12v546q0 50 -49 45z" />
    <glyph glyph-name="l" unicode="l" horiz-adv-x="332" 
d="M82 662v13q68 17 84 56h31v-660q0 -34 14 -47.5t44 -13.5v-10h-182v10q40 0 53 24q2 4 4 25v12v546q0 50 -48 45z" />
    <glyph glyph-name="m" unicode="m" horiz-adv-x="885" 
d="M183 417q110 57 195 61q44 3 70 -10.5t29 -50.5q108 57 194 61q99 5 99 -67v-340q0 -61 57 -61v-10h-182v10q42 0 51 24q5 10 5 25v12v314q0 27 -10 42t-48 15q-71 0 -166 -54v-317q0 -33 13.5 -47t43.5 -14v-10h-182v10q35 0 45.5 15.5t10.5 45.5v314q0 27 -10 42
t-48 15q-71 0 -167 -54v-317v-12l5 -25q12 -24 53 -24v-10h-182v10q42 0 51 24q5 6 5 25q0 3 0.5 5.5t0.5 6.5v303q0 47 -49 45v11q61 16 85 57h31v-70z" />
    <glyph glyph-name="n" unicode="n" horiz-adv-x="598" 
d="M177 411q122 64 211 67q96 6 96 -67v-340q0 -33 14 -47t44 -14v-10h-182v10q38 0 53 24q2 4 4 25v12v314q0 31 -13.5 44t-45.5 13q-70 0 -181 -61v-310q0 -34 13.5 -47.5t44.5 -13.5v-10h-182v10q40 0 51 24q5 6 5 25v12v303q0 47 -49 45v11q56 14 86 57h31v-76z" />
    <glyph glyph-name="o" unicode="o" horiz-adv-x="509" 
d="M48 233q0 50 21 108t68 98t120 39q104 0 155 -79t51 -166q0 -88 -52.5 -166t-153.5 -77q-106 0 -157.5 78.5t-51.5 164.5zM121 233q0 -76 26.5 -151t107.5 -75q84 0 109 73.5t25 152.5q0 47 -8 95t-38 89t-88 41q-82 0 -108 -74.5t-26 -150.5z" />
    <glyph glyph-name="p" unicode="p" horiz-adv-x="598" 
d="M165 489h29v-70h7q50 62 126 59q81 -2 136 -70t45 -184q-9 -108 -67 -172t-133 -62q-69 0 -109 48h-5v-195q0 -35 16.5 -49.5t49.5 -12.5v-10h-187v10q57 0 57 62v512q0 35 -7.5 50t-45.5 15v11q61 15 88 58zM196 118q0 -30 31 -61t78 -31q50 -2 88.5 48.5t39.5 146.5
q0 55 -14 102.5t-45 78t-72 29.5q-41 0 -74.5 -24.5t-33.5 -59.5z" />
    <glyph glyph-name="q" unicode="q" horiz-adv-x="553" 
d="M383 57q-61 -66 -128 -67q-83 -3 -132 61t-49 161q0 84 27.5 144.5t72 91t91.5 30.5q50 0 95 -26q6 -4 7 -5q7 -5 13 -5q4 0 9.5 4.5t9.5 9.5l31 38h20v-657q0 -33 14 -47t44 -14v-11h-183v11q42 0 52 23q4 8 4 25q1 3 1.5 5.5t0.5 7.5v220zM383 349q0 51 -31 77.5
t-81 26.5q-77 0 -101 -73t-24 -140q0 -92 34 -154t91 -65q42 -1 77 33t35 76v219z" />
    <glyph glyph-name="r" unicode="r" horiz-adv-x="442" 
d="M70 419v11q65 17 85 57h32v-68q82 62 135 59q30 0 46.5 -14.5t14.5 -33.5q-1 -18 -13.5 -28t-25.5 -10q-19 -1 -44 14q-12 10 -18 13q-12 5 -24 5q-27 2 -49 -15t-22 -42v-296q0 -34 13.5 -47.5t42.5 -13.5v-10h-181v10q42 0 51 24q5 10 5 25v12v303q0 47 -48 45z" />
    <glyph glyph-name="s" unicode="s" horiz-adv-x="486" 
d="M372 358h-11q-32 94 -135 94q-44 0 -72 -21.5t-28 -52.5q-1 -26 14 -40t47 -28l146 -60q100 -40 89 -135q-4 -57 -51.5 -91t-116.5 -34q-58 0 -110 11q-7 3 -20.5 7t-25.5 7q1 0 -13 5l-11 112h11q26 -63 72 -90.5t97 -27.5q47 -2 83 21.5t37 66.5q0 56 -75 85l-125 48
q-98 37 -92 123q4 57 46.5 88.5t103.5 31.5q48 0 93 -12q7 -1 18 -4.5t20 -6.5q3 0 5 -0.5t4 -1.5v-95z" />
    <glyph glyph-name="s" horiz-adv-x="486" 
d="M372 358h-11q-32 94 -135 94q-44 0 -72 -21.5t-28 -52.5q-1 -26 14 -40t47 -28l146 -60q100 -40 89 -135q-4 -57 -51.5 -91t-116.5 -34q-58 0 -110 11q-7 3 -20.5 7t-25.5 7q1 0 -13 5l-11 112h11q26 -63 72 -90.5t97 -27.5q47 -2 83 21.5t37 66.5q0 56 -75 85l-125 48
q-98 37 -92 123q4 57 46.5 88.5t103.5 31.5q48 0 93 -12q7 -1 18 -4.5t20 -6.5q3 0 5 -0.5t4 -1.5v-95z" />
    <glyph glyph-name="t" unicode="t" horiz-adv-x="375" 
d="M307 473v-23h-103v-327q0 -6 0.5 -10.5t0.5 -11.5q0 -28 5 -41q7 -16 23.5 -23.5t34.5 -5.5q27 4 46 34h11q-24 -75 -96 -75q-55 -1 -73.5 30.5t-18.5 75.5v354h-83v23q123 7 123 236h27v-236h103z" />
    <glyph glyph-name="u" unicode="u" horiz-adv-x="597" 
d="M57 419v11q35 10 56.5 27t27.5 30h32v-371q0 -44 10.5 -67t51.5 -26q33 -1 85.5 20t89.5 47v284q0 47 -49 45v11q35 10 56.5 27t27.5 30h32v-416q0 -34 13.5 -47.5t43.5 -13.5v-10h-124v56q-7 -3 -21 -10q-18 -7 -37 -16l-38 -18q-70 -27 -123 -22q-58 3 -71.5 30
t-13.5 68v286q0 47 -49 45z" />
    <glyph glyph-name="v" unicode="v" horiz-adv-x="531" 
d="M289 73l94 296q17 50 1 68.5t-40 18.5v11h151v-11q-63 -10 -92 -101l-117 -365h-25l-152 381q-16 40 -34.5 63t-48.5 22v11h187v-11q-20 3 -36.5 -7.5t-16.5 -28.5q0 -8 6 -26z" />
    <glyph glyph-name="w" unicode="w" horiz-adv-x="796" 
d="M402 282l-103 -292h-28l-155 381q-17 41 -30.5 59.5t-51.5 25.5v11h187v-11q-38 -6 -45 -34q-4 -16 12 -56l114 -292l86 245l-25 67q-31 67 -72 70v11h179v-11q-21 0 -33.5 -15t-9.5 -39q1 -8 12 -38l106 -290l98 281q1 1 5 16q5 11 6 24q5 35 -13 48t-37 13v11h158v-11
q-59 -8 -86 -87l-134 -379h-33z" />
    <glyph glyph-name="x" unicode="x" horiz-adv-x="486" 
d="M257 288l75 109q10 15 10 23q0 20 -15 30q-8 5 -17 5q-15 3 -14 3v9h149v-9q-37 -4 -65 -42l-109 -150l129 -207q32 -49 70 -49v-10h-174v10q17 0 29 9.5t11 22.5q0 8 -11 21l-92 149l-104 -153q-6 -9 -6 -17q0 -28 48 -32v-10h-154v10q33 8 52.5 25t29.5 32l117 168
l-96 160q-7 12 -13 18q-10 15 -20 25q-25 20 -49 20v9h178v-9q-33 0 -39 -20q-5 -13 6 -30z" />
    <glyph glyph-name="y" unicode="y" horiz-adv-x="553" 
d="M363 467h151v-19q-29 -10 -43 -30t-27 -58l-181 -481q-38 -108 -122 -103q-41 3 -59.5 23.5t-16.5 40.5q5 31 36 31q25 -1 50 -28q12 -12 20 -16q30 -6 58 61l42 116l-158 374q-6 22 -24.5 45.5t-50.5 24.5v19h175v-19q-39 -4 -42 -31q0 -13 8 -34l125 -284h4l91 245
q11 29 12 44q4 32 -11.5 46t-36.5 14v19z" />
    <glyph glyph-name="z" unicode="z" horiz-adv-x="509" 
d="M438 137h14l-50 -137h-345l271 441q-94 3 -155 -17.5t-94 -81.5h-14l41 125h316l-270 -441q203 -8 286 111z" />
    <glyph glyph-name="braceleft" unicode="{" horiz-adv-x="357" 
d="M107 274q62 -30 91 -75t32 -112q1 -9 1 -25t-1 -30q0 -8 -1 -16.5t-1.5 -17t-1.5 -16.5q-3 -25 0 -49q3 -47 26 -69.5t52 -26.5l-7 -34q-157 21 -149 200q0 19 0.5 34.5t0.5 39.5q7 166 -93 177v42q100 9 93 176q0 25 -0.5 40t-0.5 33q-8 181 149 203l7 -34
q-73 -13 -78 -97q-3 -24 0 -50q1 -12 2.5 -26.5t1.5 -23.5q1 -14 1 -29.5t-1 -24.5q-3 -68 -31.5 -113t-91.5 -76z" />
    <glyph glyph-name="bar" unicode="|" horiz-adv-x="162" 
d="M56 -197v1063h48v-1063h-48z" />
    <glyph glyph-name="bar" unicode="&#xa6;" horiz-adv-x="162" 
d="M56 -197v1063h48v-1063h-48z" />
    <glyph glyph-name="braceright" unicode="}" horiz-adv-x="357" 
d="M249 274q-62 31 -91 76.5t-32 112.5q-1 9 -0.5 22t0.5 32q1 9 1.5 17t1.5 16.5t1 16.5q2 17 2 50q-7 84 -78 97l5 34q157 -22 149 -203q0 -24 -0.5 -39t-0.5 -34q-7 -167 93 -176v-42q-100 -11 -93 -177q0 -18 0.5 -33.5t0.5 -40.5q8 -179 -149 -200l-5 34q28 4 51 27
t27 69q0 33 -2 49q0 9 -1.5 23.5t-2.5 26.5q0 19 -0.5 32.5t0.5 22.5q3 66 32 112t91 75z" />
    <glyph glyph-name="asciitilde" unicode="~" horiz-adv-x="537" 
d="M54 590q16 46 54 79t86 34q19 0 42 -5q3 0 22.5 -7t32.5 -12q76 -26 97 -23q30 3 53 47h42q-49 -112 -126 -114q-27 0 -46 4q-14 3 -48 16q-84 31 -109 28q-37 -7 -56 -47h-44z" />
    <glyph glyph-name="Agrave" horiz-adv-x="360" 
d="M261 477l22 -22l-182 -181l182 -183l-22 -20l-202 203z" />
    <glyph glyph-name="quoteleft" horiz-adv-x="332" 
d="M193 723l9 -13q-47 -40 -54 -92q-6 -36 23 -43q-1 0 16 -3q28 -7 31 -44q2 -24 -12 -39.5t-40 -15.5q-32 0 -48.5 26t-16.5 62q2 91 92 162z" />
    <glyph glyph-name="quoteleft" unicode="&#x2018;" horiz-adv-x="332" 
d="M193 723l9 -13q-47 -40 -54 -92q-6 -36 23 -43q-1 0 16 -3q28 -7 31 -44q2 -24 -12 -39.5t-40 -15.5q-32 0 -48.5 26t-16.5 62q2 91 92 162z" />
    <glyph glyph-name="quoteright" horiz-adv-x="265" 
d="M98 473l-11 11q51 47 54 92q7 37 -21 46q-7 0 -18 3q-28 8 -29 43q-1 24 12.5 39.5t38.5 15.5q32 0 49 -26t17 -61q-3 -93 -92 -163z" />
    <glyph glyph-name="quoteright" unicode="&#x2019;" horiz-adv-x="265" 
d="M98 473l-11 11q51 47 54 92q7 37 -21 46q-7 0 -18 3q-28 8 -29 43q-1 24 12.5 39.5t38.5 15.5q32 0 49 -26t17 -61q-3 -93 -92 -163z" />
    <glyph glyph-name="quoteright" unicode="&#xb4;" horiz-adv-x="265" 
d="M98 473l-11 11q51 47 54 92q7 37 -21 46q-7 0 -18 3q-28 8 -29 43q-1 24 12.5 39.5t38.5 15.5q32 0 49 -26t17 -61q-3 -93 -92 -163z" />
    <glyph glyph-name="quotedblleft" horiz-adv-x="531" 
d="M392 723l10 -13q-46 -40 -55 -92q-4 -36 24 -43l15 -3q30 -10 31 -44q2 -25 -12.5 -40t-38.5 -15q-33 0 -49.5 26t-16.5 62q1 47 26.5 88.5t65.5 73.5zM191 723l11 -13q-52 -47 -54 -92q-5 -36 23 -43q-1 0 16 -3q29 -9 31 -44q2 -23 -12 -39t-40 -16q-32 0 -48.5 26
t-16.5 62q1 89 90 162z" />
    <glyph glyph-name="quotedblleft" unicode="&#x201c;" horiz-adv-x="531" 
d="M392 723l10 -13q-46 -40 -55 -92q-4 -36 24 -43l15 -3q30 -10 31 -44q2 -25 -12.5 -40t-38.5 -15q-33 0 -49.5 26t-16.5 62q1 47 26.5 88.5t65.5 73.5zM191 723l11 -13q-52 -47 -54 -92q-5 -36 23 -43q-1 0 16 -3q29 -9 31 -44q2 -23 -12 -39t-40 -16q-32 0 -48.5 26
t-16.5 62q1 89 90 162z" />
    <glyph glyph-name="quotedblright" horiz-adv-x="620" 
d="M177 473l-11 11q47 41 55 92q2 39 -24 46q-7 0 -15 3q-27 7 -31 43q-1 24 12.5 39.5t38.5 15.5q32 0 49 -26t17 -61q-3 -94 -91 -163zM377 473l-11 11q51 46 54 92q5 38 -23 46q-8 0 -16 3q-28 8 -29 43q-1 24 12.5 39.5t38.5 15.5q31 0 48.5 -26.5t15.5 -60.5
q0 -93 -90 -163z" />
    <glyph glyph-name="quotedblright" unicode="&#x201d;" horiz-adv-x="620" 
d="M177 473l-11 11q47 41 55 92q2 39 -24 46q-7 0 -15 3q-27 7 -31 43q-1 24 12.5 39.5t38.5 15.5q32 0 49 -26t17 -61q-3 -94 -91 -163zM377 473l-11 11q51 46 54 92q5 38 -23 46q-8 0 -16 3q-28 8 -29 43q-1 24 12.5 39.5t38.5 15.5q31 0 48.5 -26.5t15.5 -60.5
q0 -93 -90 -163z" />
    <glyph glyph-name="endash" 
d="M43 344h621v-48h-621v48z" />
    <glyph glyph-name="endash" unicode="&#x2013;" 
d="M43 344h621v-48h-621v48z" />
    <glyph glyph-name="emdash" horiz-adv-x="1063" 
d="M56 212v43l949 -1v-42h-949z" />
    <glyph glyph-name="emdash" unicode="&#x2014;" horiz-adv-x="1063" 
d="M56 212v43l949 -1v-42h-949z" />
    <glyph glyph-name="trademark" horiz-adv-x="882" 
d="M130 497v8q27 1 33 15t6 41v248v9v9t-1 7q-5 17 -31 17q-25 -1 -48.5 -16.5t-34.5 -38.5h-8l17 70h253l16 -70h-7q-23 47 -82 55q-30 2 -35 -17v-16v-9v-248q0 -24 6.5 -39.5t34.5 -16.5v-8h-119zM603 601l100 265h81v-7q-13 3 -26 -7t-9 -37l50 -264q10 -44 49 -46v-8
h-131v8q38 0 40 28q0 13 -3 20l-51 271l-106 -287h-18l-93 278l-52 -262q-4 -22 7 -34t31 -14v-8h-98v8q36 4 46 51l49 248q1 6 2 11t1 12q-5 33 -38 32v7h82z" />
    <glyph glyph-name="trademark" unicode="&#x2122;" horiz-adv-x="882" 
d="M130 497v8q27 1 33 15t6 41v248v9v9t-1 7q-5 17 -31 17q-25 -1 -48.5 -16.5t-34.5 -38.5h-8l17 70h253l16 -70h-7q-23 47 -82 55q-30 2 -35 -17v-16v-9v-248q0 -24 6.5 -39.5t34.5 -16.5v-8h-119zM603 601l100 265h81v-7q-13 3 -26 -7t-9 -37l50 -264q10 -44 49 -46v-8
h-131v8q38 0 40 28q0 13 -3 20l-51 271l-106 -287h-18l-93 278l-52 -262q-4 -22 7 -34t31 -14v-8h-98v8q36 4 46 51l49 248q1 6 2 11t1 12q-5 33 -38 32v7h82z" />
    <glyph glyph-name="Atilde" horiz-adv-x="342" 
d="M88 477l203 -203l-203 -203l-21 20l182 183l-182 181z" />
    <glyph glyph-name="ydieresis" unicode="&#xa1;" horiz-adv-x="731" 
d="M406 230l150 345q8 19 13.5 39.5t2.5 33.5q-5 29 -32 39q-3 1 -17 5q-6 0 -9 1h-8v16h197v-16q-35 -7 -58 -28.5t-35.5 -44.5t-22.5 -48l-202 -473q-25 -59 -65 -86t-87 -27q-54 0 -97.5 39.5t-40.5 103.5q2 32 16.5 53t39.5 22q45 1 45 -49q0 -25 -22 -53
q-10 -12 -14 -21q-7 -22 16.5 -44t59.5 -23q50 0 81 35t49 77l-217 474q-20 44 -40.5 66.5t-59.5 26.5v16h220v-16q-51 0 -56 -32q0 -15 11 -39zM379 798q40 0 76.5 25t37.5 82h37q9 -69 -36.5 -118.5t-115.5 -49.5q-71 2 -114.5 51.5t-35.5 116.5h37q1 -57 37.5 -82
t76.5 -25z" />
    <glyph glyph-name="Ydieresis" unicode="&#xa2;" horiz-adv-x="553" 
d="M280 558q40 0 76.5 25t37.5 82h37q9 -69 -36.5 -118.5t-115.5 -49.5q-71 2 -114.5 51.5t-35.5 116.5h37q1 -57 37.5 -82t76.5 -25zM363 467h151v-19q-29 -10 -43 -30t-27 -58l-181 -481q-38 -108 -122 -103q-41 3 -59.5 23.5t-16.5 40.5q5 31 36 31q25 -1 50 -28
q12 -12 20 -16q30 -6 58 61l42 116l-158 374q-6 20 -25.5 44.5t-49.5 25.5v19h175v-19q-39 -4 -42 -31q0 -13 8 -34l125 -284h4l91 245q11 29 12 44q4 32 -11.5 46t-36.5 14v19z" />
    <glyph glyph-name="Ydieresis" unicode="&#x178;" horiz-adv-x="553" 
d="M280 558q40 0 76.5 25t37.5 82h37q9 -69 -36.5 -118.5t-115.5 -49.5q-71 2 -114.5 51.5t-35.5 116.5h37q1 -57 37.5 -82t76.5 -25zM363 467h151v-19q-29 -10 -43 -30t-27 -58l-181 -481q-38 -108 -122 -103q-41 3 -59.5 23.5t-16.5 40.5q5 31 36 31q25 -1 50 -28
q12 -12 20 -16q30 -6 58 61l42 116l-158 374q-6 20 -25.5 44.5t-49.5 25.5v19h175v-19q-39 -4 -42 -31q0 -13 8 -34l125 -284h4l91 245q11 29 12 44q4 32 -11.5 46t-36.5 14v19z" />
    <glyph glyph-name="lozenge" unicode="&#xa3;" horiz-adv-x="620" 
d="M189 -151l-11 11q47 41 55 92q2 39 -24 46q-7 0 -15 3q-27 7 -31 43q-1 24 12.5 39.5t38.5 15.5q32 0 49 -26t17 -61q-3 -94 -91 -163zM389 -151l-11 11q51 46 54 92q5 38 -23 46q-8 0 -16 3q-28 8 -29 43q-1 24 12.5 39.5t38.5 15.5q31 0 48.5 -26.5t15.5 -60.5
q0 -93 -90 -163z" />
    <glyph glyph-name="section" unicode="&#xa7;" horiz-adv-x="531" 
d="M137 522q-12 46 -8 75q5 48 43 80t100 32q63 -1 107.5 -35t42.5 -65q-4 -31 -31 -28q-29 0 -47 41q-4 10 -7 19t-4 10q-17 34 -62 36q-35 0 -57 -20.5t-27 -48.5q-7 -37 20 -76q12 -16 19 -23q12 -16 20 -22l151 -153q82 -84 84 -157q0 -84 -93 -155q14 -41 18 -61
q8 -62 -36 -125t-138 -58q-68 4 -106 34.5t-38 65.5q0 19 10 28.5t23 9.5q27 0 44 -32q2 -4 9 -28q1 -1 6 -11.5t17.5 -22.5t28 -17.5t35.5 -4.5q33 3 56.5 24.5t29.5 59.5q7 30 -9.5 66t-40.5 58l-165 167q-7 7 -11.5 12t-7.5 8q-19 24 -25 30q-35 48 -42 100q-4 38 6 72
t30.5 60t54.5 55zM333 101q4 -2 7 -6.5t4 -6.5q3 -2 6.5 -6.5t6.5 -8.5q6 -10 9 -13q6 -6 9 -7q13 -1 31.5 28t18.5 49q3 38 -28 82q-15 19 -26 31q-15 19 -35 39l-137 143q-3 4 -12 17q-3 5 -21 25q-1 2 -11 17q-8 14 -14 14q-9 2 -24.5 -24.5t-15.5 -54.5
q-1 -49 24.5 -89.5t71.5 -88.5z" />
    <glyph glyph-name="guilsinglright" unicode="&#xa8;" 
d="M620 143h16l-24 -143h-541v14q53 1 65.5 31t12.5 76v466q0 46 -12.5 76t-65.5 30v16h518l23 -139h-23q-12 38 -47 69t-78 37q-2 0 -25 3h-15h-135q-63 0 -63 -68v-209h196q81 0 78 73h17v-182h-17q3 31 -17.5 53.5t-58.5 22.5h-198v-276q0 -50 32 -61q8 -3 27 -3
q4 -1 12 -1h145q44 0 94.5 23t83.5 92zM188 835q0 15 7.5 28t21 21.5t29.5 8.5q24 0 40 -17t16 -41q0 -23 -16.5 -39.5t-39.5 -16.5q-24 0 -41 17t-17 39zM408 835q0 15 7.5 28t21 21.5t29.5 8.5q24 0 40 -17t16 -41q0 -23 -16.5 -39.5t-39.5 -16.5q-24 0 -41 17t-17 39z
" />
    <glyph glyph-name="guilsinglright" unicode="&#x203a;" 
d="M620 143h16l-24 -143h-541v14q53 1 65.5 31t12.5 76v466q0 46 -12.5 76t-65.5 30v16h518l23 -139h-23q-12 38 -47 69t-78 37q-2 0 -25 3h-15h-135q-63 0 -63 -68v-209h196q81 0 78 73h17v-182h-17q3 31 -17.5 53.5t-58.5 22.5h-198v-276q0 -50 32 -61q8 -3 27 -3
q4 -1 12 -1h145q44 0 94.5 23t83.5 92zM188 835q0 15 7.5 28t21 21.5t29.5 8.5q24 0 40 -17t16 -41q0 -23 -16.5 -39.5t-39.5 -16.5q-24 0 -41 17t-17 39zM408 835q0 15 7.5 28t21 21.5t29.5 8.5q24 0 40 -17t16 -41q0 -23 -16.5 -39.5t-39.5 -16.5q-24 0 -41 17t-17 39z
" />
    <glyph glyph-name="copyright" unicode="&#xa9;" horiz-adv-x="1063" 
d="M63 297q0 -131 65.5 -238.5t172.5 -167.5t230 -60q99 0 186.5 38.5t150 103.5t97 149t34.5 175q0 93 -34.5 177t-98.5 150.5t-150 103.5t-185 37q-120 0 -229 -60.5t-174 -169t-65 -238.5zM21 297q0 97 37.5 190t108 166t163 113.5t201.5 40.5t202.5 -40.5t163.5 -113.5
t107 -164t37 -192q0 -99 -37 -191t-107 -164.5t-163.5 -113t-202.5 -40.5t-201.5 40.5t-162.5 113t-108 166.5t-38 189zM721 469h-11q-18 52 -69 85t-110 30q-76 -2 -139.5 -65.5t-63.5 -221.5q0 -85 26.5 -148t72.5 -98.5t110 -40.5q73 -5 128.5 33t74.5 112h9v-121
q-38 -23 -96.5 -37t-113.5 -11q-125 10 -206 102t-83 209q0 63 24.5 122t72 104t114 68.5t139.5 17.5q62 -1 121 -30v-110z" />
    <glyph glyph-name="guillemotleft" unicode="&#xab;" horiz-adv-x="531" 
d="M442 477l22 -22l-182 -181l182 -183l-22 -20l-202 203zM261 477l22 -22l-182 -181l182 -183l-22 -20l-202 203z" />
    <glyph glyph-name="logicalnot" unicode="&#xac;" horiz-adv-x="353" 
d="M79 215v57h198v-57h-198z" />
    <glyph glyph-name="registered" unicode="&#xae;" horiz-adv-x="651" 
d="M207 717h128q35 0 70 -14.5t36 -65.5q1 -65 -74 -89q8 -40 35 -88t57 -75l-4 -7q-44 28 -80.5 72.5t-46.5 91.5q-5 -1 -13 -0.5t-21 0.5q-4 1 -8 1.5t-11 0.5h-4v-72q0 -19 5 -31.5t28 -13.5v-7h-97v7q22 1 27.5 13.5t5.5 31.5v193q0 44 -33 45v7zM271 556q12 -1 39 -1
q48 1 73 22.5t23 54.5q-1 72 -87 72q-43 0 -47 -14q-1 -5 -1 -12v-7v-115zM28 569q0 75 38.5 144.5t107.5 111t151 41.5q62 0 119 -24.5t96 -65t61 -95.5t22 -112q0 -76 -38.5 -145t-107.5 -110.5t-152 -41.5q-126 0 -211.5 88.5t-85.5 208.5zM60 569q0 -70 34 -130.5
t95 -97.5t136 -37t136.5 37t96 97t34.5 131q0 75 -37 136t-99 95.5t-131 34.5q-68 0 -129 -34.5t-98.5 -95.5t-37.5 -136z" />
    <glyph glyph-name="integral" unicode="&#xaf;" horiz-adv-x="442" 
d="M104 709h234v-16q-53 0 -65.5 -30t-12.5 -76v-466q0 -46 12.5 -76t65.5 -31v-14h-234v14q54 1 66 30.5t12 76.5v466q0 46 -12 76t-66 30v16zM68 835q0 15 7.5 28t21 21.5t29.5 8.5q24 0 40 -17t16 -41q0 -23 -16.5 -39.5t-39.5 -16.5q-24 0 -41 17t-17 39zM260 835
q0 24 16 41t40 17q16 0 29.5 -8.5t21 -21.5t7.5 -28q0 -24 -17 -40t-41 -16q-23 0 -39.5 17.5t-16.5 38.5z" />
    <glyph glyph-name="degree" unicode="&#xb0;" horiz-adv-x="266" 
d="M26 657q0 40 28 66t64 26t64 -26t28 -66q0 -37 -25.5 -64.5t-66.5 -27.5q-38 0 -65 28t-27 64zM53 657q0 -26 18.5 -45.5t46.5 -19.5q26 0 45.5 18.5t19.5 46.5t-18 47t-47 19q-28 -2 -46.5 -20t-18.5 -46z" />
    <glyph glyph-name="plusminus" unicode="&#xb1;" 
d="M51 344h279v279h48v-279h279v-48h-279v-279h-48v279h-279v48zM69 -119v48h586v-48h-586z" />
    <glyph glyph-name="germandbls" unicode="&#xb2;" horiz-adv-x="442" 
d="M104 709h234v-16q-53 0 -65.5 -30t-12.5 -76v-466q0 -46 12.5 -76t65.5 -31v-14h-234v14q54 1 66 30.5t12 76.5v466q0 46 -12 76t-66 30v16zM171 843q0 20 15 35t35 15q21 0 35.5 -14.5t14.5 -35.5t-14.5 -35.5t-35.5 -14.5q-20 0 -35 15t-15 35z" />
    <glyph glyph-name="paragraph" unicode="&#xb6;" horiz-adv-x="520" 
d="M252 751v-963h-69v707h-14q-62 0 -101.5 34.5t-39.5 93.5q0 60 39.5 94t101.5 34h83zM378 751h67v-963h-67v963z" />
    <glyph glyph-name="bullet" unicode="&#xb7;" 
d="M255 353q0 42 28 71t70 29t71 -30t29 -70t-29 -69t-71 -29t-70 29t-28 69z" />
    <glyph glyph-name="bullet" unicode="&#x2022;" 
d="M255 353q0 42 28 71t70 29t71 -30t29 -70t-29 -69t-71 -29t-70 29t-28 69z" />
    <glyph glyph-name="fi" unicode="&#xb8;" horiz-adv-x="486" 
d="M438 85l9 -8q-90 -91 -184 -87q-59 1 -106 36.5t-72.5 90.5t-27.5 118q0 73 28 130t73.5 86t96.5 29q70 -2 123 -63.5t60 -158.5h-308q3 -119 54 -178t118 -59q62 2 136 64zM367 282q-2 62 -31.5 116.5t-85.5 57.5q-115 6 -121 -174h238zM127 628q0 21 14.5 35.5
t34.5 14.5q21 0 35.5 -14.5t14.5 -35.5t-14.5 -35.5t-35.5 -14.5q-20 0 -34.5 14.5t-14.5 35.5zM283 628q0 21 15.5 35.5t34.5 14.5q21 0 35.5 -14.5t14.5 -35.5t-14.5 -35.5t-35.5 -14.5q-19 0 -34.5 14.5t-15.5 35.5z" />
    <glyph glyph-name="guilsinglleft" unicode="&#xb9;" horiz-adv-x="1063" 
d="M759 0v57h212v-57h-212zM732 305q-2 65 39 109t100 44q65 0 102 -48t37 -105q0 -58 -38.5 -106t-100.5 -48q-52 0 -94 40.5t-45 113.5zM796 305q0 -61 15 -96.5t58 -35.5q77 -2 77 132q0 54 -13 93.5t-64 39.5q-75 -2 -73 -133zM283 709l314 -574v440q0 145 98 148
q46 1 75 -39.5t21 -83.5q-8 -45 -40 -45q-11 0 -22 12t-11 33q0 1 3 25q8 19 10 25q2 10 0 20q-2 11 -14 18.5t-25 6.5q-66 -5 -64 -125l3 -570h-42l-345 631v-477q0 -98 -30 -133t-70 -35q-36 0 -63.5 30.5t-27.5 76.5q-1 30 12 52.5t34 22.5q17 0 28.5 -12.5t10.5 -35.5
q0 -16 -4 -29q-12 -22 -14 -28q-8 -12 -5 -21q2 -28 33 -28q28 0 48 32.5t20 115.5v425q0 46 -12.5 76t-65.5 30v16h145z" />
    <glyph glyph-name="guilsinglleft" unicode="&#x2039;" horiz-adv-x="1063" 
d="M759 0v57h212v-57h-212zM732 305q-2 65 39 109t100 44q65 0 102 -48t37 -105q0 -58 -38.5 -106t-100.5 -48q-52 0 -94 40.5t-45 113.5zM796 305q0 -61 15 -96.5t58 -35.5q77 -2 77 132q0 54 -13 93.5t-64 39.5q-75 -2 -73 -133zM283 709l314 -574v440q0 145 98 148
q46 1 75 -39.5t21 -83.5q-8 -45 -40 -45q-11 0 -22 12t-11 33q0 1 3 25q8 19 10 25q2 10 0 20q-2 11 -14 18.5t-25 6.5q-66 -5 -64 -125l3 -570h-42l-345 631v-477q0 -98 -30 -133t-70 -35q-36 0 -63.5 30.5t-27.5 76.5q-1 30 12 52.5t34 22.5q17 0 28.5 -12.5t10.5 -35.5
q0 -16 -4 -29q-12 -22 -14 -28q-8 -12 -5 -21q2 -28 33 -28q28 0 48 32.5t20 115.5v425q0 46 -12.5 76t-65.5 30v16h145z" />
    <glyph glyph-name="guillemotright" unicode="&#xbb;" horiz-adv-x="531" 
d="M88 477l203 -203l-203 -203l-21 20l182 183l-182 181zM269 477l203 -203l-203 -203l-22 20l183 183l-183 181z" />
    <glyph glyph-name="divide" unicode="&#xbc;" horiz-adv-x="1066" 
d="M199 229v60h666v-60h-666zM483 428q0 63 50 63q25 0 37.5 -18.5t12.5 -44.5t-12.5 -44t-37.5 -18q-50 0 -50 62zM483 90q0 27 12.5 44.5t37.5 17.5t37.5 -17.5t12.5 -44.5q0 -25 -13 -43.5t-37 -18.5q-50 0 -50 62z" />
    <glyph glyph-name="dieresis" unicode="&#xbd;" 
d="M123 123l197 197l-197 197l34 34l197 -197l197 197l34 -34l-197 -197l197 -197l-34 -34l-197 197l-197 -197z" />
    <glyph glyph-name="ellipsis" unicode="&#xbe;" horiz-adv-x="639" 
d="M484 35q0 21 14.5 35.5t35.5 14.5q20 0 34.5 -14.5t14.5 -35.5q0 -22 -14.5 -35.5t-34.5 -13.5t-35 15t-15 34zM284 35q0 21 14.5 35.5t35.5 14.5q20 0 34.5 -14.5t14.5 -35.5q0 -22 -14.5 -35.5t-34.5 -13.5t-35 15t-15 34zM84 35q0 21 14.5 35.5t35.5 14.5
q20 0 34.5 -14.5t14.5 -35.5q0 -22 -14.5 -35.5t-34.5 -13.5t-35 15t-15 34z" />
    <glyph glyph-name="ellipsis" unicode="&#x2026;" horiz-adv-x="639" 
d="M484 35q0 21 14.5 35.5t35.5 14.5q20 0 34.5 -14.5t14.5 -35.5q0 -22 -14.5 -35.5t-34.5 -13.5t-35 15t-15 34zM284 35q0 21 14.5 35.5t35.5 14.5q20 0 34.5 -14.5t14.5 -35.5q0 -22 -14.5 -35.5t-34.5 -13.5t-35 15t-15 34zM84 35q0 21 14.5 35.5t35.5 14.5
q20 0 34.5 -14.5t14.5 -35.5q0 -22 -14.5 -35.5t-34.5 -13.5t-35 15t-15 34z" />
    <glyph glyph-name="ordfeminine" unicode="&#xbf;" horiz-adv-x="332" 
d="M90 416v11q52 13 86 57h31v-413q0 -34 14 -47.5t44 -13.5v-10h-183v10q37 0 52 24q4 6 4 25q1 3 1.5 5.5t0.5 6.5v300q0 47 -50 45zM40 631q0 20 15 34t35 14t34 -14t14 -34t-14 -35t-34 -15q-21 0 -35.5 14.5t-14.5 35.5zM193 631q0 21 14.5 34.5t35.5 13.5q20 0 34 -14
t14 -34t-14 -35t-34 -15q-21 0 -35.5 14.5t-14.5 35.5z" />
    <glyph glyph-name="Adieresis" unicode="&#xc0;" horiz-adv-x="731" 
d="M244 632v18q30 6 52 17.5t36 29.5t21 46h44l198 -634q26 -91 101 -97v-12h-244v12q56 -1 65 26.5t0 51.5l-37 128h-279l-42 -120q-5 -10 -5 -28q0 -52 58 -58v-12h-186v12q76 16 100 84l168 474q5 13 6 22q3 13 -1 23l-5 8q-5 5 -8 6q-7 5 -23 5q-13 0 -19 -2zM346 629
l-134 -380h255z" />
    <glyph glyph-name="Adieresis" unicode="&#x410;" horiz-adv-x="731" 
d="M244 632v18q30 6 52 17.5t36 29.5t21 46h44l198 -634q26 -91 101 -97v-12h-244v12q56 -1 65 26.5t0 51.5l-37 128h-279l-42 -120q-5 -10 -5 -28q0 -52 58 -58v-12h-186v12q76 16 100 84l168 474q5 13 6 22q3 13 -1 23l-5 8q-5 5 -8 6q-7 5 -23 5q-13 0 -19 -2zM346 629
l-134 -380h255z" />
    <glyph glyph-name="Aring" unicode="&#xc1;" horiz-adv-x="731" 
d="M229 420q123 20 207.5 3t128.5 -54t62.5 -85.5t15.5 -90.5q-2 -76 -57.5 -134.5t-155.5 -58.5h-359v15q54 1 66 31t12 77v463q0 47 -12 77t-66 30v16h236h235l34 -137h-15q-18 45 -68.5 76.5t-103.5 30.5h-82q-55 4 -66.5 -19.5t-11.5 -73.5v-166zM229 392v-283
q0 -34 6.5 -52t33.5 -26q17 -3 52 -3q50 -4 74 0q60 8 106 51t52 117q4 48 -15.5 101t-94 85.5t-214.5 9.5z" />
    <glyph glyph-name="Aring" unicode="&#x411;" horiz-adv-x="731" 
d="M229 420q123 20 207.5 3t128.5 -54t62.5 -85.5t15.5 -90.5q-2 -76 -57.5 -134.5t-155.5 -58.5h-359v15q54 1 66 31t12 77v463q0 47 -12 77t-66 30v16h236h235l34 -137h-15q-18 45 -68.5 76.5t-103.5 30.5h-82q-55 4 -66.5 -19.5t-11.5 -73.5v-166zM229 392v-283
q0 -34 6.5 -52t33.5 -26q17 -3 52 -3q50 -4 74 0q60 8 106 51t52 117q4 48 -15.5 101t-94 85.5t-214.5 9.5z" />
    <glyph glyph-name="Ccedilla" unicode="&#xc2;" horiz-adv-x="752" 
d="M84 693v16h321q116 0 160 -53t44 -111q0 -52 -34.5 -101t-118.5 -64q203 -34 203 -193q0 -69 -51.5 -128t-177.5 -59h-346v14q53 1 65.5 31t12.5 76v466q0 45 -12.5 75.5t-65.5 30.5zM240 383h134q77 0 117 44.5t37 109.5q-1 61 -39.5 101.5t-96.5 40.5h-101
q-20 0 -35.5 -14t-15.5 -48v-234zM240 355v-260q0 -36 9.5 -51.5t54.5 -15.5h102q46 0 81.5 22t56.5 59t21 76q2 30 -11 69t-55.5 70t-126.5 31h-132z" />
    <glyph glyph-name="Ccedilla" unicode="&#x412;" horiz-adv-x="752" 
d="M84 693v16h321q116 0 160 -53t44 -111q0 -52 -34.5 -101t-118.5 -64q203 -34 203 -193q0 -69 -51.5 -128t-177.5 -59h-346v14q53 1 65.5 31t12.5 76v466q0 45 -12.5 75.5t-65.5 30.5zM240 383h134q77 0 117 44.5t37 109.5q-1 61 -39.5 101.5t-96.5 40.5h-101
q-20 0 -35.5 -14t-15.5 -48v-234zM240 355v-260q0 -36 9.5 -51.5t54.5 -15.5h102q46 0 81.5 22t56.5 59t21 76q2 30 -11 69t-55.5 70t-126.5 31h-132z" />
    <glyph glyph-name="Eacute" unicode="&#xc3;" horiz-adv-x="642" 
d="M590 572h-15q-18 45 -68.5 76t-103.5 31h-96q-60 0 -60 -71v-485q0 -48 12.5 -77t65.5 -32v-14h-223v14q54 1 66 29t12 80v463q0 51 -16 78.5t-62 28.5v16h454z" />
    <glyph glyph-name="Eacute" unicode="&#x413;" horiz-adv-x="642" 
d="M590 572h-15q-18 45 -68.5 76t-103.5 31h-96q-60 0 -60 -71v-485q0 -48 12.5 -77t65.5 -32v-14h-223v14q54 1 66 29t12 80v463q0 51 -16 78.5t-62 28.5v16h454z" />
    <glyph glyph-name="Ntilde" unicode="&#xc4;" horiz-adv-x="841" 
d="M785 -149h-12q-16 60 -69.5 104.5t-170.5 44.5h-268q-73 0 -132.5 -38.5t-81.5 -102.5h-16l39 159q16 0 24 2q26 0 39 3q37 14 77 132t63 257.5t14 190.5q-6 38 -27 61t-52 26v19h441h78v-16q-53 -1 -64 -28.5t-14 -77.5l-7 -481q0 -40 16.5 -62t94.5 -26zM193 28h307
q42 0 53.5 14t11.5 49l10 521q0 63 -67 63h-113q-18 0 -37.5 -15t-27.5 -38q-6 -19 -6 -49q-8 -110 -24.5 -196.5t-41.5 -168t-65 -180.5z" />
    <glyph glyph-name="Ntilde" unicode="&#x414;" horiz-adv-x="841" 
d="M785 -149h-12q-16 60 -69.5 104.5t-170.5 44.5h-268q-73 0 -132.5 -38.5t-81.5 -102.5h-16l39 159q16 0 24 2q26 0 39 3q37 14 77 132t63 257.5t14 190.5q-6 38 -27 61t-52 26v19h441h78v-16q-53 -1 -64 -28.5t-14 -77.5l-7 -481q0 -40 16.5 -62t94.5 -26zM193 28h307
q42 0 53.5 14t11.5 49l10 521q0 63 -67 63h-113q-18 0 -37.5 -15t-27.5 -38q-6 -19 -6 -49q-8 -110 -24.5 -196.5t-41.5 -168t-65 -180.5z" />
    <glyph glyph-name="Odieresis" unicode="&#xc5;" 
d="M622 143h17l-25 -143h-540v14q53 1 65.5 31t12.5 76v466q0 46 -12.5 76t-65.5 30v16h518l22 -139h-22q-12 38 -47 69t-78 37q-8 2 -13.5 2.5t-11.5 0.5h-15h-134q-64 0 -64 -68v-209h196q83 0 78 73h16v-182h-16q3 31 -17.5 53.5t-60.5 22.5h-196v-276q0 -50 32 -61
q8 -3 27 -3q3 -1 12 -1h144q45 0 95 22.5t83 92.5z" />
    <glyph glyph-name="Odieresis" unicode="&#x415;" 
d="M622 143h17l-25 -143h-540v14q53 1 65.5 31t12.5 76v466q0 46 -12.5 76t-65.5 30v16h518l22 -139h-22q-12 38 -47 69t-78 37q-8 2 -13.5 2.5t-11.5 0.5h-15h-134q-64 0 -64 -68v-209h196q83 0 78 73h16v-182h-16q3 31 -17.5 53.5t-60.5 22.5h-196v-276q0 -50 32 -61
q8 -3 27 -3q3 -1 12 -1h144q45 0 95 22.5t83 92.5z" />
    <glyph glyph-name="Udieresis" unicode="&#xc6;" horiz-adv-x="1152" 
d="M696 709v-16q-52 0 -64 -30t-12 -76v-279l248 270q14 15 25.5 39.5t7.5 41.5q-9 26 -39 33q-5 1 -16 1q-3 2 -9 2v14h229v-14q-61 -14 -111 -67l-171 -184q34 -87 91 -194t124 -200.5t125 -133.5l-13 -17q-91 51 -182 154.5t-217 313.5l-92 -101v-145q0 -47 12 -76.5
t64 -30.5v-14h-240v14q53 1 65.5 31t12.5 76v145l-92 101q-123 -203 -215.5 -310.5t-183.5 -157.5l-12 17q62 49 124 134t115 183.5t101 210.5l-172 184q-54 56 -111 67v14h228v-14q-5 0 -8 -2q-11 0 -17 -1q-32 -8 -37 -33q-10 -32 31 -81l249 -270v279q0 46 -12.5 76
t-65.5 30v16h240z" />
    <glyph glyph-name="Udieresis" unicode="&#x416;" horiz-adv-x="1152" 
d="M696 709v-16q-52 0 -64 -30t-12 -76v-279l248 270q14 15 25.5 39.5t7.5 41.5q-9 26 -39 33q-5 1 -16 1q-3 2 -9 2v14h229v-14q-61 -14 -111 -67l-171 -184q34 -87 91 -194t124 -200.5t125 -133.5l-13 -17q-91 51 -182 154.5t-217 313.5l-92 -101v-145q0 -47 12 -76.5
t64 -30.5v-14h-240v14q53 1 65.5 31t12.5 76v145l-92 101q-123 -203 -215.5 -310.5t-183.5 -157.5l-12 17q62 49 124 134t115 183.5t101 210.5l-172 184q-54 56 -111 67v14h228v-14q-5 0 -8 -2q-11 0 -17 -1q-32 -8 -37 -33q-10 -32 31 -81l249 -270v279q0 46 -12.5 76
t-65.5 30v16h240z" />
    <glyph glyph-name="aacute" unicode="&#xc7;" horiz-adv-x="664" 
d="M116 548h-18v122q90 48 188 53q72 1 128.5 -24t88 -67.5t31.5 -89.5q0 -53 -41.5 -98.5t-121.5 -58.5q69 -8 115 -41t65 -76t19 -83q0 -32 -16 -67.5t-47 -64.5t-82 -47.5t-118 -19.5q-46 0 -82.5 6t-75.5 20t-78 39v125h14q23 -67 74.5 -117t144.5 -47q86 4 131 56
t45 119q-2 66 -45.5 119t-130.5 60q-24 1 -71 1h-34v28h39q41 0 61 2q82 4 119.5 48.5t37.5 94.5q2 38 -17.5 74t-57 57t-90.5 21q-68 0 -116.5 -39t-58.5 -105z" />
    <glyph glyph-name="aacute" unicode="&#x417;" horiz-adv-x="664" 
d="M116 548h-18v122q90 48 188 53q72 1 128.5 -24t88 -67.5t31.5 -89.5q0 -53 -41.5 -98.5t-121.5 -58.5q69 -8 115 -41t65 -76t19 -83q0 -32 -16 -67.5t-47 -64.5t-82 -47.5t-118 -19.5q-46 0 -82.5 6t-75.5 20t-78 39v125h14q23 -67 74.5 -117t144.5 -47q86 4 131 56
t45 119q-2 66 -45.5 119t-130.5 60q-24 1 -71 1h-34v28h39q41 0 61 2q82 4 119.5 48.5t37.5 94.5q2 38 -17.5 74t-57 57t-90.5 21q-68 0 -116.5 -39t-58.5 -105z" />
    <glyph glyph-name="agrave" unicode="&#xc8;" horiz-adv-x="863" 
d="M243 180l382 404v3q0 46 -12.5 76t-65.5 30v16h237v-16q-53 0 -65.5 -30t-12.5 -76v-466q0 -46 12.5 -76t65.5 -31v-14h-237v14q53 1 65.5 31t12.5 76v418l-389 -407v-11q0 -47 12 -76.5t65 -30.5v-14h-234v14q53 1 65.5 31t12.5 76v466q0 46 -12.5 76t-65.5 30v16h234
v-16q-46 0 -61.5 -26t-15.5 -80z" />
    <glyph glyph-name="agrave" unicode="&#x418;" horiz-adv-x="863" 
d="M243 180l382 404v3q0 46 -12.5 76t-65.5 30v16h237v-16q-53 0 -65.5 -30t-12.5 -76v-466q0 -46 12.5 -76t65.5 -31v-14h-237v14q53 1 65.5 31t12.5 76v418l-389 -407v-11q0 -47 12 -76.5t65 -30.5v-14h-234v14q53 1 65.5 31t12.5 76v466q0 46 -12.5 76t-65.5 30v16h234
v-16q-46 0 -61.5 -26t-15.5 -80z" />
    <glyph glyph-name="acircumflex" unicode="&#xc9;" horiz-adv-x="863" 
d="M243 180l382 404v3q0 46 -12.5 76t-65.5 30v16h237v-16q-53 0 -65.5 -30t-12.5 -76v-466q0 -46 12.5 -76t65.5 -31v-14h-237v14q53 1 65.5 31t12.5 76v418l-389 -407v-11q0 -47 12 -76.5t65 -30.5v-14h-234v14q53 1 65.5 31t12.5 76v466q0 46 -12.5 76t-65.5 30v16h234
v-16q-46 0 -61.5 -26t-15.5 -80zM417 746q-36 0 -70 20t-37 66q-1 34 13.5 48.5t31.5 12.5q18 -4 23 -14q16 -24 -12 -52q-8 -5 -11 -12q-4 -6 -2 -17q10 -31 64 -31q20 0 40 8.5t23 22.5q2 11 -2 17q-1 6 -11 12q-18 15 -18 30q0 12 6 22q8 11 25 14q17 2 31.5 -13.5
t11.5 -47.5q-3 -43 -36.5 -64.5t-69.5 -21.5z" />
    <glyph glyph-name="acircumflex" unicode="&#x419;" horiz-adv-x="863" 
d="M243 180l382 404v3q0 46 -12.5 76t-65.5 30v16h237v-16q-53 0 -65.5 -30t-12.5 -76v-466q0 -46 12.5 -76t65.5 -31v-14h-237v14q53 1 65.5 31t12.5 76v418l-389 -407v-11q0 -47 12 -76.5t65 -30.5v-14h-234v14q53 1 65.5 31t12.5 76v466q0 46 -12.5 76t-65.5 30v16h234
v-16q-46 0 -61.5 -26t-15.5 -80zM417 746q-36 0 -70 20t-37 66q-1 34 13.5 48.5t31.5 12.5q18 -4 23 -14q16 -24 -12 -52q-8 -5 -11 -12q-4 -6 -2 -17q10 -31 64 -31q20 0 40 8.5t23 22.5q2 11 -2 17q-1 6 -11 12q-18 15 -18 30q0 12 6 22q8 11 25 14q17 2 31.5 -13.5
t11.5 -47.5q-3 -43 -36.5 -64.5t-69.5 -21.5z" />
    <glyph glyph-name="adieresis" unicode="&#xca;" horiz-adv-x="796" 
d="M339 709v-16q-53 0 -65.5 -30t-12.5 -76v-279l250 270q14 15 25.5 39t5.5 42q-5 25 -37 33q-7 1 -18 1q-3 2 -7 2v14h227v-14q-59 -13 -109 -67l-171 -184q34 -87 91 -194.5t122.5 -200t124.5 -133.5l-13 -17q-44 25 -87.5 61t-92.5 94t-99 130t-118 183l-94 -101v-145
q0 -46 12.5 -76t65.5 -31v-14h-240v14q53 1 65 30.5t12 76.5v466q0 46 -12 76t-65 30v16h240z" />
    <glyph glyph-name="adieresis" unicode="&#x41a;" horiz-adv-x="796" 
d="M339 709v-16q-53 0 -65.5 -30t-12.5 -76v-279l250 270q14 15 25.5 39t5.5 42q-5 25 -37 33q-7 1 -18 1q-3 2 -7 2v14h227v-14q-59 -13 -109 -67l-171 -184q34 -87 91 -194.5t122.5 -200t124.5 -133.5l-13 -17q-44 25 -87.5 61t-92.5 94t-99 130t-118 183l-94 -101v-145
q0 -46 12.5 -76t65.5 -31v-14h-240v14q53 1 65 30.5t12 76.5v466q0 46 -12 76t-65 30v16h240z" />
    <glyph glyph-name="atilde" unicode="&#xcb;" horiz-adv-x="841" 
d="M227 690v19h441h78v-16q-51 0 -64.5 -30.5t-13.5 -75.5v-466q0 -46 12.5 -76t65.5 -31v-14h-232v14q53 1 65.5 31t12.5 76v474q0 57 -15.5 70.5t-45.5 13.5h-92q-72 0 -90 -53q-4 -12 -4.5 -22t-2.5 -26q0 -22 -3 -45q-6 -70 -9 -106q-21 -243 -73 -341t-108 -100
q-37 0 -66 33t-29 85q1 47 22 69.5t44 20.5q19 0 31 -17.5t6 -46.5q-3 -21 -28 -53q-4 -4 -8 -10q-5 -13 -3 -21q4 -37 45 -31q53 10 92 141t50 294q5 51 6 97q1 17 1 36.5t-2 30.5q-5 34 -23 52t-60 24z" />
    <glyph glyph-name="atilde" unicode="&#x41b;" horiz-adv-x="841" 
d="M227 690v19h441h78v-16q-51 0 -64.5 -30.5t-13.5 -75.5v-466q0 -46 12.5 -76t65.5 -31v-14h-232v14q53 1 65.5 31t12.5 76v474q0 57 -15.5 70.5t-45.5 13.5h-92q-72 0 -90 -53q-4 -12 -4.5 -22t-2.5 -26q0 -22 -3 -45q-6 -70 -9 -106q-21 -243 -73 -341t-108 -100
q-37 0 -66 33t-29 85q1 47 22 69.5t44 20.5q19 0 31 -17.5t6 -46.5q-3 -21 -28 -53q-4 -4 -8 -10q-5 -13 -3 -21q4 -37 45 -31q53 10 92 141t50 294q5 51 6 97q1 17 1 36.5t-2 30.5q-5 34 -23 52t-60 24z" />
    <glyph glyph-name="aring" unicode="&#xcc;" horiz-adv-x="974" 
d="M470 199l194 510h154v-16q-28 3 -52 -14t-15 -70l97 -507q9 -42 33.5 -64.5t58.5 -22.5v-15h-251v15q73 -1 78 53q1 11 -1 21.5t-4 17.5l-98 519l-206 -549h-31l-180 532l-101 -503q-7 -43 17 -66t58 -25v-15h-189v15q58 3 78 59q2 4 4 11.5t4 13.5q1 1 3 13l94 475
q6 29 4 47q-3 59 -73 59v16h158z" />
    <glyph glyph-name="aring" unicode="&#x41c;" horiz-adv-x="974" 
d="M470 199l194 510h154v-16q-28 3 -52 -14t-15 -70l97 -507q9 -42 33.5 -64.5t58.5 -22.5v-15h-251v15q73 -1 78 53q1 11 -1 21.5t-4 17.5l-98 519l-206 -549h-31l-180 532l-101 -503q-7 -43 17 -66t58 -25v-15h-189v15q58 3 78 59q2 4 4 11.5t4 13.5q1 1 3 13l94 475
q6 29 4 47q-3 59 -73 59v16h158z" />
    <glyph glyph-name="ccedilla" unicode="&#xcd;" horiz-adv-x="841" 
d="M229 367v-246q0 -46 12.5 -76t65.5 -31v-14h-233v14q53 1 65.5 31t12.5 76v466q0 46 -12.5 76t-65.5 30v16h233v-16q-53 0 -65.5 -30t-12.5 -76v-190h382v190q0 46 -12 76t-65 30v16h233v-16q-52 0 -65 -30t-13 -76v-466q0 -47 13 -76.5t65 -30.5v-14h-233v14
q53 1 65 30.5t12 76.5v246h-382z" />
    <glyph glyph-name="ccedilla" unicode="&#x41d;" horiz-adv-x="841" 
d="M229 367v-246q0 -46 12.5 -76t65.5 -31v-14h-233v14q53 1 65.5 31t12.5 76v466q0 46 -12.5 76t-65.5 30v16h233v-16q-53 0 -65.5 -30t-12.5 -76v-190h382v190q0 46 -12 76t-65 30v16h233v-16q-52 0 -65 -30t-13 -76v-466q0 -47 13 -76.5t65 -30.5v-14h-233v14
q53 1 65 30.5t12 76.5v246h-382z" />
    <glyph glyph-name="eacute" unicode="&#xce;" horiz-adv-x="820" 
d="M70 366q3 94 36 163.5t84 111.5t108.5 62t109.5 20t110 -19t110.5 -62t86 -112.5t34.5 -163.5q4 -127 -49.5 -214t-133 -126.5t-158.5 -39.5q-77 0 -156 39.5t-132.5 126.5t-49.5 214zM163 363q-2 -133 55.5 -240.5t191.5 -107.5t192 109.5t54 238.5q-3 172 -78 252
t-168 80q-60 -2 -114.5 -33.5t-92 -105.5t-40.5 -193z" />
    <glyph glyph-name="eacute" unicode="&#x41e;" horiz-adv-x="820" 
d="M70 366q3 94 36 163.5t84 111.5t108.5 62t109.5 20t110 -19t110.5 -62t86 -112.5t34.5 -163.5q4 -127 -49.5 -214t-133 -126.5t-158.5 -39.5q-77 0 -156 39.5t-132.5 126.5t-49.5 214zM163 363q-2 -133 55.5 -240.5t191.5 -107.5t192 109.5t54 238.5q-3 172 -78 252
t-168 80q-60 -2 -114.5 -33.5t-92 -105.5t-40.5 -193z" />
    <glyph glyph-name="egrave" unicode="&#xcf;" horiz-adv-x="863" 
d="M431 678h-96h-22q-3 -1 -9.5 -1.5t-10 -0.5t-8.5 -1q-44 -11 -44 -72v-482q0 -46 12.5 -76t65.5 -31v-14h-237v14q53 1 65 30.5t12 76.5v466q0 46 -12 76t-65 30v16h77h622v-16q-53 0 -65 -30t-12 -76v-466q0 -47 12 -76.5t65 -30.5v-14h-237v14q53 1 65.5 31t12.5 76
v482q0 62 -44 72q-4 1 -12.5 1.5t-15.5 1.5h-22h-97z" />
    <glyph glyph-name="egrave" unicode="&#x41f;" horiz-adv-x="863" 
d="M431 678h-96h-22q-3 -1 -9.5 -1.5t-10 -0.5t-8.5 -1q-44 -11 -44 -72v-482q0 -46 12.5 -76t65.5 -31v-14h-237v14q53 1 65 30.5t12 76.5v466q0 46 -12 76t-65 30v16h77h622v-16q-53 0 -65 -30t-12 -76v-466q0 -47 12 -76.5t65 -30.5v-14h-237v14q53 1 65.5 31t12.5 76
v482q0 62 -44 72q-4 1 -12.5 1.5t-15.5 1.5h-22h-97z" />
    <glyph glyph-name="ecircumflex" unicode="&#xd0;" 
d="M229 266v-146q0 -53 15 -78t61 -28v-14h-229v14q54 1 65 30.5t11 75.5v469q0 45 -11 74.5t-65 29.5v16h330q74 0 125.5 -30t78 -80.5t24.5 -109.5q-1 -77 -37.5 -126t-92.5 -71.5t-119 -22.5q-11 0 -29 -1t-32 -2h-95zM229 294h84q132 0 182.5 50.5t48.5 142.5
q-1 101 -48.5 141.5t-90.5 46.5q-22 3 -64 3q-36 0 -55 -2q-16 0 -33.5 -9t-22.5 -33v-12.5t-1 -10.5v-13v-304z" />
    <glyph glyph-name="ecircumflex" unicode="&#x420;" 
d="M229 266v-146q0 -53 15 -78t61 -28v-14h-229v14q54 1 65 30.5t11 75.5v469q0 45 -11 74.5t-65 29.5v16h330q74 0 125.5 -30t78 -80.5t24.5 -109.5q-1 -77 -37.5 -126t-92.5 -71.5t-119 -22.5q-11 0 -29 -1t-32 -2h-95zM229 294h84q132 0 182.5 50.5t48.5 142.5
q-1 101 -48.5 141.5t-90.5 46.5q-22 3 -64 3q-36 0 -55 -2q-16 0 -33.5 -9t-22.5 -33v-12.5t-1 -10.5v-13v-304z" />
    <glyph glyph-name="edieresis" unicode="&#xd1;" horiz-adv-x="752" 
d="M634 556h-11q-15 40 -47 71.5t-75 49t-91 15.5t-102.5 -27.5t-96.5 -100.5t-42 -212q0 -99 31 -173.5t87 -117t129 -47.5q87 -6 153 40t87 131h12v-142q-46 -28 -116.5 -44.5t-132.5 -12.5q-101 9 -179 62.5t-121 136t-43 168.5q-1 98 52 187t149.5 139.5t213.5 43.5
q78 -4 143 -36v-131z" />
    <glyph glyph-name="edieresis" unicode="&#x421;" horiz-adv-x="752" 
d="M634 556h-11q-15 40 -47 71.5t-75 49t-91 15.5t-102.5 -27.5t-96.5 -100.5t-42 -212q0 -99 31 -173.5t87 -117t129 -47.5q87 -6 153 40t87 131h12v-142q-46 -28 -116.5 -44.5t-132.5 -12.5q-101 9 -179 62.5t-121 136t-43 168.5q-1 98 52 187t149.5 139.5t213.5 43.5
q78 -4 143 -36v-131z" />
    <glyph glyph-name="iacute" unicode="&#xd2;" horiz-adv-x="642" 
d="M207 0v14q35 0 52.5 17.5t20.5 39t3 49.5v477q0 6 -0.5 9.5t-0.5 7.5q-1 6 -1 16.5t-2 14.5q-11 36 -60 33q-34 -2 -65 -17t-57 -40t-37 -48h-14l31 136h487l31 -136h-14q-29 56 -77.5 79t-81.5 26q-21 4 -40 -1.5t-24 -31.5v-15.5v-15.5v-17v-477q0 -28 3 -49.5
t20.5 -39t52.5 -17.5v-14h-227z" />
    <glyph glyph-name="iacute" unicode="&#x422;" horiz-adv-x="642" 
d="M207 0v14q35 0 52.5 17.5t20.5 39t3 49.5v477q0 6 -0.5 9.5t-0.5 7.5q-1 6 -1 16.5t-2 14.5q-11 36 -60 33q-34 -2 -65 -17t-57 -40t-37 -48h-14l31 136h487l31 -136h-14q-29 56 -77.5 79t-81.5 26q-21 4 -40 -1.5t-24 -31.5v-15.5v-15.5v-17v-477q0 -28 3 -49.5
t20.5 -39t52.5 -17.5v-14h-227z" />
    <glyph glyph-name="igrave" unicode="&#xd3;" horiz-adv-x="731" 
d="M406 230l150 345q8 19 13.5 39.5t2.5 33.5q-5 29 -32 39q-3 1 -17 5q-6 0 -9 1h-8v16h197v-16q-35 -7 -58 -28.5t-35.5 -44.5t-22.5 -48l-202 -473q-25 -59 -65 -86t-87 -27q-54 0 -97.5 39.5t-40.5 103.5q2 32 16.5 53t39.5 22q45 1 45 -49q0 -25 -22 -53
q-10 -12 -14 -21q-7 -22 16.5 -44t59.5 -23q50 0 81 35t49 77l-217 474q-20 44 -40.5 66.5t-59.5 26.5v16h220v-16q-51 0 -56 -32q0 -15 11 -39z" />
    <glyph glyph-name="igrave" unicode="&#x423;" horiz-adv-x="731" 
d="M406 230l150 345q8 19 13.5 39.5t2.5 33.5q-5 29 -32 39q-3 1 -17 5q-6 0 -9 1h-8v16h197v-16q-35 -7 -58 -28.5t-35.5 -44.5t-22.5 -48l-202 -473q-25 -59 -65 -86t-87 -27q-54 0 -97.5 39.5t-40.5 103.5q2 32 16.5 53t39.5 22q45 1 45 -49q0 -25 -22 -53
q-10 -12 -14 -21q-7 -22 16.5 -44t59.5 -23q50 0 81 35t49 77l-217 474q-20 44 -40.5 66.5t-59.5 26.5v16h220v-16q-51 0 -56 -32q0 -15 11 -39z" />
    <glyph glyph-name="icircumflex" unicode="&#xd4;" horiz-adv-x="863" 
d="M321 0v14q46 1 61 27.5t15 78.5q-138 3 -220.5 53.5t-88.5 178.5q-3 103 71 175t238 73q0 -1 -0.5 7t-1.5 18q-5 68 -74 68v16h221v-16q-66 0 -75 -68v-11t-0.5 -9t-0.5 -4v-1q131 -1 200.5 -45.5t89.5 -101t18 -101.5q-5 -226 -308 -232v-11q1 -10 1 -25q7 -69 75 -70
v-14h-221zM397 148v422q-55 -2 -107 -23.5t-85 -71t-29 -129.5q5 -118 76 -159t145 -39zM467 146q120 4 169 64t51 136q5 86 -47.5 153.5t-173.5 70.5z" />
    <glyph glyph-name="icircumflex" unicode="&#x424;" horiz-adv-x="863" 
d="M321 0v14q46 1 61 27.5t15 78.5q-138 3 -220.5 53.5t-88.5 178.5q-3 103 71 175t238 73q0 -1 -0.5 7t-1.5 18q-5 68 -74 68v16h221v-16q-66 0 -75 -68v-11t-0.5 -9t-0.5 -4v-1q131 -1 200.5 -45.5t89.5 -101t18 -101.5q-5 -226 -308 -232v-11q1 -10 1 -25q7 -69 75 -70
v-14h-221zM397 148v422q-55 -2 -107 -23.5t-85 -71t-29 -129.5q5 -118 76 -159t145 -39zM467 146q120 4 169 64t51 136q5 86 -47.5 153.5t-173.5 70.5z" />
    <glyph glyph-name="idieresis" unicode="&#xd5;" horiz-adv-x="731" 
d="M377 428l110 167q27 39 27 58q-3 29 -31 37q-6 2 -10.5 2.5t-9.5 0.5h-10v16h203v-16q-51 -8 -75 -29.5t-53 -62.5l-134 -199l196 -325q17 -26 37.5 -41.5t56.5 -21.5v-14h-240v14q9 0 19 3q16 2 24 9q13 9 14 19q3 9 -1.5 21.5t-10.5 24t-9 16.5l-134 225l-144 -219
q-15 -17 -19 -42q-3 -54 60 -57v-14h-201v14q32 4 57 22t41.5 41t28.5 41l161 239l-153 257q-45 78 -104 79v16h226v-16q-46 -1 -52 -22q-2 -5 0 -20q2 -4 5.5 -10.5t4.5 -8.5q2 -4 3 -5.5t3 -4t3 -5.5z" />
    <glyph glyph-name="idieresis" unicode="&#x425;" horiz-adv-x="731" 
d="M377 428l110 167q27 39 27 58q-3 29 -31 37q-6 2 -10.5 2.5t-9.5 0.5h-10v16h203v-16q-51 -8 -75 -29.5t-53 -62.5l-134 -199l196 -325q17 -26 37.5 -41.5t56.5 -21.5v-14h-240v14q9 0 19 3q16 2 24 9q13 9 14 19q3 9 -1.5 21.5t-10.5 24t-9 16.5l-134 225l-144 -219
q-15 -17 -19 -42q-3 -54 60 -57v-14h-201v14q32 4 57 22t41.5 41t28.5 41l161 239l-153 257q-45 78 -104 79v16h226v-16q-46 -1 -52 -22q-2 -5 0 -20q2 -4 5.5 -10.5t4.5 -8.5q2 -4 3 -5.5t3 -4t3 -5.5z" />
    <glyph glyph-name="ntilde" unicode="&#xd6;" horiz-adv-x="863" 
d="M812 34l22 -177h-22q-26 143 -180 143h-562v14q53 1 65.5 30.5t12.5 76.5v466q0 46 -12.5 76t-65.5 30v16h237v-16q-53 0 -65.5 -30t-12.5 -76v-483q0 -60 45 -70q14 -3 26 -3h22h194h21q15 0 28 3q44 9 44 70v483q0 46 -12.5 76t-65.5 30v16h239v-16q-53 0 -65.5 -30
t-12.5 -76v-466v-11q0 -15 3 -23q9 -44 67 -52q19 0 28 -1h22z" />
    <glyph glyph-name="ntilde" unicode="&#x426;" horiz-adv-x="863" 
d="M812 34l22 -177h-22q-26 143 -180 143h-562v14q53 1 65.5 30.5t12.5 76.5v466q0 46 -12.5 76t-65.5 30v16h237v-16q-53 0 -65.5 -30t-12.5 -76v-483q0 -60 45 -70q14 -3 26 -3h22h194h21q15 0 28 3q44 9 44 70v483q0 46 -12.5 76t-65.5 30v16h239v-16q-53 0 -65.5 -30
t-12.5 -76v-466v-11q0 -15 3 -23q9 -44 67 -52q19 0 28 -1h22z" />
    <glyph glyph-name="oacute" unicode="&#xd7;" horiz-adv-x="752" 
d="M528 328v259q0 46 -12.5 76t-65.5 30v16h78h80h77v-16q-53 0 -65 -30t-12 -76v-466q0 -46 12 -75t65 -32v-14h-77h-80h-78v14q53 1 65.5 31t12.5 76v178q-104 -29 -210 -38q-194 -17 -194 125v201q0 46 -12.5 76t-65.5 30v16h78h78h78v-16q-53 0 -65.5 -30t-12.5 -76
v-173q0 -58 23 -90.5t119 -27.5q95 2 184 32z" />
    <glyph glyph-name="oacute" unicode="&#x427;" horiz-adv-x="752" 
d="M528 328v259q0 46 -12.5 76t-65.5 30v16h78h80h77v-16q-53 0 -65 -30t-12 -76v-466q0 -46 12 -75t65 -32v-14h-77h-80h-78v14q53 1 65.5 31t12.5 76v178q-104 -29 -210 -38q-194 -17 -194 125v201q0 46 -12.5 76t-65.5 30v16h78h78h78v-16q-53 0 -65.5 -30t-12.5 -76
v-173q0 -58 23 -90.5t119 -27.5q95 2 184 32z" />
    <glyph glyph-name="ograve" unicode="&#xd8;" horiz-adv-x="1128" 
d="M441 693v16h237v-16q-53 0 -65 -30t-12 -76v-491q0 -67 64 -67h156q76 0 75 67l-6 491q0 45 -13.5 75.5t-64.5 30.5v16h241v-16q-52 0 -64 -30t-12 -76v-466q0 -47 12 -76.5t64 -30.5v-14h-76h-903v14q53 1 65.5 31t12.5 76v466q0 46 -12.5 76t-65.5 30v16h236v-16
q-53 0 -65 -30t-12 -76v-488q0 -70 61 -70h145q33 0 56.5 12t23.5 57v489q0 46 -12.5 76t-65.5 30z" />
    <glyph glyph-name="ograve" unicode="&#x428;" horiz-adv-x="1128" 
d="M441 693v16h237v-16q-53 0 -65 -30t-12 -76v-491q0 -67 64 -67h156q76 0 75 67l-6 491q0 45 -13.5 75.5t-64.5 30.5v16h241v-16q-52 0 -64 -30t-12 -76v-466q0 -47 12 -76.5t64 -30.5v-14h-76h-903v14q53 1 65.5 31t12.5 76v466q0 46 -12.5 76t-65.5 30v16h236v-16
q-53 0 -65 -30t-12 -76v-488q0 -70 61 -70h145q33 0 56.5 12t23.5 57v489q0 46 -12.5 76t-65.5 30z" />
    <glyph glyph-name="ocircumflex" unicode="&#xd9;" horiz-adv-x="1152" 
d="M438 693v16h238v-16q-53 0 -65.5 -30t-12.5 -76v-491q0 -67 66 -67h156q74 0 74 67l-6 491q0 45 -13.5 75.5t-64.5 30.5v16h242v-16q-53 0 -65.5 -30t-12.5 -76v-466q0 -74 62 -86q11 -1 35 -1h31l18 -175h-18q-25 141 -198 141h-831v14q54 1 65 30.5t11 76.5v466
q0 46 -11.5 76t-64.5 30v16h235v-16q-53 0 -65.5 -30t-12.5 -76v-488q0 -70 61 -70h145q34 0 57 12t23 57v489q0 46 -12.5 76t-65.5 30z" />
    <glyph glyph-name="ocircumflex" unicode="&#x429;" horiz-adv-x="1152" 
d="M438 693v16h238v-16q-53 0 -65.5 -30t-12.5 -76v-491q0 -67 66 -67h156q74 0 74 67l-6 491q0 45 -13.5 75.5t-64.5 30.5v16h242v-16q-53 0 -65.5 -30t-12.5 -76v-466q0 -74 62 -86q11 -1 35 -1h31l18 -175h-18q-25 141 -198 141h-831v14q54 1 65 30.5t11 76.5v466
q0 46 -11.5 76t-64.5 30v16h235v-16q-53 0 -65.5 -30t-12.5 -76v-488q0 -70 61 -70h145q34 0 57 12t23 57v489q0 46 -12.5 76t-65.5 30z" />
    <glyph glyph-name="odieresis" unicode="&#xda;" horiz-adv-x="841" 
d="M46 570h-17l38 137l400 2v-16q-53 0 -65.5 -30t-12.5 -77v-166q124 20 208.5 3t129 -54t63 -85t16.5 -91q-3 -73 -39.5 -116t-84.5 -60t-90 -17h-359v15q53 1 65.5 31t12.5 77v463q0 43 -10.5 69t-54.5 26h-53q-42 0 -84.5 -36t-62.5 -75zM389 392v-283q0 -34 7 -52
t34 -26q17 -3 51 -3q53 -4 77 0q59 8 104.5 51.5t51.5 116.5q2 36 -7 74t-39 72t-100 51t-179 -1z" />
    <glyph glyph-name="odieresis" unicode="&#x42a;" horiz-adv-x="841" 
d="M46 570h-17l38 137l400 2v-16q-53 0 -65.5 -30t-12.5 -77v-166q124 20 208.5 3t129 -54t63 -85t16.5 -91q-3 -73 -39.5 -116t-84.5 -60t-90 -17h-359v15q53 1 65.5 31t12.5 77v463q0 43 -10.5 69t-54.5 26h-53q-42 0 -84.5 -36t-62.5 -75zM389 392v-283q0 -34 7 -52
t34 -26q17 -3 51 -3q53 -4 77 0q59 8 104.5 51.5t51.5 116.5q2 36 -7 74t-39 72t-100 51t-179 -1z" />
    <glyph glyph-name="otilde" unicode="&#xdb;" horiz-adv-x="1041" 
d="M246 420q124 20 208.5 3t129 -54t63 -85.5t15.5 -90.5q-3 -75 -59 -134t-155 -59h-358v15q54 1 66 31t12 77v463q0 47 -12 77t-66 30v16h235v-16q-54 0 -66.5 -30t-12.5 -77v-166zM246 392v-283q0 -34 7 -52t35 -26q16 -3 50 -3q51 -4 76 0q61 8 105.5 51.5t50.5 116.5
q4 52 -15.5 103.5t-92 83t-216.5 9.5zM718 707h232v-14q-53 0 -65 -30t-12 -77v-465q0 -47 12 -76.5t65 -30.5v-14h-232v14q53 1 65 30.5t12 76.5v465q0 47 -12 77t-65 30v14z" />
    <glyph glyph-name="otilde" unicode="&#x42b;" horiz-adv-x="1041" 
d="M246 420q124 20 208.5 3t129 -54t63 -85.5t15.5 -90.5q-3 -75 -59 -134t-155 -59h-358v15q54 1 66 31t12 77v463q0 47 -12 77t-66 30v16h235v-16q-54 0 -66.5 -30t-12.5 -77v-166zM246 392v-283q0 -34 7 -52t35 -26q16 -3 50 -3q51 -4 76 0q61 8 105.5 51.5t50.5 116.5
q4 52 -15.5 103.5t-92 83t-216.5 9.5zM718 707h232v-14q-53 0 -65 -30t-12 -77v-465q0 -47 12 -76.5t65 -30.5v-14h-232v14q53 1 65 30.5t12 76.5v465q0 47 -12 77t-65 30v14z" />
    <glyph glyph-name="uacute" unicode="&#xdc;" horiz-adv-x="731" 
d="M238 420q124 20 208.5 3t129 -54t63 -85.5t15.5 -90.5q-3 -77 -59 -135t-154 -58h-359v15q53 1 65.5 31t12.5 77v463q0 47 -12.5 77t-65.5 30v16h234v-16q-53 0 -65.5 -30t-12.5 -77v-166zM238 392v-283q0 -34 6.5 -52t34.5 -26q17 -3 51 -3q51 -4 76 0q38 5 72.5 25.5
t57.5 57t26 85.5q4 48 -15.5 101t-94 85.5t-214.5 9.5z" />
    <glyph glyph-name="uacute" unicode="&#x42c;" horiz-adv-x="731" 
d="M238 420q124 20 208.5 3t129 -54t63 -85.5t15.5 -90.5q-3 -77 -59 -135t-154 -58h-359v15q53 1 65.5 31t12.5 77v463q0 47 -12.5 77t-65.5 30v16h234v-16q-53 0 -65.5 -30t-12.5 -77v-166zM238 392v-283q0 -34 6.5 -52t34.5 -26q17 -3 51 -3q51 -4 76 0q38 5 72.5 25.5
t57.5 57t26 85.5q4 48 -15.5 101t-94 85.5t-214.5 9.5z" />
    <glyph glyph-name="ugrave" unicode="&#xdd;" 
d="M91 526h-12l6 136q106 58 186 61q103 4 189.5 -47t136 -136.5t49.5 -173.5v-2q0 -91 -42.5 -175t-120.5 -138.5t-184 -64.5q-95 -8 -234 37l-6 151h17q19 -74 86 -116.5t135 -42.5q91 0 168.5 74t89.5 241q2 43 -5 67q-85 -86 -161 -86q-32 0 -78 22q-41 22 -61 27
q-27 2 -37 0q-30 -4 -56 -32l-13 10q81 86 139 86q21 0 70 -19q10 -4 22 -9t28 -13q26 -8 50 -11q37 0 66 24t25 60q-8 57 -38 112t-81.5 89t-124.5 30q-68 -2 -125.5 -45t-81.5 -119z" />
    <glyph glyph-name="ugrave" unicode="&#x42d;" 
d="M91 526h-12l6 136q106 58 186 61q103 4 189.5 -47t136 -136.5t49.5 -173.5v-2q0 -91 -42.5 -175t-120.5 -138.5t-184 -64.5q-95 -8 -234 37l-6 151h17q19 -74 86 -116.5t135 -42.5q91 0 168.5 74t89.5 241q2 43 -5 67q-85 -86 -161 -86q-32 0 -78 22q-41 22 -61 27
q-27 2 -37 0q-30 -4 -56 -32l-13 10q81 86 139 86q21 0 70 -19q10 -4 22 -9t28 -13q26 -8 50 -11q37 0 66 24t25 60q-8 57 -38 112t-81.5 89t-124.5 30q-68 -2 -125.5 -45t-81.5 -119z" />
    <glyph glyph-name="ucircumflex" unicode="&#xde;" horiz-adv-x="1106" 
d="M230 367v-246q0 -46 12 -75t65 -32v-14h-233v14q53 1 65.5 31t12.5 76v466q0 46 -12.5 76t-65.5 30v16h233v-16q-53 0 -65 -30t-12 -76v-190h133q13 117 69 189.5t128.5 103.5t140.5 33q52 0 110 -19t110.5 -62t86 -112.5t34.5 -163.5q4 -127 -49.5 -214t-133 -126.5
t-158.5 -39.5q-73 0 -148 35t-130.5 120t-59.5 225zM456 363q-2 -133 55.5 -240.5t191.5 -107.5t192 109.5t54 238.5q-3 172 -78 252t-168 80q-60 -2 -114.5 -33.5t-92 -105.5t-40.5 -193z" />
    <glyph glyph-name="ucircumflex" unicode="&#x42e;" horiz-adv-x="1106" 
d="M230 367v-246q0 -46 12 -75t65 -32v-14h-233v14q53 1 65.5 31t12.5 76v466q0 46 -12.5 76t-65.5 30v16h233v-16q-53 0 -65 -30t-12 -76v-190h133q13 117 69 189.5t128.5 103.5t140.5 33q52 0 110 -19t110.5 -62t86 -112.5t34.5 -163.5q4 -127 -49.5 -214t-133 -126.5
t-158.5 -39.5q-73 0 -148 35t-130.5 120t-59.5 225zM456 363q-2 -133 55.5 -240.5t191.5 -107.5t192 109.5t54 238.5q-3 172 -78 252t-168 80q-60 -2 -114.5 -33.5t-92 -105.5t-40.5 -193z" />
    <glyph glyph-name="udieresis" unicode="&#xdf;" horiz-adv-x="752" 
d="M659 14v-14h-229v14q53 1 65.5 31t12.5 76v181q-36 -5 -81 -8q-12 1 -25.5 1t-21.5 -1h-9q-33 -92 -75.5 -163t-95.5 -125t-124 -102l-8 11q141 139 214 396q-63 16 -113.5 62t-50.5 130q0 46 20 93.5t76 80t157 32.5h296v-16q-53 -1 -65.5 -31t-12.5 -75l-6 -466
q-2 -23 1.5 -48t20.5 -42t54 -17zM508 327v268q0 49 -10.5 65t-41.5 19q-15 2 -65 2q-58 -5 -70 -8q-52 -13 -88 -57t-37 -111q-1 -87 60 -133.5t149 -49.5q33 -1 103 5z" />
    <glyph glyph-name="udieresis" unicode="&#x42f;" horiz-adv-x="752" 
d="M659 14v-14h-229v14q53 1 65.5 31t12.5 76v181q-36 -5 -81 -8q-12 1 -25.5 1t-21.5 -1h-9q-33 -92 -75.5 -163t-95.5 -125t-124 -102l-8 11q141 139 214 396q-63 16 -113.5 62t-50.5 130q0 46 20 93.5t76 80t157 32.5h296v-16q-53 -1 -65.5 -31t-12.5 -75l-6 -466
q-2 -23 1.5 -48t20.5 -42t54 -17zM508 327v268q0 49 -10.5 65t-41.5 19q-15 2 -65 2q-58 -5 -70 -8q-52 -13 -88 -57t-37 -111q-1 -87 60 -133.5t149 -49.5q33 -1 103 5z" />
    <glyph glyph-name="daggerdbl" unicode="&#xe0;" horiz-adv-x="575" 
d="M438 361l1 -288v-14q2 -8 3 -14.5t3 -10.5q7 -24 52 -24v-10h-120v46q-114 -56 -172 -56q-61 -1 -87.5 33.5t-26.5 75.5q2 70 89 119q25 14 75 35t75 32q8 3 16 6.5t15.5 7t15.5 6.5v25v42q-8 87 -86 84q-51 -3 -69 -28t-18 -43q-1 -7 -1.5 -15t-1.5 -12q-10 -35 -42 -33
q-13 0 -24.5 9.5t-11.5 29.5q-2 27 22 54.5t66.5 44t96.5 15.5q79 -1 104.5 -38.5t25.5 -78.5zM377 274q-98 -37 -155 -76.5t-57 -99.5q3 -74 73 -74q50 -1 139 55v195z" />
    <glyph glyph-name="daggerdbl" unicode="&#x2021;" horiz-adv-x="575" 
d="M438 361l1 -288v-14q2 -8 3 -14.5t3 -10.5q7 -24 52 -24v-10h-120v46q-114 -56 -172 -56q-61 -1 -87.5 33.5t-26.5 75.5q2 70 89 119q25 14 75 35t75 32q8 3 16 6.5t15.5 7t15.5 6.5v25v42q-8 87 -86 84q-51 -3 -69 -28t-18 -43q-1 -7 -1.5 -15t-1.5 -12q-10 -35 -42 -33
q-13 0 -24.5 9.5t-11.5 29.5q-2 27 22 54.5t66.5 44t96.5 15.5q79 -1 104.5 -38.5t25.5 -78.5zM377 274q-98 -37 -155 -76.5t-57 -99.5q3 -74 73 -74q50 -1 139 55v195z" />
    <glyph glyph-name="daggerdbl" unicode="&#x430;" horiz-adv-x="575" 
d="M438 361l1 -288v-14q2 -8 3 -14.5t3 -10.5q7 -24 52 -24v-10h-120v46q-114 -56 -172 -56q-61 -1 -87.5 33.5t-26.5 75.5q2 70 89 119q25 14 75 35t75 32q8 3 16 6.5t15.5 7t15.5 6.5v25v42q-8 87 -86 84q-51 -3 -69 -28t-18 -43q-1 -7 -1.5 -15t-1.5 -12q-10 -35 -42 -33
q-13 0 -24.5 9.5t-11.5 29.5q-2 27 22 54.5t66.5 44t96.5 15.5q79 -1 104.5 -38.5t25.5 -78.5zM377 274q-98 -37 -155 -76.5t-57 -99.5q3 -74 73 -74q50 -1 139 55v195z" />
    <glyph glyph-name="periodcentered" unicode="&#xe1;" horiz-adv-x="575" 
d="M470 701h16q-11 -51 -52 -85t-93 -47q-10 -2 -35 -6.5t-40 -7.5q-55 -11 -89.5 -40t-46.5 -60q-3 -9 -5 -18t-5 -18q-4 -17 -5 -27q-5 -14 0 -14q2 -2 9 13q23 38 71 62.5t101 24.5q59 1 109.5 -34t79 -94.5t27.5 -122.5q-1 -102 -63.5 -168.5t-151.5 -68.5
q-79 -2 -146.5 53.5t-76.5 178.5q-9 134 41.5 268t236.5 155q21 2 42 6q60 13 76 50zM149 224q5 -96 34 -144t61 -59.5t53 -8.5q44 0 91 42.5t50 172.5q2 89 -36.5 158t-105.5 70q-40 0 -74.5 -21t-56.5 -74t-16 -136z" />
    <glyph glyph-name="periodcentered" unicode="&#x431;" horiz-adv-x="575" 
d="M470 701h16q-11 -51 -52 -85t-93 -47q-10 -2 -35 -6.5t-40 -7.5q-55 -11 -89.5 -40t-46.5 -60q-3 -9 -5 -18t-5 -18q-4 -17 -5 -27q-5 -14 0 -14q2 -2 9 13q23 38 71 62.5t101 24.5q59 1 109.5 -34t79 -94.5t27.5 -122.5q-1 -102 -63.5 -168.5t-151.5 -68.5
q-79 -2 -146.5 53.5t-76.5 178.5q-9 134 41.5 268t236.5 155q21 2 42 6q60 13 76 50zM149 224q5 -96 34 -144t61 -59.5t53 -8.5q44 0 91 42.5t50 172.5q2 89 -36.5 158t-105.5 70q-40 0 -74.5 -21t-56.5 -74t-16 -136z" />
    <glyph glyph-name="quotesinglbase" unicode="&#xe2;" horiz-adv-x="531" 
d="M339 249q50 -6 90 -32.5t41 -82.5q2 -58 -40 -96t-128 -38h-245v10q32 0 45.5 13.5t13.5 47.5v324q0 35 -14 48.5t-45 12.5v11h228q153 0 154 -109q2 -86 -100 -109zM179 232v-153q0 -56 45 -56h53q49 0 85.5 18.5t32.5 90.5q0 41 -25.5 66.5t-56.5 30.5q-14 3 -44 3h-17
h-73zM179 255h78q63 0 88.5 32.5t21.5 67.5q-1 57 -34.5 73t-58.5 16h-56q-29 0 -34 -14.5t-5 -38.5v-136z" />
    <glyph glyph-name="quotesinglbase" unicode="&#x201a;" horiz-adv-x="531" 
d="M339 249q50 -6 90 -32.5t41 -82.5q2 -58 -40 -96t-128 -38h-245v10q32 0 45.5 13.5t13.5 47.5v324q0 35 -14 48.5t-45 12.5v11h228q153 0 154 -109q2 -86 -100 -109zM179 232v-153q0 -56 45 -56h53q49 0 85.5 18.5t32.5 90.5q0 41 -25.5 66.5t-56.5 30.5q-14 3 -44 3h-17
h-73zM179 255h78q63 0 88.5 32.5t21.5 67.5q-1 57 -34.5 73t-58.5 16h-56q-29 0 -34 -14.5t-5 -38.5v-136z" />
    <glyph glyph-name="quotesinglbase" unicode="&#x432;" horiz-adv-x="531" 
d="M339 249q50 -6 90 -32.5t41 -82.5q2 -58 -40 -96t-128 -38h-245v10q32 0 45.5 13.5t13.5 47.5v324q0 35 -14 48.5t-45 12.5v11h228q153 0 154 -109q2 -86 -100 -109zM179 232v-153q0 -56 45 -56h53q49 0 85.5 18.5t32.5 90.5q0 41 -25.5 66.5t-56.5 30.5q-14 3 -44 3h-17
h-73zM179 255h78q63 0 88.5 32.5t21.5 67.5q-1 57 -34.5 73t-58.5 16h-56q-29 0 -34 -14.5t-5 -38.5v-136z" />
    <glyph glyph-name="quotedblbase" unicode="&#xe3;" horiz-adv-x="442" 
d="M414 341h-14q-49 103 -153 103q-70 3 -70 -50v-323q0 -34 13.5 -47.5t44.5 -13.5v-10h-58h-61h-59v10q58 0 58 61v324q0 64 -58 61v11h59h269z" />
    <glyph glyph-name="quotedblbase" unicode="&#x201e;" horiz-adv-x="442" 
d="M414 341h-14q-49 103 -153 103q-70 3 -70 -50v-323q0 -34 13.5 -47.5t44.5 -13.5v-10h-58h-61h-59v10q58 0 58 61v324q0 64 -58 61v11h59h269z" />
    <glyph glyph-name="quotedblbase" unicode="&#x433;" horiz-adv-x="442" 
d="M414 341h-14q-49 103 -153 103q-70 3 -70 -50v-323q0 -34 13.5 -47.5t44.5 -13.5v-10h-58h-61h-59v10q58 0 58 61v324q0 64 -58 61v11h59h269z" />
    <glyph glyph-name="perthousand" unicode="&#xe4;" horiz-adv-x="575" 
d="M544 -116h-14q-57 110 -172 116q-18 2 -36 1t-37 -1q-17 0 -35 0.5t-34 -0.5q-134 -7 -176 -116h-12l28 130q4 0 7.5 0.5t9.5 0.5q14 0 20 2q29 6 52.5 71.5t38.5 145.5t17 127q0 87 -63 89v17h290h58v-11q-29 2 -43.5 -12.5t-14.5 -48.5v-319q0 -67 84 -62zM138 21h173
q24 0 39.5 8.5t15.5 46.5v305q0 57 -39 57h-62q-28 0 -38 -38q-5 -22 -6 -40q-21 -213 -83 -339z" />
    <glyph glyph-name="perthousand" unicode="&#x2030;" horiz-adv-x="575" 
d="M544 -116h-14q-57 110 -172 116q-18 2 -36 1t-37 -1q-17 0 -35 0.5t-34 -0.5q-134 -7 -176 -116h-12l28 130q4 0 7.5 0.5t9.5 0.5q14 0 20 2q29 6 52.5 71.5t38.5 145.5t17 127q0 87 -63 89v17h290h58v-11q-29 2 -43.5 -12.5t-14.5 -48.5v-319q0 -67 84 -62zM138 21h173
q24 0 39.5 8.5t15.5 46.5v305q0 57 -39 57h-62q-28 0 -38 -38q-5 -22 -6 -40q-21 -213 -83 -339z" />
    <glyph glyph-name="perthousand" unicode="&#x434;" horiz-adv-x="575" 
d="M544 -116h-14q-57 110 -172 116q-18 2 -36 1t-37 -1q-17 0 -35 0.5t-34 -0.5q-134 -7 -176 -116h-12l28 130q4 0 7.5 0.5t9.5 0.5q14 0 20 2q29 6 52.5 71.5t38.5 145.5t17 127q0 87 -63 89v17h290h58v-11q-29 2 -43.5 -12.5t-14.5 -48.5v-319q0 -67 84 -62zM138 21h173
q24 0 39.5 8.5t15.5 46.5v305q0 57 -39 57h-62q-28 0 -38 -38q-5 -22 -6 -40q-21 -213 -83 -339z" />
    <glyph glyph-name="Acircumflex" unicode="&#xe5;" horiz-adv-x="486" 
d="M438 85l9 -8q-90 -91 -184 -87q-59 1 -106 36.5t-72.5 90.5t-27.5 118q0 73 28 130t73.5 86t96.5 29q70 -2 123 -63.5t60 -158.5h-308q3 -119 54 -178t118 -59q62 2 136 64zM367 282q-2 62 -31.5 116.5t-85.5 57.5q-115 6 -121 -174h238z" />
    <glyph glyph-name="Acircumflex" unicode="&#x435;" horiz-adv-x="486" 
d="M438 85l9 -8q-90 -91 -184 -87q-59 1 -106 36.5t-72.5 90.5t-27.5 118q0 73 28 130t73.5 86t96.5 29q70 -2 123 -63.5t60 -158.5h-308q3 -119 54 -178t118 -59q62 2 136 64zM367 282q-2 62 -31.5 116.5t-85.5 57.5q-115 6 -121 -174h238z" />
    <glyph glyph-name="Ecircumflex" unicode="&#xe6;" horiz-adv-x="841" 
d="M417 0h-29h-58v10q39 0 53 24q2 6 2.5 9.5t1 7.5t1.5 8v12v94l-83 84l-112 -176q-4 -6 -6 -13q-2 -2 -3.5 -6.5t-3.5 -8.5q-2 -21 16 -30q4 -1 7.5 -2t9.5 -3q6 0 8 -1v-9h-175v9q41 9 61 45l151 240l-123 125q-32 32 -64 39v9h150v-9q-1 -1 -4 -2t-7 -3q-12 -2 -16 -5
q-12 -7 -12 -21q0 -13 9 -24l197 -199v191v13q-1 7 -2 12.5t-3 12.5q-15 26 -53 23v11h58h62h58v-11q-29 2 -43.5 -12.5t-14.5 -48.5v-191l198 199q2 4 3 6.5t2 3.5q3 12 3 14q0 15 -13 21q-3 3 -15 5q-2 2 -5 3l-6 2v9h150v-9q-33 -8 -64 -39l-124 -125l152 -240
q19 -36 60 -45v-9h-174v9q1 1 8 1q6 2 10.5 3t6.5 2q20 11 15 30q-3 11 -6 15q-2 7 -6 13l-112 176l-83 -84v-94q0 -34 14 -47.5t44 -13.5v-10h-58h-33z" />
    <glyph glyph-name="Ecircumflex" unicode="&#x436;" horiz-adv-x="841" 
d="M417 0h-29h-58v10q39 0 53 24q2 6 2.5 9.5t1 7.5t1.5 8v12v94l-83 84l-112 -176q-4 -6 -6 -13q-2 -2 -3.5 -6.5t-3.5 -8.5q-2 -21 16 -30q4 -1 7.5 -2t9.5 -3q6 0 8 -1v-9h-175v9q41 9 61 45l151 240l-123 125q-32 32 -64 39v9h150v-9q-1 -1 -4 -2t-7 -3q-12 -2 -16 -5
q-12 -7 -12 -21q0 -13 9 -24l197 -199v191v13q-1 7 -2 12.5t-3 12.5q-15 26 -53 23v11h58h62h58v-11q-29 2 -43.5 -12.5t-14.5 -48.5v-191l198 199q2 4 3 6.5t2 3.5q3 12 3 14q0 15 -13 21q-3 3 -15 5q-2 2 -5 3l-6 2v9h150v-9q-33 -8 -64 -39l-124 -125l152 -240
q19 -36 60 -45v-9h-174v9q1 1 8 1q6 2 10.5 3t6.5 2q20 11 15 30q-3 11 -6 15q-2 7 -6 13l-112 176l-83 -84v-94q0 -34 14 -47.5t44 -13.5v-10h-58h-33z" />
    <glyph glyph-name="Aacute" unicode="&#xe7;" horiz-adv-x="464" 
d="M90 346h-14l14 101q58 31 134 31q66 0 110.5 -31t50.5 -76q6 -39 -21 -75.5t-93 -49.5q125 -22 131 -119q3 -57 -51.5 -97t-145.5 -40q-79 0 -160 45v102h11q13 -48 55 -84t96 -39q49 -3 83 26.5t35 77.5q4 75 -50.5 98.5t-144.5 19.5v21h21q32 0 48 1q64 4 93 36.5
t26 76.5q-4 32 -26.5 58t-65.5 27q-48 1 -87.5 -32.5t-48.5 -77.5z" />
    <glyph glyph-name="Aacute" unicode="&#x437;" horiz-adv-x="464" 
d="M90 346h-14l14 101q58 31 134 31q66 0 110.5 -31t50.5 -76q6 -39 -21 -75.5t-93 -49.5q125 -22 131 -119q3 -57 -51.5 -97t-145.5 -40q-79 0 -160 45v102h11q13 -48 55 -84t96 -39q49 -3 83 26.5t35 77.5q4 75 -50.5 98.5t-144.5 19.5v21h21q32 0 48 1q64 4 93 36.5
t26 76.5q-4 32 -26.5 58t-65.5 27q-48 1 -87.5 -32.5t-48.5 -77.5z" />
    <glyph glyph-name="Edieresis" unicode="&#xe8;" horiz-adv-x="575" 
d="M185 144l206 213v38q0 35 -14 49t-45 12v11h179v-11q-29 2 -43.5 -12.5t-14.5 -48.5v-324q0 -34 13.5 -47.5t44.5 -13.5v-10h-179v10q32 0 45.5 13.5t13.5 47.5v248l-206 -212v-36q0 -34 13.5 -47.5t44.5 -13.5v-10h-180v10q43 0 53 24q5 10 5 25v12v324v13q0 18 -5 25
q-13 26 -53 23v11h180v-11q-29 2 -43.5 -12.5t-14.5 -48.5v-251z" />
    <glyph glyph-name="Edieresis" unicode="&#x438;" horiz-adv-x="575" 
d="M185 144l206 213v38q0 35 -14 49t-45 12v11h179v-11q-29 2 -43.5 -12.5t-14.5 -48.5v-324q0 -34 13.5 -47.5t44.5 -13.5v-10h-179v10q32 0 45.5 13.5t13.5 47.5v248l-206 -212v-36q0 -34 13.5 -47.5t44.5 -13.5v-10h-180v10q43 0 53 24q5 10 5 25v12v324v13q0 18 -5 25
q-13 26 -53 23v11h180v-11q-29 2 -43.5 -12.5t-14.5 -48.5v-251z" />
    <glyph glyph-name="Egrave" unicode="&#xe9;" horiz-adv-x="575" 
d="M185 144l206 213v38q0 35 -14 49t-45 12v11h179v-11q-29 2 -43.5 -12.5t-14.5 -48.5v-324q0 -34 13.5 -47.5t44.5 -13.5v-10h-179v10q32 0 45.5 13.5t13.5 47.5v248l-206 -212v-36q0 -34 13.5 -47.5t44.5 -13.5v-10h-180v10q43 0 53 24q5 10 5 25v12v324v13q0 18 -5 25
q-13 26 -53 23v11h180v-11q-29 2 -43.5 -12.5t-14.5 -48.5v-251zM288 536q-58 0 -92.5 33.5t-24.5 75.5q4 21 19 33t31 11q31 -4 31 -35q0 -25 -20 -32q-2 -3 -13 -7q-11 -2 -12 -9q-6 -10 18 -28.5t63 -18.5t63 17.5t18 29.5q-3 8 -12 9q-11 4 -13 7q-20 7 -20 32
q0 31 31 35q15 2 30.5 -9.5t19.5 -34.5q10 -42 -24.5 -75.5t-92.5 -33.5z" />
    <glyph glyph-name="Egrave" unicode="&#x439;" horiz-adv-x="575" 
d="M185 144l206 213v38q0 35 -14 49t-45 12v11h179v-11q-29 2 -43.5 -12.5t-14.5 -48.5v-324q0 -34 13.5 -47.5t44.5 -13.5v-10h-179v10q32 0 45.5 13.5t13.5 47.5v248l-206 -212v-36q0 -34 13.5 -47.5t44.5 -13.5v-10h-180v10q43 0 53 24q5 10 5 25v12v324v13q0 18 -5 25
q-13 26 -53 23v11h180v-11q-29 2 -43.5 -12.5t-14.5 -48.5v-251zM288 536q-58 0 -92.5 33.5t-24.5 75.5q4 21 19 33t31 11q31 -4 31 -35q0 -25 -20 -32q-2 -3 -13 -7q-11 -2 -12 -9q-6 -10 18 -28.5t63 -18.5t63 17.5t18 29.5q-3 8 -12 9q-11 4 -13 7q-20 7 -20 32
q0 31 31 35q15 2 30.5 -9.5t19.5 -34.5q10 -42 -24.5 -75.5t-92.5 -33.5z" />
    <glyph glyph-name="Iacute" unicode="&#xea;" horiz-adv-x="553" 
d="M63 0v10q43 0 53 24q5 8 5 25q1 3 1.5 5.5t0.5 6.5v324q0 5 -0.5 7.5t-1.5 5.5q0 19 -5 25q-11 26 -53 23v11h180v-11q-30 2 -45 -12t-15 -49v-191l195 196q13 11 13 27t-13 21q-5 5 -15 5q-4 2 -7 3l-6 2v9h151v-9q-34 -8 -65 -39l-123 -125l151 -240q20 -36 61 -45v-9
h-175v9q3 1 8 1q6 2 9.5 2.5t9.5 2.5q19 11 15 30q-1 6 -6 15q-2 4 -3 7t-3 6l-112 176l-85 -84v-94q0 -34 14.5 -47.5t45.5 -13.5v-10h-180z" />
    <glyph glyph-name="Iacute" unicode="&#x43a;" horiz-adv-x="553" 
d="M63 0v10q43 0 53 24q5 8 5 25q1 3 1.5 5.5t0.5 6.5v324q0 5 -0.5 7.5t-1.5 5.5q0 19 -5 25q-11 26 -53 23v11h180v-11q-30 2 -45 -12t-15 -49v-191l195 196q13 11 13 27t-13 21q-5 5 -15 5q-4 2 -7 3l-6 2v9h151v-9q-34 -8 -65 -39l-123 -125l151 -240q20 -36 61 -45v-9
h-175v9q3 1 8 1q6 2 9.5 2.5t9.5 2.5q19 11 15 30q-1 6 -6 15q-2 4 -3 7t-3 6l-112 176l-85 -84v-94q0 -34 14.5 -47.5t45.5 -13.5v-10h-180z" />
    <glyph glyph-name="Icircumflex" unicode="&#xeb;" horiz-adv-x="575" 
d="M159 445v22h341v-20q-39 0 -52 -25q-4 -6 -4 -25q0 -3 -0.5 -6t-1.5 -6v-303q0 -8 2 -12q0 -19 4 -25q11 -24 52 -24v-21h-178v21q41 0 52 24q1 2 6 25v11v276v17v18q-3 38 -41 38h-50q-24 0 -31.5 -12t-14.5 -69q-20 -192 -48.5 -277t-92.5 -82q-33 0 -52 23t-21 60
q0 34 15.5 52.5t32.5 18.5q24 0 32 -23q5 -17 0 -34q-4 -15 -14 -33q-9 -10 -7 -20q5 -16 24 -16q31 0 54 69.5t34.5 156.5t11.5 136q0 39 -17 53t-36 12z" />
    <glyph glyph-name="Icircumflex" unicode="&#x43b;" horiz-adv-x="575" 
d="M159 445v22h341v-20q-39 0 -52 -25q-4 -6 -4 -25q0 -3 -0.5 -6t-1.5 -6v-303q0 -8 2 -12q0 -19 4 -25q11 -24 52 -24v-21h-178v21q41 0 52 24q1 2 6 25v11v276v17v18q-3 38 -41 38h-50q-24 0 -31.5 -12t-14.5 -69q-20 -192 -48.5 -277t-92.5 -82q-33 0 -52 23t-21 60
q0 34 15.5 52.5t32.5 18.5q24 0 32 -23q5 -17 0 -34q-4 -15 -14 -33q-9 -10 -7 -20q5 -16 24 -16q31 0 54 69.5t34.5 156.5t11.5 136q0 39 -17 53t-36 12z" />
    <glyph glyph-name="Idieresis" unicode="&#xec;" horiz-adv-x="707" 
d="M353 113l125 354h145v-11q-59 3 -59 -61v-324q0 -34 13.5 -47.5t45.5 -13.5v-10h-179v10q30 0 44.5 13.5t14.5 47.5v370l-157 -441h-18l-162 441v-370q0 -37 20.5 -50.5t39.5 -11.5v-9h-141v9q55 1 55 62v318q0 69 -55 66v12h141z" />
    <glyph glyph-name="Idieresis" unicode="&#x43c;" horiz-adv-x="707" 
d="M353 113l125 354h145v-11q-59 3 -59 -61v-324q0 -34 13.5 -47.5t45.5 -13.5v-10h-179v10q30 0 44.5 13.5t14.5 47.5v370l-157 -441h-18l-162 441v-370q0 -37 20.5 -50.5t39.5 -11.5v-9h-141v9q55 1 55 62v318q0 69 -55 66v12h141z" />
    <glyph glyph-name="Igrave" unicode="&#xed;" horiz-adv-x="575" 
d="M183 229v-158q1 -3 1.5 -5.5t0.5 -6.5q0 -12 5 -25q10 -24 53 -24v-10h-180v10q60 0 60 61v324q0 64 -60 61v11h180v-11q-40 3 -53 -23q-5 -10 -5 -25q0 -4 -0.5 -6.5t-1.5 -6.5v-143h208v143q0 64 -58 61v11h178v-11q-37 1 -47.5 -16.5t-10.5 -44.5v-324
q0 -28 10.5 -44.5t47.5 -16.5v-10h-178v10q58 0 58 61v158h-208z" />
    <glyph glyph-name="Igrave" unicode="&#x43d;" horiz-adv-x="575" 
d="M183 229v-158q1 -3 1.5 -5.5t0.5 -6.5q0 -12 5 -25q10 -24 53 -24v-10h-180v10q60 0 60 61v324q0 64 -60 61v11h180v-11q-40 3 -53 -23q-5 -10 -5 -25q0 -4 -0.5 -6.5t-1.5 -6.5v-143h208v143q0 64 -58 61v11h178v-11q-37 1 -47.5 -16.5t-10.5 -44.5v-324
q0 -28 10.5 -44.5t47.5 -16.5v-10h-178v10q58 0 58 61v158h-208z" />
    <glyph glyph-name="Oacute" unicode="&#xee;" horiz-adv-x="509" 
d="M48 233q0 50 21 108t68 98t120 39q104 0 155 -79t51 -166q0 -88 -52.5 -166t-153.5 -77q-106 0 -157.5 78.5t-51.5 164.5zM121 233q0 -76 26.5 -151t107.5 -75q84 0 109 73.5t25 152.5q0 47 -8 95t-38 89t-88 41q-82 0 -108 -74.5t-26 -150.5z" />
    <glyph glyph-name="Oacute" unicode="&#x43e;" horiz-adv-x="509" 
d="M48 233q0 50 21 108t68 98t120 39q104 0 155 -79t51 -166q0 -88 -52.5 -166t-153.5 -77q-106 0 -157.5 78.5t-51.5 164.5zM121 233q0 -76 26.5 -151t107.5 -75q84 0 109 73.5t25 152.5q0 47 -8 95t-38 89t-88 41q-82 0 -108 -74.5t-26 -150.5z" />
    <glyph glyph-name="Ocircumflex" unicode="&#xef;" horiz-adv-x="597" 
d="M68 467h460v-11q-38 3 -53 -23q-5 -8 -5 -25q0 -5 -0.5 -7.5t-0.5 -6.5v-321q0 -34 14 -48.5t45 -14.5v-10h-178v10q39 0 53 24q5 13 5 25v14v307q0 33 -10.5 41.5t-36.5 8.5h-125q-37 0 -45 -24q-1 -4 -1 -15q-2 -5 -2 -13v-305q0 -23 6 -37t19.5 -20t33.5 -6v-10h-179
v10q32 0 45.5 14t13.5 49v321v14q-3 22 -4 25q-15 26 -55 23v11z" />
    <glyph glyph-name="Ocircumflex" unicode="&#x43f;" horiz-adv-x="597" 
d="M68 467h460v-11q-38 3 -53 -23q-5 -8 -5 -25q0 -5 -0.5 -7.5t-0.5 -6.5v-321q0 -34 14 -48.5t45 -14.5v-10h-178v10q39 0 53 24q5 13 5 25v14v307q0 33 -10.5 41.5t-36.5 8.5h-125q-37 0 -45 -24q-1 -4 -1 -15q-2 -5 -2 -13v-305q0 -23 6 -37t19.5 -20t33.5 -6v-10h-179
v10q32 0 45.5 14t13.5 49v321v14q-3 22 -4 25q-15 26 -55 23v11z" />
    <glyph glyph-name="apple" unicode="&#xf0;" horiz-adv-x="598" 
d="M165 489h29v-70h7q50 62 126 59q81 -2 136 -70t45 -184q-9 -108 -67 -172t-133 -62q-69 0 -109 48h-5v-195q0 -35 16.5 -49.5t49.5 -12.5v-10h-187v10q57 0 57 62v512q0 35 -7.5 50t-45.5 15v11q61 15 88 58zM196 118q0 -30 31 -61t78 -31q50 -2 88.5 48.5t39.5 146.5
q0 55 -14 102.5t-45 78t-72 29.5q-41 0 -74.5 -24.5t-33.5 -59.5z" />
    <glyph glyph-name="apple" unicode="&#x440;" horiz-adv-x="598" 
d="M165 489h29v-70h7q50 62 126 59q81 -2 136 -70t45 -184q-9 -108 -67 -172t-133 -62q-69 0 -109 48h-5v-195q0 -35 16.5 -49.5t49.5 -12.5v-10h-187v10q57 0 57 62v512q0 35 -7.5 50t-45.5 15v11q61 15 88 58zM196 118q0 -30 31 -61t78 -31q50 -2 88.5 48.5t39.5 146.5
q0 55 -14 102.5t-45 78t-72 29.5q-41 0 -74.5 -24.5t-33.5 -59.5z" />
    <glyph glyph-name="Ograve" unicode="&#xf1;" horiz-adv-x="487" 
d="M445 74q-89 -84 -173 -84q-82 0 -146.5 67t-68.5 172q-2 63 25.5 120.5t76.5 93t107 35.5q68 1 114 -39t40 -82q-1 -18 -13 -28.5t-27 -10.5q-39 1 -47 62q0 17 -3 26q-15 33 -64 35q-75 3 -108 -59.5t-28 -135.5q7 -65 40 -126.5t102 -79.5q83 -19 152 53z" />
    <glyph glyph-name="Ograve" unicode="&#x441;" horiz-adv-x="487" 
d="M445 74q-89 -84 -173 -84q-82 0 -146.5 67t-68.5 172q-2 63 25.5 120.5t76.5 93t107 35.5q68 1 114 -39t40 -82q-1 -18 -13 -28.5t-27 -10.5q-39 1 -47 62q0 17 -3 26q-15 33 -64 35q-75 3 -108 -59.5t-28 -135.5q7 -65 40 -126.5t102 -79.5q83 -19 152 53z" />
    <glyph glyph-name="Uacute" unicode="&#xf2;" horiz-adv-x="487" 
d="M149 0v21q40 0 52 24q2 4 3 9t1.5 8.5t1.5 7.5v14l-2 293q0 28 -6 40.5t-33 12.5q-42 0 -71 -29.5t-44 -59.5h-16l30 126h357l30 -126h-18q-47 90 -113 89q-28 0 -34.5 -13.5t-6.5 -39.5v-293v-14q0 -12 5 -25q10 -24 53 -24v-21h-189z" />
    <glyph glyph-name="Uacute" unicode="&#x442;" horiz-adv-x="487" 
d="M149 0v21q40 0 52 24q2 4 3 9t1.5 8.5t1.5 7.5v14l-2 293q0 28 -6 40.5t-33 12.5q-42 0 -71 -29.5t-44 -59.5h-16l30 126h357l30 -126h-18q-47 90 -113 89q-28 0 -34.5 -13.5t-6.5 -39.5v-293v-14q0 -12 5 -25q10 -24 53 -24v-21h-189z" />
    <glyph glyph-name="Ucircumflex" unicode="&#xf3;" horiz-adv-x="553" 
d="M363 467h151v-19q-29 -10 -43 -30t-27 -58l-181 -481q-38 -108 -122 -103q-41 3 -59.5 23.5t-16.5 40.5q5 31 36 31q25 -1 50 -28q12 -12 20 -16q30 -6 58 61l42 116l-158 374q-6 22 -24.5 45.5t-50.5 24.5v19h175v-19q-39 -4 -42 -31q0 -13 8 -34l125 -284h4l91 245
q11 29 12 44q4 32 -11.5 46t-36.5 14v19z" />
    <glyph glyph-name="Ucircumflex" unicode="&#x443;" horiz-adv-x="553" 
d="M363 467h151v-19q-29 -10 -43 -30t-27 -58l-181 -481q-38 -108 -122 -103q-41 3 -59.5 23.5t-16.5 40.5q5 31 36 31q25 -1 50 -28q12 -12 20 -16q30 -6 58 61l42 116l-158 374q-6 22 -24.5 45.5t-50.5 24.5v19h175v-19q-39 -4 -42 -31q0 -13 8 -34l125 -284h4l91 245
q11 29 12 44q4 32 -11.5 46t-36.5 14v19z" />
    <glyph glyph-name="Ugrave" unicode="&#xf4;" horiz-adv-x="731" 
d="M283 617v22q68 17 84 56h32v-279h6q26 50 84 61q36 7 68.5 -11.5t56 -55.5t36 -85.5t11.5 -97.5q-1 -109 -48 -173.5t-119 -62.5q-57 3 -91 46h-4v-183q0 -34 13.5 -47.5t43.5 -13.5v-22h-182v22q42 0 51 24q5 6 5 23q2 5 2 14v183h-7q-30 -43 -89 -44q-71 -3 -118 62
t-48 174q0 57 12 102t37 82t57 54t65 10q23 -3 48.5 -20.5t35.5 -40.5h7v145q0 28 -8.5 43.5t-40.5 12.5zM332 120v190q0 71 -30 100t-59 29q-40 5 -72 -38t-31 -172q1 -86 28.5 -140t69.5 -60q36 -5 65 24t29 67zM399 120q0 -37 29 -66t64 -25q42 6 70 60.5t28 137.5
q1 131 -31.5 173.5t-71.5 38.5q-32 -3 -60 -34t-28 -81v-204z" />
    <glyph glyph-name="Ugrave" unicode="&#x444;" horiz-adv-x="731" 
d="M283 617v22q68 17 84 56h32v-279h6q26 50 84 61q36 7 68.5 -11.5t56 -55.5t36 -85.5t11.5 -97.5q-1 -109 -48 -173.5t-119 -62.5q-57 3 -91 46h-4v-183q0 -34 13.5 -47.5t43.5 -13.5v-22h-182v22q42 0 51 24q5 6 5 23q2 5 2 14v183h-7q-30 -43 -89 -44q-71 -3 -118 62
t-48 174q0 57 12 102t37 82t57 54t65 10q23 -3 48.5 -20.5t35.5 -40.5h7v145q0 28 -8.5 43.5t-40.5 12.5zM332 120v190q0 71 -30 100t-59 29q-40 5 -72 -38t-31 -172q1 -86 28.5 -140t69.5 -60q36 -5 65 24t29 67zM399 120q0 -37 29 -66t64 -25q42 6 70 60.5t28 137.5
q1 131 -31.5 173.5t-71.5 38.5q-32 -3 -60 -34t-28 -81v-204z" />
    <glyph glyph-name="dotlessi" unicode="&#xf5;" horiz-adv-x="486" 
d="M257 288l75 109q10 15 10 23q0 20 -15 30q-8 5 -17 5q-15 3 -14 3v9h149v-9q-37 -4 -65 -42l-109 -150l129 -207q32 -49 70 -49v-10h-174v10q17 0 29 9.5t11 22.5q0 8 -11 21l-92 149l-104 -153q-6 -9 -6 -17q0 -28 48 -32v-10h-154v10q33 8 52.5 25t29.5 32l117 168
l-96 160q-7 12 -13 18q-10 15 -20 25q-25 20 -49 20v9h178v-9q-33 0 -39 -20q-5 -13 6 -30z" />
    <glyph glyph-name="dotlessi" unicode="&#x445;" horiz-adv-x="486" 
d="M257 288l75 109q10 15 10 23q0 20 -15 30q-8 5 -17 5q-15 3 -14 3v9h149v-9q-37 -4 -65 -42l-109 -150l129 -207q32 -49 70 -49v-10h-174v10q17 0 29 9.5t11 22.5q0 8 -11 21l-92 149l-104 -153q-6 -9 -6 -17q0 -28 48 -32v-10h-154v10q33 8 52.5 25t29.5 32l117 168
l-96 160q-7 12 -13 18q-10 15 -20 25q-25 20 -49 20v9h178v-9q-33 0 -39 -20q-5 -13 6 -30z" />
    <glyph glyph-name="circumflex" unicode="&#xf6;" horiz-adv-x="597" 
d="M544 21l29 -130h-12q-41 109 -148 109h-353v10q60 -1 60 63v321q0 65 -60 62v11h180v-11q-31 0 -45.5 -14t-14.5 -48v-332q0 -13 11.5 -26t37.5 -13h124q22 0 34.5 12t12.5 27v332q0 62 -58 62v11h178v-11q-40 0 -53 -23q-4 -8 -4 -25q0 -5 -0.5 -7.5t-1.5 -6.5v-310
q0 -66 83 -63z" />
    <glyph glyph-name="circumflex" unicode="&#x446;" horiz-adv-x="597" 
d="M544 21l29 -130h-12q-41 109 -148 109h-353v10q60 -1 60 63v321q0 65 -60 62v11h180v-11q-31 0 -45.5 -14t-14.5 -48v-332q0 -13 11.5 -26t37.5 -13h124q22 0 34.5 12t12.5 27v332q0 62 -58 62v11h178v-11q-40 0 -53 -23q-4 -8 -4 -25q0 -5 -0.5 -7.5t-1.5 -6.5v-310
q0 -66 83 -63z" />
    <glyph glyph-name="circumflex" unicode="&#x2c6;" horiz-adv-x="597" 
d="M544 21l29 -130h-12q-41 109 -148 109h-353v10q60 -1 60 63v321q0 65 -60 62v11h180v-11q-31 0 -45.5 -14t-14.5 -48v-332q0 -13 11.5 -26t37.5 -13h124q22 0 34.5 12t12.5 27v332q0 62 -58 62v11h178v-11q-40 0 -53 -23q-4 -8 -4 -25q0 -5 -0.5 -7.5t-1.5 -6.5v-310
q0 -66 83 -63z" />
    <glyph glyph-name="tilde" unicode="&#xf7;" horiz-adv-x="531" 
d="M347 213v182q0 64 -58 61v11h178v-11q-57 3 -57 -61v-324q0 -61 57 -61v-10h-178v10q58 0 58 61v117q-109 -23 -164 -19q-44 5 -61.5 24.5t-17.5 64.5v137v13q-1 7 -2 12.5t-3 12.5q-14 26 -53 23v11h176v-11q-32 2 -44.5 -13.5t-12.5 -47.5v-137q0 -30 10 -44t63 -17
q53 -1 109 16z" />
    <glyph glyph-name="tilde" unicode="&#x447;" horiz-adv-x="531" 
d="M347 213v182q0 64 -58 61v11h178v-11q-57 3 -57 -61v-324q0 -61 57 -61v-10h-178v10q58 0 58 61v117q-109 -23 -164 -19q-44 5 -61.5 24.5t-17.5 64.5v137v13q-1 7 -2 12.5t-3 12.5q-14 26 -53 23v11h176v-11q-32 2 -44.5 -13.5t-12.5 -47.5v-137q0 -30 10 -44t63 -17
q53 -1 109 16z" />
    <glyph glyph-name="tilde" unicode="&#x2dc;" horiz-adv-x="531" 
d="M347 213v182q0 64 -58 61v11h178v-11q-57 3 -57 -61v-324q0 -61 57 -61v-10h-178v10q58 0 58 61v117q-109 -23 -164 -19q-44 5 -61.5 24.5t-17.5 64.5v137v13q-1 7 -2 12.5t-3 12.5q-14 26 -53 23v11h176v-11q-32 2 -44.5 -13.5t-12.5 -47.5v-137q0 -30 10 -44t63 -17
q53 -1 109 16z" />
    <glyph glyph-name="macron" unicode="&#xf8;" horiz-adv-x="841" 
d="M67 467h179v-11q-29 2 -43.5 -12.5t-14.5 -48.5v-321q0 -25 6 -35.5t15 -13t24 -2.5h99q42 0 49.5 11.5t7.5 36.5v324q0 64 -57 61v11h177v-11q-57 3 -57 -61v-322q0 -50 49 -50h102q53 0 53 48v324q0 5 -0.5 7.5t-1.5 5.5q0 19 -4 25q-13 26 -53 23v11h177v-11
q-57 3 -57 -61v-324q0 -61 57 -61v-10h-57h-650v10q57 0 57 61v324q0 64 -57 61v11z" />
    <glyph glyph-name="macron" unicode="&#x448;" horiz-adv-x="841" 
d="M67 467h179v-11q-29 2 -43.5 -12.5t-14.5 -48.5v-321q0 -25 6 -35.5t15 -13t24 -2.5h99q42 0 49.5 11.5t7.5 36.5v324q0 64 -57 61v11h177v-11q-57 3 -57 -61v-322q0 -50 49 -50h102q53 0 53 48v324q0 5 -0.5 7.5t-1.5 5.5q0 19 -4 25q-13 26 -53 23v11h177v-11
q-57 3 -57 -61v-324q0 -61 57 -61v-10h-57h-650v10q57 0 57 61v324q0 64 -57 61v11z" />
    <glyph glyph-name="breve" unicode="&#xf9;" horiz-adv-x="863" 
d="M70 467h179v-11q-30 2 -44.5 -12.5t-14.5 -48.5v-321q0 -33 12 -42t34 -9h97q44 0 51.5 11.5t7.5 36.5v324v13q-2 22 -4 25q-15 26 -53 23v11h177v-11q-39 3 -53 -23q-2 -5 -4 -25v-13v-322q0 -22 9 -36t41 -14h99q34 0 43.5 13t9.5 35v324v13q0 17 -4 25q-15 26 -53 23
v11h177v-11q-39 3 -53 -23q-4 -8 -4 -25q0 -4 -0.5 -6.5t-1.5 -6.5v-313q0 -44 41 -58q9 -3 29 -3q5 0 8.5 -0.5t7.5 -0.5l26 -129h-12q-15 44 -53 77t-101 32h-594v10q57 0 57 61v324q0 64 -57 61v11z" />
    <glyph glyph-name="breve" unicode="&#x449;" horiz-adv-x="863" 
d="M70 467h179v-11q-30 2 -44.5 -12.5t-14.5 -48.5v-321q0 -33 12 -42t34 -9h97q44 0 51.5 11.5t7.5 36.5v324v13q-2 22 -4 25q-15 26 -53 23v11h177v-11q-39 3 -53 -23q-2 -5 -4 -25v-13v-322q0 -22 9 -36t41 -14h99q34 0 43.5 13t9.5 35v324v13q0 17 -4 25q-15 26 -53 23
v11h177v-11q-39 3 -53 -23q-4 -8 -4 -25q0 -4 -0.5 -6.5t-1.5 -6.5v-313q0 -44 41 -58q9 -3 29 -3q5 0 8.5 -0.5t7.5 -0.5l26 -129h-12q-15 44 -53 77t-101 32h-594v10q57 0 57 61v324q0 64 -57 61v11z" />
    <glyph glyph-name="dotaccent" unicode="&#xfa;" horiz-adv-x="597" 
d="M285 268q73 11 128.5 3.5t90 -29t51.5 -52t15 -61.5q0 -46 -34.5 -87.5t-113.5 -41.5h-254v10q31 0 45 13.5t14 47.5v323q0 27 -6 40.5t-31 13.5h-42q-34 0 -64 -30t-49 -66h-11l44 115h274v-11q-57 3 -57 -61v-127zM285 240v-158q0 -26 5 -38.5t26 -19.5q22 -5 56 -1
q35 0 56 8q66 21 69 98q3 45 -23.5 78.5t-73.5 39.5q-41 8 -115 -7z" />
    <glyph glyph-name="dotaccent" unicode="&#x44a;" horiz-adv-x="597" 
d="M285 268q73 11 128.5 3.5t90 -29t51.5 -52t15 -61.5q0 -46 -34.5 -87.5t-113.5 -41.5h-254v10q31 0 45 13.5t14 47.5v323q0 27 -6 40.5t-31 13.5h-42q-34 0 -64 -30t-49 -66h-11l44 115h274v-11q-57 3 -57 -61v-127zM285 240v-158q0 -26 5 -38.5t26 -19.5q22 -5 56 -1
q35 0 56 8q66 21 69 98q3 45 -23.5 78.5t-73.5 39.5q-41 8 -115 -7z" />
    <glyph glyph-name="ring" unicode="&#xfb;" horiz-adv-x="731" 
d="M611 71q0 -34 13.5 -47.5t43.5 -13.5v-10h-57h-63h-57v10q57 0 57 61v324q0 64 -57 61v11h57h63h57v-11q-57 3 -57 -61v-324zM177 268q93 15 159.5 -2t97.5 -54t29 -83q-2 -48 -37.5 -88.5t-111.5 -40.5h-252v10q58 0 58 61v324q0 64 -58 61v11h174v-11q-59 3 -59 -61
v-127zM177 240v-158q0 -23 5.5 -37t27.5 -21q22 -5 55 -1q37 0 56 8q66 21 70 98q1 46 -25 79t-73 39q-40 8 -116 -7z" />
    <glyph glyph-name="ring" unicode="&#x44b;" horiz-adv-x="731" 
d="M611 71q0 -34 13.5 -47.5t43.5 -13.5v-10h-57h-63h-57v10q57 0 57 61v324q0 64 -57 61v11h57h63h57v-11q-57 3 -57 -61v-324zM177 268q93 15 159.5 -2t97.5 -54t29 -83q-2 -48 -37.5 -88.5t-111.5 -40.5h-252v10q58 0 58 61v324q0 64 -58 61v11h174v-11q-59 3 -59 -61
v-127zM177 240v-158q0 -23 5.5 -37t27.5 -21q22 -5 55 -1q37 0 56 8q66 21 70 98q1 46 -25 79t-73 39q-40 8 -116 -7z" />
    <glyph glyph-name="cedilla" unicode="&#xfc;" horiz-adv-x="509" 
d="M177 268q92 15 158 -2t97 -54t31 -83q-2 -50 -39.5 -89.5t-109.5 -39.5h-254v10q31 0 44.5 13t13.5 48v324q0 35 -13.5 48.5t-44.5 12.5v11h175v-11q-39 3 -53 -23q-1 -6 -2 -10.5t-3 -14.5v-13v-127zM177 240v-158q0 -24 5.5 -37.5t25.5 -20.5q22 -5 57 -1q34 0 56 8
q67 20 68 98q2 47 -23 79.5t-73 38.5q-43 9 -116 -7z" />
    <glyph glyph-name="cedilla" unicode="&#x44c;" horiz-adv-x="509" 
d="M177 268q92 15 158 -2t97 -54t31 -83q-2 -50 -39.5 -89.5t-109.5 -39.5h-254v10q31 0 44.5 13t13.5 48v324q0 35 -13.5 48.5t-44.5 12.5v11h175v-11q-39 3 -53 -23q-1 -6 -2 -10.5t-3 -14.5v-13v-127zM177 240v-158q0 -24 5.5 -37.5t25.5 -20.5q22 -5 57 -1q34 0 56 8
q67 20 68 98q2 47 -23 79.5t-73 38.5q-43 9 -116 -7z" />
    <glyph glyph-name="hungarumlaut" unicode="&#xfd;" horiz-adv-x="487" 
d="M90 344h-16l5 100q58 32 111 34q66 4 120.5 -27t86.5 -87.5t33 -123.5t-28.5 -124.5t-80.5 -91.5t-106 -34q-47 -1 -96 22.5t-82 63.5l11 11q63 -63 131 -64q48 -1 89 29t66.5 85t26.5 120q-1 0 -1.5 -0.5l-1.5 -1.5q-7 -4 -12 -8q-9 -5 -19 -15q-33 -24 -55 -25
q-24 -2 -60 17q-10 5 -22.5 10.5t-20.5 6.5q-9 3 -17 2q-18 -3 -42 -22l-8 8q3 2 6.5 6.5t6.5 5.5q8 8 13 13.5t9 8.5q24 24 51 28q18 0 50 -12q36 -17 50 -21q14 -5 26 -3q18 2 32.5 18t13.5 45q-2 46 -36 91.5t-103 42.5q-46 -3 -81 -32t-50 -76z" />
    <glyph glyph-name="hungarumlaut" unicode="&#x44d;" horiz-adv-x="487" 
d="M90 344h-16l5 100q58 32 111 34q66 4 120.5 -27t86.5 -87.5t33 -123.5t-28.5 -124.5t-80.5 -91.5t-106 -34q-47 -1 -96 22.5t-82 63.5l11 11q63 -63 131 -64q48 -1 89 29t66.5 85t26.5 120q-1 0 -1.5 -0.5l-1.5 -1.5q-7 -4 -12 -8q-9 -5 -19 -15q-33 -24 -55 -25
q-24 -2 -60 17q-10 5 -22.5 10.5t-20.5 6.5q-9 3 -17 2q-18 -3 -42 -22l-8 8q3 2 6.5 6.5t6.5 5.5q8 8 13 13.5t9 8.5q24 24 51 28q18 0 50 -12q36 -17 50 -21q14 -5 26 -3q18 2 32.5 18t13.5 45q-2 46 -36 91.5t-103 42.5q-46 -3 -81 -32t-50 -76z" />
    <glyph glyph-name="ogonek" unicode="&#xfe;" horiz-adv-x="774" 
d="M300 233h-110v-162q0 -8 1 -12q0 -17 5 -25q7 -24 53 -24v-10h-179v10q57 0 57 61v324q0 64 -57 61v11h179v-11q-39 3 -53 -23q-5 -6 -5 -25q-1 -5 -1 -13v-140h109q13 87 60 155t149 68q104 0 155.5 -77.5t51.5 -167.5q0 -52 -20.5 -108.5t-68 -95.5t-118.5 -39
q-91 -1 -147 65.5t-61 177.5zM374 233q0 -45 9.5 -97t39.5 -90.5t85 -38.5q83 0 108.5 73.5t25.5 152.5q0 78 -25.5 151.5t-108.5 73.5q-78 0 -106 -71.5t-28 -153.5z" />
    <glyph glyph-name="ogonek" unicode="&#x44e;" horiz-adv-x="774" 
d="M300 233h-110v-162q0 -8 1 -12q0 -17 5 -25q7 -24 53 -24v-10h-179v10q57 0 57 61v324q0 64 -57 61v11h179v-11q-39 3 -53 -23q-5 -6 -5 -25q-1 -5 -1 -13v-140h109q13 87 60 155t149 68q104 0 155.5 -77.5t51.5 -167.5q0 -52 -20.5 -108.5t-68 -95.5t-118.5 -39
q-91 -1 -147 65.5t-61 177.5zM374 233q0 -45 9.5 -97t39.5 -90.5t85 -38.5q83 0 108.5 73.5t25.5 152.5q0 78 -25.5 151.5t-108.5 73.5q-78 0 -106 -71.5t-28 -153.5z" />
    <glyph glyph-name="fl" unicode="&#xff;" horiz-adv-x="553" 
d="M366 226h-100l-107 -226h-108v12q31 3 45 20q2 2 8 11q9 9 9 11l84 172q-41 11 -80 43t-38 86q4 72 56.5 92t108.5 20h243v-11q-57 3 -57 -61v-324q0 -34 13.5 -47.5t43.5 -13.5v-10h-179v10q58 0 58 61v155zM366 250v142q0 35 -31 47q-21 7 -49 3q-46 0 -68 -6
q-55 -17 -63 -79q-4 -50 28.5 -78.5t84.5 -28.5h98z" />
    <glyph glyph-name="fl" unicode="&#x44f;" horiz-adv-x="553" 
d="M366 226h-100l-107 -226h-108v12q31 3 45 20q2 2 8 11q9 9 9 11l84 172q-41 11 -80 43t-38 86q4 72 56.5 92t108.5 20h243v-11q-57 3 -57 -61v-324q0 -34 13.5 -47.5t43.5 -13.5v-10h-179v10q58 0 58 61v155zM366 250v142q0 35 -31 47q-21 7 -49 3q-46 0 -68 -6
q-55 -17 -63 -79q-4 -50 28.5 -78.5t84.5 -28.5h98z" />
    <glyph glyph-name="Otilde" unicode="&#x152;" horiz-adv-x="796" 
d="M339 709v-16q-53 0 -65.5 -30t-12.5 -76v-279l250 270q14 15 25.5 39t5.5 42q-5 25 -37 33q-7 1 -18 1q-3 2 -7 2v14h227v-14q-59 -13 -109 -67l-171 -184q34 -87 91 -194.5t122.5 -200t124.5 -133.5l-13 -17q-44 25 -87.5 61t-92.5 94t-99 130t-118 183l-94 -101v-145
q0 -46 12.5 -76t65.5 -31v-14h-240v14q53 1 65 30.5t12 76.5v466q0 46 -12 76t-65 30v16h240z" />
    <glyph glyph-name="oe" unicode="&#x153;" horiz-adv-x="486" 
d="M372 358h-11q-32 94 -135 94q-44 0 -72 -21.5t-28 -52.5q-1 -26 14 -40t47 -28l146 -60q100 -40 89 -135q-4 -57 -51.5 -91t-116.5 -34q-58 0 -110 11q-7 3 -20.5 7t-25.5 7q1 0 -13 5l-11 112h11q26 -63 72 -90.5t97 -27.5q47 -2 83 21.5t37 66.5q0 56 -75 85l-125 48
q-98 37 -92 123q4 57 46.5 88.5t103.5 31.5q48 0 93 -12q7 -1 18 -4.5t20 -6.5q3 0 5 -0.5t4 -1.5v-95z" />
    <glyph glyph-name="florin" unicode="&#x192;" horiz-adv-x="387" 
d="M236 68q0 -52 -5.5 -94.5t-32.5 -77t-84 -35.5q-30 0 -50 16t-20 37q0 18 12 29.5t29 9.5q28 0 46 -28q2 -1 4 -4.5t4 -6.5q5 -8 13 -9q10 -3 20.5 5t7.5 38q0 13 -0.5 20t-1.5 15q-1 18 -5 40q-3 23 -3 25q0 8 -0.5 12t-0.5 8v382h-70v24h70q3 30 -1 70q-2 20 -8 50
q-1 14 -1 40q4 39 35 65.5t71 28.5q34 1 58 -14.5t26 -37.5q2 -14 -9 -25t-29 -9q-18 0 -32 8q-5 3 -10.5 7t-11.5 7q-2 2 -14.5 7.5t-20.5 6.5q-31 0 -35 -41q-3 -28 14.5 -79t34.5 -84h75v-24h-75v-382z" />
    <glyph glyph-name="dagger" unicode="&#x2020;" horiz-adv-x="237" 
d="M22 749h73v120h48v-120h77v-51h-77v-892h-48v892h-73v51z" />
    <glyph glyph-name="currency" unicode="&#x2219;" horiz-adv-x="597" 
d="M57 419v11q35 10 56.5 27t27.5 30h32v-371q0 -44 10.5 -67t51.5 -26q33 -1 85.5 20t89.5 47v284q0 47 -49 45v11q35 10 56.5 27t27.5 30h32v-416q0 -34 13.5 -47.5t43.5 -13.5v-10h-124v56q-7 -3 -21 -10q-18 -7 -37 -16l-38 -18q-70 -27 -123 -22q-58 3 -71.5 30
t-13.5 68v286q0 47 -49 45z" />
    <glyph glyph-name="cent" horiz-adv-x="487" 
d="M245 -173v166q-50 8 -91 38.5t-67.5 82t-29.5 115.5q-2 59 22.5 114t68.5 91t97 43v155h48v-155q38 -6 68.5 -25t46 -46t12.5 -49q-1 -18 -13 -28.5t-27 -10.5q-39 1 -47 62q0 17 -3 26q-15 33 -64 35q-75 3 -108 -59.5t-28 -135.5q7 -65 40 -126.5t102 -79.5
q83 -19 152 53l21 -19q-77 -74 -152 -83v-164h-48z" />
    <glyph glyph-name="sterling" horiz-adv-x="685" 
d="M93 709h212v-16q-40 -3 -54.5 -24t-14.5 -61l2 -498q0 -33 4.5 -50t18.5 -24.5t47 -7.5h128q39 0 91 21t87 94h17l-25 -143h-522v14q43 1 59.5 24t16.5 72v491q0 44 -14.5 67.5t-52.5 24.5v16z" />
    <glyph glyph-name="acute" horiz-adv-x="1512" 
d="M134 564q0 49 22.5 91.5t62.5 68.5t86 27q49 0 89.5 -26.5t63 -68.5t22.5 -92q0 -49 -23 -91t-63 -68.5t-89 -26.5q-46 1 -86.5 27t-62.5 69t-22 90zM221 564v-25q1 -142 87 -142q83 4 84 142v25v25q-4 142 -84 142q-83 2 -87 -142v-25zM583 130q0 48 22 90.5t62.5 68
t86.5 25.5q74 1 124.5 -54.5t50.5 -130.5q0 -49 -23 -91t-63 -68t-89 -26q-47 1 -86 26.5t-62 67.5t-23 92zM665 129v-25q2 -143 89 -141q36 0 60 33t24 108v25v25q-4 138 -84 142q-35 0 -60 -30t-29 -112v-25zM294 -151l-23 13l499 984l25 -12zM1021 130q0 48 22 90.5
t62.5 68t86.5 25.5q74 1 124.5 -54.5t50.5 -130.5q0 -49 -23 -91t-63 -68t-89 -26q-47 1 -86 26.5t-62 67.5t-23 92zM1103 129v-25q2 -143 89 -141q36 0 60 33t24 108v25v25q-4 138 -84 142q-35 0 -60 -30t-29 -112v-25z" />
    <glyph glyph-name="notequal" 
d="M51 414h321l98 230l33 -14l-89 -216h243v-48h-263l-38 -94h301v-46h-320l-111 -269l-40 17l107 252h-242v46h261l40 94h-301v48z" />
    <glyph glyph-name="AE" horiz-adv-x="642" 
d="M590 572h-15q-18 45 -68.5 76t-103.5 31h-96q-60 0 -60 -71v-485q0 -48 12.5 -77t65.5 -32v-14h-223v14q54 1 66 29t12 80v463q0 51 -16 78.5t-62 28.5v16h454z" />
    <glyph glyph-name="Oslash" horiz-adv-x="442" 
d="M414 341h-14q-49 103 -153 103q-70 3 -70 -50v-323q0 -34 13.5 -47.5t44.5 -13.5v-10h-58h-61h-59v10q58 0 58 61v324q0 64 -58 61v11h59h269z" />
    <glyph glyph-name="lessequal" 
d="M45 243l606 258l11 -32l-514 -226l514 -226l-11 -31zM69 -131v48h586v-48h-586z" />
    <glyph glyph-name="greaterequal" 
d="M662 243l-605 -257l-12 31l516 226l-516 226l12 32zM57 -131v48h586v-48h-586z" />
    <glyph glyph-name="yen" horiz-adv-x="685" 
d="M90 351h202l-146 264q-17 34 -39 56t-65 22v16h237v-16h-11q-4 0 -11 -2t-11 -2q-24 -9 -24 -32q0 -3 1.5 -6.5t2.5 -5.5q0 -3 2 -7.5t3.5 -7.5t1.5 -5q3 -4 6.5 -11l6.5 -13l137 -250h10l113 242q20 42 20 74q0 11 -12.5 18.5t-32.5 7.5v16h173v-16q-46 -6 -68 -26
t-49 -75l-113 -241h212v-48h-234l-3 -7v-87h237v-46h-237v-42q0 -47 12 -77t64 -30v-14h-232v14q51 0 64.5 30.5t13.5 76.5v42h-231v46h231v90l-2 4h-229v48z" />
    <glyph glyph-name="mu" horiz-adv-x="597" 
d="M57 419v11q35 10 56.5 27t27.5 30h32v-371q0 -44 10.5 -67t51.5 -26q33 -1 85.5 20t89.5 47v284q0 47 -49 45v11q35 10 56.5 27t27.5 30h32v-416q0 -34 13.5 -47.5t43.5 -13.5v-10h-124v56q-7 -3 -21 -10q-18 -7 -37 -16l-38 -18q-70 -27 -123 -22q-58 3 -71.5 30
t-13.5 68v286q0 47 -49 45z" />
    <glyph glyph-name="partialdiff" horiz-adv-x="509" 
d="M48 233q0 50 21 108t68 98t120 39q104 0 155 -79t51 -166q0 -88 -52.5 -166t-153.5 -77q-106 0 -157.5 78.5t-51.5 164.5zM121 233q0 -76 26.5 -151t107.5 -75q84 0 109 73.5t25 152.5q0 47 -8 95t-38 89t-88 41q-82 0 -108 -74.5t-26 -150.5z" />
    <glyph glyph-name="summation" horiz-adv-x="509" 
d="M205 709h234v-16q-52 0 -65 -30t-13 -76v-390q0 -209 -173 -211q-64 0 -113.5 38t-49.5 88q0 14 4 26q11 29 44 25q51 -2 51 -87q0 -11 2 -17q8 -45 64 -45q84 0 92 101q1 9 1 29v25v418q0 46 -12.5 76t-65.5 30v16z" />
    <glyph glyph-name="product" 
d="M615 526l-1 -3q-23 76 -80.5 119t-125.5 45q-72 4 -124.5 -30t-81.5 -88t-37 -113q-6 -35 24 -59.5t66 -24.5q22 3 49 11q21 9 30 13t21 9q46 19 69 19q40 0 79 -30.5t59 -55.5l-11 -10q-26 28 -57 32q-9 2 -36 0q-20 -5 -63 -27q-42 -22 -77 -22q-77 0 -159 86
q-8 -25 -5 -67q12 -168 89 -241.5t168 -73.5q69 0 135 42.5t86 116.5h16l-6 -151q-137 -45 -234 -37q-105 10 -183 64.5t-120.5 138.5t-42.5 175v2q0 89 49 174t135.5 136t189.5 47q81 -3 187 -61l5 -136h-13z" />
    <glyph glyph-name="pi" horiz-adv-x="487" 
d="M397 344q-13 46 -49 75.5t-83 32.5q-71 3 -104.5 -42t-33.5 -92q0 -29 13.5 -45t30.5 -18q15 -2 26 3q17 4 52 21q32 12 48 12q26 -3 53 -28q8 -6 12.5 -11t9.5 -11q8 -8 13 -12l-10 -8q-22 19 -42 22q-8 2 -15 -2q-8 -1 -44 -17q-35 -19 -61 -17q-20 1 -53 25
q-10 10 -20 15q-1 2 -4.5 4t-6.5 4l-1.5 1.5t-1.5 0.5q3 -102 55.5 -169t125.5 -65q67 1 132 64l11 -11q-33 -40 -82 -63.5t-97 -22.5q-87 2 -151.5 75t-63.5 175q1 68 33.5 124t87 87t120.5 27q53 -2 111 -34l3 -100h-14z" />
    <glyph glyph-name="ordmasculine" horiz-adv-x="841" 
d="M227 690v19h441h78v-16q-51 0 -64.5 -30.5t-13.5 -75.5v-466q0 -46 12.5 -76t65.5 -31v-14h-232v14q53 1 65.5 31t12.5 76v474q0 57 -15.5 70.5t-45.5 13.5h-92q-72 0 -90 -53q-4 -12 -4.5 -22t-2.5 -26q0 -22 -3 -45q-6 -70 -9 -106q-21 -243 -73 -341t-108 -100
q-37 0 -66 33t-29 85q1 47 22 69.5t44 20.5q19 0 31 -17.5t6 -46.5q-3 -21 -28 -53q-4 -4 -8 -10q-5 -13 -3 -21q4 -37 45 -31q53 10 92 141t50 294q5 51 6 97q1 17 1 36.5t-2 30.5q-5 34 -23 52t-60 24z" />
    <glyph glyph-name="Omega" horiz-adv-x="575" 
d="M159 445v22h341v-20q-39 0 -52 -25q-4 -6 -4 -25q0 -3 -0.5 -6t-1.5 -6v-303q0 -8 2 -12q0 -19 4 -25q11 -24 52 -24v-21h-178v21q41 0 52 24q1 2 6 25v11v276v17v18q-3 38 -41 38h-50q-24 0 -31.5 -12t-14.5 -69q-20 -192 -48.5 -277t-92.5 -82q-33 0 -52 23t-21 60
q0 34 15.5 52.5t32.5 18.5q24 0 32 -23q5 -17 0 -34q-4 -15 -14 -33q-9 -10 -7 -20q5 -16 24 -16q31 0 54 69.5t34.5 156.5t11.5 136q0 39 -17 53t-36 12z" />
    <glyph glyph-name="ae" horiz-adv-x="841" 
d="M229 367v-246q0 -46 12.5 -76t65.5 -31v-14h-233v14q53 1 65.5 31t12.5 76v466q0 46 -12.5 76t-65.5 30v16h233v-16q-53 0 -65.5 -30t-12.5 -76v-190h382v190q0 46 -12 76t-65 30v16h233v-16q-52 0 -65 -30t-13 -76v-466q0 -47 13 -76.5t65 -30.5v-14h-233v14
q53 1 65 30.5t12 76.5v246h-382z" />
    <glyph glyph-name="oslash" horiz-adv-x="575" 
d="M183 229v-158q1 -3 1.5 -5.5t0.5 -6.5q0 -12 5 -25q10 -24 53 -24v-10h-180v10q60 0 60 61v324q0 64 -60 61v11h180v-11q-40 3 -53 -23q-5 -10 -5 -25q0 -4 -0.5 -6.5t-1.5 -6.5v-143h208v143q0 64 -58 61v11h178v-11q-37 1 -47.5 -16.5t-10.5 -44.5v-324
q0 -28 10.5 -44.5t47.5 -16.5v-10h-178v10q58 0 58 61v158h-208z" />
    <glyph glyph-name="questiondown" horiz-adv-x="353" 
d="M102 419v11q58 15 86 57h30v-525q0 -82 -20.5 -139.5t-101.5 -60.5q-30 0 -50 16t-20 37q0 18 12 29.5t29 9.5q28 0 46 -28q2 -1 4 -4.5t4 -6.5q5 -8 13 -9q10 -3 20.5 5t7.5 38q0 13 -0.5 20t-1.5 15q-1 17 -5 40q-3 23 -3 25q0 8 -0.5 12.5t-0.5 9.5v403q0 47 -49 45z
M135 628q0 20 14 35t36 15t36 -15t14 -35q0 -21 -14.5 -35.5t-35.5 -14.5t-35.5 14.5t-14.5 35.5z" />
    <glyph glyph-name="exclamdown" horiz-adv-x="685" 
d="M530 553h-19q-11 38 -41 70.5t-70 51t-81 18.5q-65 3 -98 -33.5t-33 -83.5q-1 -57 41.5 -89t137.5 -74q32 -13 94 -41q131 -71 129 -182q0 -78 -61 -139t-168 -65q-74 -1 -128.5 15.5t-130.5 52.5l-7 136h18q22 -79 90 -126t143 -50q68 -3 115.5 38.5t49.5 104.5
q1 51 -24 80.5t-67 50.5q-15 7 -79 34q-75 32 -126 63.5t-74.5 68.5t-20.5 91q3 81 62 131.5t154 46.5q98 -5 183 -55z" />
    <glyph glyph-name="radical" horiz-adv-x="752" 
d="M681 780l30 -6l-322 -788h-37l-136 395h-174v63h237l118 -348z" />
    <glyph glyph-name="approxequal" horiz-adv-x="537" 
d="M60 179q16 46 54 79t86 34q19 0 42 -5q3 0 22.5 -7t32.5 -12q76 -26 97 -23q30 3 53 47h42q-49 -112 -126 -114q-27 0 -46 4q-14 3 -48 16q-84 31 -109 28q-37 -7 -56 -47h-44zM63 347q16 46 54 79t86 34q19 0 42 -5q3 0 22.5 -7t32.5 -12q76 -26 97 -23q30 3 53 47h42
q-49 -112 -126 -114q-27 0 -46 4q-14 3 -48 16q-84 31 -109 28q-37 -7 -56 -47h-44z" />
    <glyph glyph-name="Delta" horiz-adv-x="752" 
d="M618 -3l-450 3l-42 51l256 669h37l238 -663zM180 87h375l-181 523z" />
    <glyph glyph-name="OE" horiz-adv-x="553" 
d="M63 0v10q43 0 53 24q5 8 5 25q1 3 1.5 5.5t0.5 6.5v324q0 5 -0.5 7.5t-1.5 5.5q0 19 -5 25q-11 26 -53 23v11h180v-11q-30 2 -45 -12t-15 -49v-191l195 196q13 11 13 27t-13 21q-5 5 -15 5q-4 2 -7 3l-6 2v9h151v-9q-34 -8 -65 -39l-123 -125l151 -240q20 -36 61 -45v-9
h-175v9q3 1 8 1q6 2 9.5 2.5t9.5 2.5q19 11 15 30q-1 6 -6 15q-2 4 -3 7t-3 6l-112 176l-85 -84v-94q0 -34 14.5 -47.5t45.5 -13.5v-10h-180z" />
    <glyph glyph-name="fraction" horiz-adv-x="841" 
d="M587 693v16h187v-16q-27 2 -49.5 -15t-26.5 -44q-1 -3 -1 -10.5t-1 -11.5v-22v-336q0 -99 -45.5 -181.5t-212.5 -86.5q-132 -1 -194.5 41.5t-77 96t-14.5 117.5v346q0 46 -12.5 76t-65.5 30v16h233v-16q-53 0 -65.5 -30t-12.5 -76v-397q0 -181 218 -176q136 4 177 70.5
t41 156.5v351q0 51 -14 74.5t-64 26.5z" />
  </font>
</defs>
</svg>
