<svg width="26" height="26" viewBox="0 0 26 26" fill="none" xmlns="http://www.w3.org/2000/svg">
<path d="M13.2065 0.793945C6.31755 0.793945 0.712891 6.40147 0.712891 13.2939C0.712891 20.1859 6.31755 25.7939 13.2065 25.7939C20.0949 25.7939 25.7001 20.1859 25.7001 13.2939C25.7001 6.40147 20.0959 0.793945 13.2065 0.793945ZM16.3135 13.734H14.2809C14.2809 16.9831 14.2809 20.9825 14.2809 20.9825H11.269C11.269 20.9825 11.269 17.0219 11.269 13.734H9.83726V11.1722H11.269V9.51514C11.269 8.32838 11.8326 6.47398 14.3086 6.47398L16.5405 6.48254V8.96935C16.5405 8.96935 15.1843 8.96935 14.9206 8.96935C14.6569 8.96935 14.2819 9.10126 14.2819 9.6672V11.1727H16.5767L16.3135 13.734Z" fill="#6C0316"/>
</svg>
