<svg width="26" height="26" viewBox="0 0 26 26" fill="none" xmlns="http://www.w3.org/2000/svg">
<g clip-path="url(#clip0)">
<path d="M13.1864 15.7964C14.5648 15.7964 15.6886 14.6741 15.6886 13.294C15.6886 12.7492 15.5104 12.2462 15.2155 11.8353C14.7611 11.2049 14.0223 10.7916 13.1879 10.7916C12.3531 10.7916 11.6148 11.2044 11.1594 11.8348C10.8634 12.2457 10.6868 12.7487 10.6863 13.2935C10.6848 14.6736 11.8075 15.7964 13.1864 15.7964Z" fill="#6C0316"/>
<path d="M18.6482 10.2327V8.13506V7.82289L18.3347 7.82389L16.2392 7.83044L16.2472 10.2407L18.6482 10.2327Z" fill="#6C0316"/>
<path d="M13.187 0.793945C6.29802 0.793945 0.693359 6.40147 0.693359 13.2939C0.693359 20.1859 6.29802 25.7939 13.187 25.7939C20.0754 25.7939 25.6806 20.1859 25.6806 13.2939C25.6806 6.40147 20.0764 0.793945 13.187 0.793945ZM20.2923 11.8353V17.6558C20.2923 19.1719 19.0604 20.4039 17.5461 20.4039H8.82784C7.31307 20.4039 6.08162 19.1719 6.08162 17.6558V11.8353V8.93309C6.08162 7.41755 7.31307 6.18547 8.82784 6.18547H17.5456C19.0604 6.18547 20.2923 7.41755 20.2923 8.93309V11.8353Z" fill="#6C0316"/>
<path d="M17.0735 13.2938C17.0735 15.4373 15.3303 17.1824 13.187 17.1824C11.0436 17.1824 9.30088 15.4373 9.30088 13.2938C9.30088 12.7783 9.40354 12.2853 9.58672 11.8352H7.46554V17.6557C7.46554 18.4079 8.07598 19.0172 8.82732 19.0172H17.5451C18.2954 19.0172 18.9069 18.4079 18.9069 17.6557V11.8352H16.7847C16.9694 12.2853 17.0735 12.7783 17.0735 13.2938Z" fill="#6C0316"/>
</g>
<defs>
<clipPath id="clip0">
<rect width="24.9872" height="25" fill="white" transform="translate(0.693359 0.793945)"/>
</clipPath>
</defs>
</svg>
