<?xml version="1.0" encoding="utf-8"?>
<!-- Generator: Adobe Illustrator 16.0.0, SVG Export Plug-In . SVG Version: 6.00 Build 0)  -->
<!DOCTYPE svg PUBLIC "-//W3C//DTD SVG 1.1//EN" "http://www.w3.org/Graphics/SVG/1.1/DTD/svg11.dtd">
<svg version="1.1" id="Слой_1" xmlns="http://www.w3.org/2000/svg" xmlns:xlink="http://www.w3.org/1999/xlink" x="0px" y="0px"
	 width="19px" height="19px" viewBox="0 0 19 19" enable-background="new 0 0 19 19" xml:space="preserve">
<g>
	<defs>
		<rect id="SVGID_1_" width="19" height="19"/>
	</defs>
	<clipPath id="SVGID_2_">
		<use xlink:href="#SVGID_1_"  overflow="visible"/>
	</clipPath>
	<path clip-path="url(#SVGID_2_)" fill="#6C0316" d="M16.815,12.011c-0.78-0.782-2.145-0.781-2.926,0l-0.702,0.702
		c-0.185,0.184-0.492,0.147-0.768-0.056c-1-0.737-2.405-2.142-3.164-2.9C8.502,9.003,7.097,7.599,6.354,6.593
		c-0.162-0.219-0.272-0.55-0.055-0.768l0.703-0.702c0.391-0.39,0.606-0.911,0.606-1.463c0-0.552-0.215-1.073-0.606-1.463l-1.61-1.61
		c-0.782-0.782-2.145-0.782-2.927,0c-2.601,2.601-3.183,5.517-1.558,7.801c1.686,2.37,3.144,3.923,4.47,5.249
		c1.325,1.324,2.877,2.781,5.248,4.469C11.447,18.69,12.411,19,13.413,19c1.676,0,3.41-0.848,5.014-2.453
		c0.391-0.391,0.605-0.91,0.605-1.463s-0.215-1.071-0.605-1.463L16.815,12.011z"/>
</g>
</svg>
