<svg xmlns="http://www.w3.org/2000/svg" xmlns:xlink="http://www.w3.org/1999/xlink" style="display: none">
	<symbol id="hash" viewBox="-4 -4 43 43">
		<path d="M0.1 20.6q0.1-0.8 0.8-1.3t1.5-0.5h4.8l1.2-5.4h-4.3q-0.9 0-1.5-0.7-0.5-0.7-0.4-1.6 0.2-0.8 0.8-1.3t1.5-0.5h4.8l1-4.8q0.2-0.8 0.8-1.3t1.5-0.5q1 0 1.5 0.7t0.4 1.6l-0.9 4.4h5.3l1-4.8q0.2-0.8 0.8-1.3t1.5-0.5q0.9 0 1.5 0.7 0.6 0.7 0.4 1.6l-0.9 4.4h4.4q0.9 0 1.5 0.7 0.5 0.7 0.4 1.6-0.2 0.8-0.8 1.3t-1.5 0.5h-4.8l-1.2 5.4h4.4q0.9 0 1.5 0.7 0.5 0.7 0.4 1.6-0.2 0.8-0.8 1.3t-1.5 0.5h-4.8l-1 4.8q-0.2 0.8-0.8 1.3t-1.5 0.5q-0.9 0-1.5-0.7-0.5-0.7-0.4-1.6l0.9-4.4h-5.3l-1.1 4.8q-0.2 0.8-0.8 1.3t-1.5 0.5q-0.9 0-1.5-0.7-0.5-0.7-0.4-1.6l1-4.4h-4.4q-0.9 0-1.5-0.7-0.6-0.7-0.4-1.6zM11.3 18.7h5.4l1.2-5.4h-5.4z"></path>
	</symbol>
	<symbol id="del" viewBox="-2 -2 43 43">
		<path d="M38.6 31.3c0 0 0 0 0 0l-11.8-11.8 11.8-11.8c0 0 0 0 0 0 0.1-0.1 0.2-0.3 0.3-0.4 0.2-0.4 0.1-0.9-0.3-1.3l-5.6-5.6c-0.3-0.3-0.9-0.4-1.3-0.3-0.2 0.1-0.3 0.2-0.4 0.3 0 0 0 0 0 0l-11.8 11.8-11.8-11.8c0 0 0 0 0 0-0.1-0.1-0.3-0.2-0.4-0.3-0.4-0.2-0.9-0.1-1.3 0.3l-5.6 5.6c-0.3 0.3-0.4 0.9-0.3 1.3 0.1 0.2 0.2 0.3 0.3 0.4 0 0 0 0 0 0l11.8 11.8-11.8 11.8c0 0 0 0 0 0-0.1 0.1-0.2 0.3-0.3 0.4-0.2 0.4-0.1 0.9 0.3 1.3l5.6 5.6c0.3 0.3 0.9 0.4 1.3 0.3 0.2-0.1 0.3-0.2 0.4-0.3 0 0 0 0 0 0l11.8-11.8 11.8 11.8c0 0 0 0 0 0 0.1 0.1 0.3 0.2 0.4 0.3 0.4 0.2 0.9 0.1 1.3-0.3l5.6-5.6c0.3-0.3 0.4-0.9 0.3-1.3-0.1-0.2-0.2-0.3-0.3-0.4z"></path>
	</symbol>
	<symbol id="add" viewBox="0 0 39 39">
		<path d="M37.8 14.6h-13.4v-13.4c0-0.7-0.5-1.2-1.2-1.2h-7.3c-0.7 0-1.2 0.5-1.2 1.2v13.4h-13.4c-0.7 0-1.2 0.5-1.2 1.2v7.3c0 0.7 0.5 1.2 1.2 1.2h13.4v13.4c0 0.7 0.5 1.2 1.2 1.2h7.3c0.7 0 1.2-0.5 1.2-1.2v-13.4h13.4c0.7 0 1.2-0.5 1.2-1.2v-7.3c0-0.7-0.5-1.2-1.2-1.2z"></path>
	</symbol>
</svg>