<svg xmlns="http://www.w3.org/2000/svg" xmlns:xlink="http://www.w3.org/1999/xlink" viewBox="-12 -12 64 64" id="arr5"><path d="M2.3 23c0.3 0.3 0.6 0.4 0.9 0.4s0.6-0.1 0.9-0.4l15.4-15.4 15.4 15.4c0.3 0.3 0.6 0.4 0.9 0.4 0.3 0 0.6-0.1 0.9-0.4l2-2c0.3-0.3 0.4-0.6 0.4-0.9s-0.1-0.6-0.4-0.9l-18.2-18.2c-0.3-0.3-0.6-0.4-0.9-0.4s-0.6 0.1-0.9 0.4l-18.2 18.2c-0.3 0.3-0.4 0.6-0.4 0.9 0 0.3 0.1 0.6 0.4 0.9l2 2z"></path><path d="M20.4 16c-0.3-0.3-0.6-0.4-0.9-0.4s-0.6 0.1-0.9 0.4l-18.2 18.2c-0.3 0.3-0.4 0.6-0.4 0.9s0.1 0.6 0.4 0.9l2 2c0.3 0.3 0.6 0.4 0.9 0.4s0.6-0.1 0.9-0.4l15.4-15.4 15.4 15.4c0.3 0.3 0.6 0.4 0.9 0.4 0.3 0 0.6-0.1 0.9-0.4l2-2c0.3-0.3 0.4-0.6 0.4-0.9s-0.1-0.6-0.4-0.9l-18.2-18.2z"></path></svg>